SplineFontDB: 3.0
FontName: SansitaOne
FullName: Sansita One
FamilyName: Sansita One
Weight: Book
Copyright: Copyright (c) 2011 by Omnibus-Type (www.omnibus-type.com), with Reserved Font Name "Sansita One".
Version: 1.001
ItalicAngle: 0
UnderlinePosition: -50
UnderlineWidth: 50
Ascent: 800
Descent: 200
sfntRevision: 0x00010042
LayerCount: 2
Layer: 0 1 "Back"  1
Layer: 1 1 "Fore"  0
XUID: [1021 288 713564382 1944235]
FSType: 0
OS2Version: 3
OS2_WeightWidthSlopeOnly: 0
OS2_UseTypoMetrics: 1
CreationTime: 1315424820
ModificationTime: 1316793705
PfmFamily: 65
TTFWeight: 400
TTFWidth: 5
LineGap: 0
VLineGap: 0
Panose: 2 0 6 3 8 0 0 2 0 3
OS2TypoAscent: 907
OS2TypoAOffset: 0
OS2TypoDescent: -258
OS2TypoDOffset: 0
OS2TypoLinegap: 0
OS2WinAscent: 907
OS2WinAOffset: 0
OS2WinDescent: 258
OS2WinDOffset: 0
HheadAscent: 907
HheadAOffset: 0
HheadDescent: -258
HheadDOffset: 0
OS2SubXSize: 700
OS2SubYSize: 650
OS2SubXOff: 0
OS2SubYOff: 140
OS2SupXSize: 700
OS2SupYSize: 650
OS2SupXOff: 0
OS2SupYOff: 477
OS2StrikeYSize: 50
OS2StrikeYPos: 250
OS2Vendor: '    '
OS2CodePages: 00000001.00000000
OS2UnicodeRanges: 00000001.00000000.00000000.00000000
Lookup: 258 0 0 "'kern' Horizontal Kerning in Latin lookup 0"  {"'kern' Horizontal Kerning in Latin lookup 0 per glyph data 0"  "'kern' Horizontal Kerning in Latin lookup 0 per glyph data 1"  "'kern' Horizontal Kerning in Latin lookup 0 kerning class 2"  } ['kern' ('latn' <'dflt' > ) ]
MarkAttachClasses: 1
DEI: 91125
KernClass2: 22+ 18 "'kern' Horizontal Kerning in Latin lookup 0 kerning class 2" 
 50 A Agrave Aacute Acircumflex Atilde Adieresis Aring
 5 D Eth
 8 L Lslash
 53 O Q Ograve Oacute Ocircumflex Otilde Odieresis Oslash
 8 S Scaron
 37 U Ugrave Uacute Ucircumflex Udieresis
 18 Y Yacute Ydieresis
 19 Z Zdotaccent Zcaron
 50 a agrave aacute acircumflex atilde adieresis aring
 61 b o p ograve oacute ocircumflex otilde odieresis oslash thorn
 15 colon semicolon
 40 comma period quotesinglbase quotedblbase
 27 guillemotleft guilsinglleft

StartChar: exclam
Encoding: 33 33 4
Width: 290
GlyphClass: 2
Flags: HMW
LayerCount: 2
Fore
SplineSet
-10 59 m 256,0,1
 -10 97 -10 97 18.5 117.5 c 128,-1,2
 47 138 47 138 89 138 c 256,3,4
 131 138 131 138 157.5 117.5 c 128,-1,5
 184 97 184 97 184 59 c 256,6,7
 184 21 184 21 154.5 0 c 128,-1,8
 125 -21 125 -21 83 -21 c 256,9,10
 41 -21 41 -21 15.5 0 c 128,-1,11
 -10 21 -10 21 -10 59 c 256,0,1
44 247 m 0,12,13
 44 254 44 254 46 264 c 2,14,-1
 124 666 l 1,15,16
 161.333333333 680 161.333333333 680 205.166666667 680 c 128,-1,17
 249 680 249 680 272 652 c 128,-1,18
 295 624 295 624 295 582.5 c 128,-1,19
 295 541 295 541 279 494.5 c 128,-1,20
 263 448 263 448 243.5 401 c 128,-1,21
 224 354 224 354 207.5 305.5 c 128,-1,22
 191 257 191 257 190 206 c 1,23,24
 167.25 180 167.25 180 127.125 180 c 128,-1,25
 87 180 87 180 65.5 198.5 c 128,-1,26
 44 217 44 217 44 247 c 0,12,13
EndSplineSet
EndChar

StartChar: quotedbl
Encoding: 34 34 5
Width: 440
GlyphClass: 2
Flags: HMW
LayerCount: 2
Fore
SplineSet
66 461 m 1,0,1
 102.855731225 588.911067194 102.855731225 588.911067194 105 724 c 1,2,-1
 134 728 l 2,3,4
 149 730 149 730 160 730 c 0,5,6
 204 730 204 730 228 708.5 c 128,-1,7
 252 687 252 687 252 649 c 0,8,9
 252 609.363636364 252 609.363636364 234 565.181818182 c 0,10,11
 202.229007634 487.198473282 202.229007634 487.198473282 172 461 c 1,12,-1
 66 461 l 1,0,1
275 461 m 1,13,14
 311.855731225 588.911067194 311.855731225 588.911067194 314 724 c 1,15,-1
 343 728 l 2,16,17
 358 730 358 730 369 730 c 0,18,19
 413 730 413 730 437 708.5 c 128,-1,20
 461 687 461 687 461 649 c 0,21,22
 461 609.363636364 461 609.363636364 443 565.181818182 c 0,23,24
 411.229007634 487.198473282 411.229007634 487.198473282 381 461 c 1,25,-1
 275 461 l 1,13,14
EndSplineSet
EndChar

StartChar: numbersign
Encoding: 35 35 6
Width: 626
GlyphClass: 2
Flags: HMW
LayerCount: 2
Fore
SplineSet
24 143 m 1,0,1
 18 165 18 165 18 191.5 c 128,-1,2
 18 218 18 218 37 238 c 128,-1,3
 56 258 56 258 91 258 c 2,4,-1
 134 258 l 1,5,-1
 156 387 l 1,6,-1
 55 387 l 1,7,8
 49 409 49 409 49 436 c 128,-1,9
 49 463 49 463 68 482.5 c 128,-1,10
 87 502 87 502 122 502 c 2,11,-1
 175 502 l 1,12,-1
 191 599 l 2,13,14
 201.517241379 660 201.517241379 660 257 660 c 0,15,16
 279 660 279 660 308 648 c 1,17,-1
 285 502 l 1,18,-1
 396 502 l 1,19,-1
 412 599 l 2,20,21
 417 628 417 628 434 644 c 128,-1,22
 451 660 451 660 476 660 c 128,-1,23
 501 660 501 660 528 648 c 1,24,-1
 506 502 l 1,25,-1
 601 502 l 1,26,27
 606 479 606 479 606 452.5 c 128,-1,28
 606 426 606 426 587.5 406.5 c 128,-1,29
 569 387 569 387 534 387 c 2,30,-1
 488 387 l 1,31,-1
 468 258 l 1,32,-1
 569 258 l 1,33,34
 575 235 575 235 575 208.5 c 128,-1,35
 575 182 575 182 556 162.5 c 128,-1,36
 537 143 537 143 502 143 c 2,37,-1
 451 143 l 1,38,-1
 439 61 l 2,39,40
 435 32 435 32 413 16 c 128,-1,41
 391 0 391 0 364.5 0 c 128,-1,42
 338 0 338 0 313 12 c 1,43,-1
 336 143 l 1,44,-1
 230 143 l 1,45,-1
 218 61 l 2,46,47
 214 32 214 32 192 16 c 128,-1,48
 170 0 170 0 143.5 0 c 128,-1,49
 117 0 117 0 92 12 c 1,50,-1
 114 143 l 1,51,-1
 24 143 l 1,0,1
248 258 m 1,52,-1
 355 258 l 1,53,-1
 377 387 l 1,54,-1
 267 387 l 1,55,-1
 248 258 l 1,52,-1
EndSplineSet
EndChar

StartChar: dollar
Encoding: 36 36 7
Width: 563
GlyphClass: 2
Flags: HMW
LayerCount: 2
Fore
SplineSet
38 17.5 m 128,-1,1
 -7 48 -7 48 -7 99 c 128,-1,2
 -7 150 -7 150 23.5 183 c 128,-1,3
 54 216 54 216 102 216 c 0,4,5
 144.666666667 216 144.666666667 216 175 203 c 1,6,7
 155 169 155 169 155 125.5 c 128,-1,8
 155 82 155 82 169.5 65 c 128,-1,9
 184 48 184 48 220 48 c 128,-1,10
 256 48 256 48 282 69.5 c 128,-1,11
 308 91 308 91 308 127 c 128,-1,12
 308 163 308 163 289.5 185 c 128,-1,13
 271 207 271 207 243 224.5 c 128,-1,14
 215 242 215 242 182.5 259 c 128,-1,15
 150 276 150 276 122 299.5 c 0,16,17
 57 354.053571429 57 354.053571429 57 443 c 0,18,19
 57 527.707692308 57 527.707692308 126.5 594 c 0,20,21
 194.384615385 658.75147929 194.384615385 658.75147929 300 675 c 1,22,-1
 305 702 l 2,23,24
 313 746 313 746 327.5 761.5 c 128,-1,25
 342 777 342 777 368 777 c 128,-1,26
 394 777 394 777 416 772 c 1,27,-1
 397 678 l 1,28,29
 478 672 478 672 521.5 641 c 128,-1,30
 565 610 565 610 565 561.5 c 128,-1,31
 565 513 565 513 531.5 485 c 128,-1,32
 498 457 498 457 444 457 c 0,33,34
 411 457 411 457 387 467 c 1,35,36
 393 480 393 480 399 502.5 c 128,-1,37
 405 525 405 525 405 538 c 128,-1,38
 405 551 405 551 403 565.5 c 128,-1,39
 401 580 401 580 394.5 591.5 c 0,40,41
 380.086956522 617 380.086956522 617 339.543478261 617 c 128,-1,42
 299 617 299 617 275 590 c 128,-1,43
 251 563 251 563 251 526.5 c 128,-1,44
 251 490 251 490 270.5 468.5 c 128,-1,45
 290 447 290 447 318.5 427 c 128,-1,46
 347 407 347 407 381 387 c 128,-1,47
 415 367 415 367 443.5 343 c 0,48,49
 511 286.157894737 511 286.157894737 511 214 c 0,50,51
 511 125.462686567 511 125.462686567 439.5 62.5 c 0,52,53
 370.012638231 1.30963665087 370.012638231 1.30963665087 264 -15 c 1,54,-1
 259 -42 l 2,55,56
 250 -86 250 -86 235.5 -101.5 c 128,-1,57
 221 -117 221 -117 192 -117 c 128,-1,58
 163 -117 163 -117 145 -112 c 1,59,-1
 163 -18 l 1,60,0
 83 -13 83 -13 38 17.5 c 128,-1,1
EndSplineSet
EndChar

StartChar: percent
Encoding: 37 37 8
Width: 1036
GlyphClass: 2
Flags: HMW
LayerCount: 2
Fore
SplineSet
86.5 326 m 128,-1,1
 51 366 51 366 51 424 c 128,-1,2
 51 482 51 482 64.5 527 c 128,-1,3
 78 572 78 572 106.5 606 c 0,4,5
 167.691176471 679 167.691176471 679 281 679 c 0,6,7
 436 679 436 679 436 520 c 0,8,9
 436 412.451612903 436 412.451612903 371 348.5 c 0,10,11
 307.475409836 286 307.475409836 286 195 286 c 0,12,0
 122 286 122 286 86.5 326 c 128,-1,1
128 9 m 1,13,-1
 730 644 l 1,14,15
 768.380952381 682.380952381 768.380952381 682.380952381 826.015873016 682.380952381 c 0,16,17
 875.98136646 682.380952381 875.98136646 682.380952381 891 644 c 1,18,-1
 290 14 l 2,19,20
 255.298611111 -22.5277777778 255.298611111 -22.5277777778 202.558641975 -22.5277777778 c 0,21,22
 178.210784314 -22.5277777778 178.210784314 -22.5277777778 158.105392157 -13.7638888889 c 128,-1,23
 138 -5 138 -5 128 9 c 1,13,-1
210 337 m 0,24,25
 251.229508197 337 251.229508197 337 280 404.5 c 0,26,27
 307 467.846153846 307 467.846153846 307 560 c 0,28,29
 307 628 307 628 277 628 c 0,30,31
 238.287878788 628 238.287878788 628 209.5 552 c 0,32,33
 183 482.04 183 482.04 183 409.52 c 128,-1,34
 183 337 183 337 210 337 c 0,24,25
634.5 20 m 128,-1,36
 599 60 599 60 599 118 c 128,-1,37
 599 176 599 176 612.5 221 c 128,-1,38
 626 266 626 266 654.5 300 c 0,39,40
 715.691176471 373 715.691176471 373 829 373 c 0,41,42
 939.754098361 373 939.754098361 373 973 288.5 c 0,43,44
 985 258 985 258 985 209 c 128,-1,45
 985 160 985 160 968 116.5 c 128,-1,46
 951 73 951 73 919.5 42.5 c 0,47,48
 854.950819672 -20 854.950819672 -20 743 -20 c 0,49,35
 670 -20 670 -20 634.5 20 c 128,-1,36
759 31 m 0,50,51
 780 31 780 31 798 49.5 c 128,-1,52
 816 68 816 68 828.5 98.5 c 0,53,54
 855 163.16 855 163.16 855 254 c 0,55,56
 855 322 855 322 825 322 c 0,57,58
 787.939393939 322 787.939393939 322 758 246 c 0,59,60
 731 177.461538462 731 177.461538462 731 104.230769231 c 128,-1,61
 731 31 731 31 759 31 c 0,50,51
EndSplineSet
EndChar

StartChar: ampersand
Encoding: 38 38 9
Width: 733
GlyphClass: 2
Flags: HMW
LayerCount: 2
Fore
SplineSet
435 17 m 1,0,1
 345.764705882 -20 345.764705882 -20 237 -20 c 0,2,3
 141.163265306 -20 141.163265306 -20 75.5 29.5 c 0,4,5
 5 82.6461538462 5 82.6461538462 5 177 c 0,6,7
 5 316.461538462 5 316.461538462 172 355 c 1,8,9
 144 434 144 434 144 489 c 128,-1,10
 144 544 144 544 165 579.5 c 128,-1,11
 186 615 186 615 222 637.5 c 0,12,13
 290 680 290 680 404 680 c 0,14,15
 482.517241379 680 482.517241379 680 533 649.5 c 0,16,17
 584 618.6875 584 618.6875 584 573 c 0,18,19
 584 520.545454545 584 520.545454545 548.5 491.5 c 0,20,21
 516.111111111 465 516.111111111 465 463 465 c 0,22,23
 432.5 465 432.5 465 422 468 c 1,24,25
 426 490 426 490 426 526 c 128,-1,26
 426 562 426 562 414 586.5 c 128,-1,27
 402 611 402 611 382 611 c 0,28,29
 345 611 345 611 331 578.5 c 128,-1,30
 317 546 317 546 317 498.5 c 128,-1,31
 317 451 317 451 326.5 407.5 c 128,-1,32
 336 364 336 364 354 322.5 c 0,33,34
 391.892833222 235.13596785 391.892833222 235.13596785 453 176 c 1,35,36
 468.808695652 214.643478261 468.808695652 214.643478261 471 276 c 1,37,38
 471 329.826086957 471 329.826086957 434 362 c 1,39,40
 448 375 448 375 475 383 c 128,-1,41
 502 391 502 391 526 391 c 0,42,43
 579 391 579 391 604 359 c 128,-1,44
 629 327 629 327 629 276 c 0,45,46
 629 184.848484848 629 184.848484848 564 110 c 1,47,48
 589 103 589 103 612.5 103 c 0,49,50
 662.4 103 662.4 103 678 116 c 1,51,52
 686 96.8 686 96.8 686 72 c 0,53,54
 686 22 686 22 653.5 1 c 128,-1,55
 621 -20 621 -20 562.823529412 -20 c 128,-1,56
 504.647058824 -20 504.647058824 -20 435 17 c 1,0,1
206 279 m 1,57,58
 184 257 184 257 184 218 c 128,-1,59
 184 179 184 179 193 154.5 c 128,-1,60
 202 130 202 130 216.5 112 c 0,61,62
 247.916666667 73 247.916666667 73 290 73 c 0,63,64
 327.6 73 327.6 73 350 81 c 1,65,66
 265.625 159.75 265.625 159.75 206 279 c 1,57,58
EndSplineSet
EndChar

StartChar: quotesingle
Encoding: 39 39 10
Width: 231
GlyphClass: 2
Flags: HMW
LayerCount: 2
Fore
SplineSet
66 461 m 1,0,1
 102.855731225 588.911067194 102.855731225 588.911067194 105 724 c 1,2,-1
 134 728 l 2,3,4
 149 730 149 730 160 730 c 0,5,6
 204 730 204 730 228 708.5 c 128,-1,7
 252 687 252 687 252 649 c 0,8,9
 252 609.363636364 252 609.363636364 234 565.181818182 c 0,10,11
 202.229007634 487.198473282 202.229007634 487.198473282 172 461 c 1,12,-1
 66 461 l 1,0,1
EndSplineSet
EndChar

StartChar: parenleft
Encoding: 40 40 11
Width: 329
GlyphClass: 2
Flags: HMW
LayerCount: 2
Fore
SplineSet
26 26.5 m 128,-1,1
 11 93 11 93 11 168 c 128,-1,2
 11 243 11 243 25.5 320 c 128,-1,3
 40 397 40 397 66 467 c 128,-1,4
 92 537 92 537 127 598 c 128,-1,5
 162 659 162 659 202.5 704 c 0,6,7
 288.9 800 288.9 800 375 800 c 0,8,9
 412 800 412 800 426 780 c 1,10,11
 217.303278689 634.819672131 217.303278689 634.819672131 160.5 294 c 0,12,13
 142 183 142 183 142 56 c 0,14,15
 142 -17 142 -17 163.5 -72.5 c 128,-1,16
 185 -128 185 -128 234 -180 c 1,17,18
 228 -200 228 -200 194 -200 c 128,-1,19
 160 -200 160 -200 126.5 -170.5 c 128,-1,20
 93 -141 93 -141 67 -90.5 c 128,-1,0
 41 -40 41 -40 26 26.5 c 128,-1,1
EndSplineSet
EndChar

StartChar: parenright
Encoding: 41 41 12
Width: 326
GlyphClass: 2
Flags: HMW
LayerCount: 2
Fore
SplineSet
-107 -180 m 1,0,1
 29.5844641522 -86.9642055775 29.5844641522 -86.9642055775 102.5 102 c 0,2,3
 174 287.295774648 174 287.295774648 174 543 c 0,4,5
 174 617 174 617 152.5 672.5 c 128,-1,6
 131 728 131 728 83 780 c 1,7,8
 85 788 85 788 96 794 c 128,-1,9
 107 800 107 800 118 800 c 0,10,11
 155 800 155 800 189 770 c 128,-1,12
 223 740 223 740 249 689.5 c 0,13,14
 305 580.730769231 305 580.730769231 305 432 c 0,15,16
 305 280.076923077 305 280.076923077 250 132 c 0,17,18
 196.664864865 -11.5945945946 196.664864865 -11.5945945946 113.5 -104 c 0,19,20
 27.1 -200 27.1 -200 -59 -200 c 0,21,22
 -97 -200 -97 -200 -107 -180 c 1,0,1
EndSplineSet
EndChar

StartChar: asterisk
Encoding: 42 42 13
Width: 486
GlyphClass: 2
Flags: HMW
LayerCount: 2
Fore
SplineSet
327 287 m 0,0,1
 272.2 287 272.2 287 245 406 c 1,2,-1
 182 324 l 1,3,4
 156.702702703 288.972972973 156.702702703 288.972972973 149 271 c 1,5,6
 125 271 125 271 106.5 286.5 c 128,-1,7
 88 302 88 302 88 330.5 c 128,-1,8
 88 359 88 359 130 400 c 1,9,10
 159 432 159 432 198 462 c 1,11,12
 165 470 165 470 130 477.5 c 128,-1,13
 95 485 95 485 58 485 c 1,14,15
 58 523 58 523 78 552 c 128,-1,16
 98 581 98 581 132 581 c 128,-1,17
 166 581 166 581 194 566 c 2,18,-1
 249 536 l 1,19,20
 260 619.6 260 619.6 260 649.8 c 128,-1,21
 260 680 260 680 259 685 c 1,22,23
 283 701 283 701 309.5 701 c 0,24,25
 360 701 360 701 360 650 c 0,26,27
 360 601.846153846 360 601.846153846 326 526 c 1,28,29
 444.4375 573.375 444.4375 573.375 472 597 c 1,30,31
 493 576 493 576 493 546.5 c 128,-1,32
 493 517 493 517 475.5 499.5 c 128,-1,33
 458 482 458 482 432.5 471.5 c 0,34,35
 394.358974359 455.794871795 394.358974359 455.794871795 324 447 c 1,36,37
 347 409 347 409 370.5 380 c 128,-1,38
 394 351 394 351 407 343 c 1,39,40
 376.666666667 287 376.666666667 287 327 287 c 0,0,1
EndSplineSet
EndChar

StartChar: plus
Encoding: 43 43 14
Width: 473
GlyphClass: 2
Flags: HMW
LayerCount: 2
Fore
SplineSet
10 190 m 1,0,1
 6 202 6 202 6 226.5 c 128,-1,2
 6 251 6 251 26.5 271.5 c 128,-1,3
 47 292 47 292 79 292 c 2,4,-1
 172 292 l 1,5,-1
 192 399 l 1,6,7
 199 430 199 430 220.5 448 c 128,-1,8
 242 466 242 466 269 466 c 128,-1,9
 296 466 296 466 314 459 c 1,10,-1
 282 292 l 1,11,-1
 431 292 l 1,12,-1
 434 276 l 2,13,14
 436 269 436 269 436 262 c 0,15,16
 436 228 436 228 413 209 c 128,-1,17
 390 190 390 190 352 190 c 2,18,-1
 262 190 l 1,19,-1
 238 67 l 1,20,21
 225 6 225 6 161 6 c 0,22,23
 138 6 138 6 117 13 c 1,24,-1
 153 190 l 1,25,-1
 10 190 l 1,0,1
EndSplineSet
EndChar

StartChar: comma
Encoding: 44 44 15
Width: 246
GlyphClass: 2
Flags: HMW
LayerCount: 2
Fore
SplineSet
-71 -129 m 1,0,1
 6 -45.84 6 -45.84 6 58 c 0,2,3
 6 90 6 90 -5 120 c 1,4,5
 7 128 7 128 31 133.5 c 128,-1,6
 55 139 55 139 73 139 c 0,7,8
 117 139 117 139 143 115.5 c 128,-1,9
 169 92 169 92 169 51 c 128,-1,10
 169 10 169 10 153 -23 c 128,-1,11
 137 -56 137 -56 110 -81 c 0,12,13
 51.68 -135 51.68 -135 -28 -135 c 0,14,15
 -44 -135 -44 -135 -71 -129 c 1,0,1
EndSplineSet
EndChar

StartChar: hyphen
Encoding: 45 45 16
Width: 392
GlyphClass: 2
Flags: HMW
LayerCount: 2
Fore
SplineSet
54 162 m 1,0,1
 22 184.588235294 22 184.588235294 22 229 c 0,2,3
 22 253 22 253 34 272.5 c 128,-1,4
 46 292 46 292 70 295 c 1,5,-1
 267 295 l 2,6,7
 300 295 300 295 310 315 c 1,8,9
 326 306 326 306 333 287 c 128,-1,10
 340 268 340 268 340 248 c 128,-1,11
 340 228 340 228 324.5 208.5 c 128,-1,12
 309 189 309 189 286 187 c 1,13,-1
 103 187 l 2,14,15
 82 187 82 187 72 180.5 c 128,-1,16
 62 174 62 174 54 162 c 1,0,1
EndSplineSet
EndChar

StartChar: period
Encoding: 46 46 17
Width: 257
GlyphClass: 2
Flags: HMW
LayerCount: 2
Fore
SplineSet
-13 59 m 256,0,1
 -13 97 -13 97 16.5 118 c 128,-1,2
 46 139 46 139 88 139 c 256,3,4
 130 139 130 139 155.5 118 c 128,-1,5
 181 97 181 97 181 59 c 256,6,7
 181 21 181 21 152.5 0.5 c 128,-1,8
 124 -20 124 -20 82 -20 c 256,9,10
 40 -20 40 -20 13.5 0.5 c 128,-1,11
 -13 21 -13 21 -13 59 c 256,0,1
EndSplineSet
EndChar

StartChar: slash
Encoding: 47 47 18
Width: 366
GlyphClass: 2
Flags: HMW
LayerCount: 2
Fore
SplineSet
-56 -149 m 0,0,1
 -56 -131 -56 -131 -47 -105 c 2,2,-1
 280 798 l 1,3,4
 298 801 298 801 333.5 801 c 128,-1,5
 369 801 369 801 390.5 791.5 c 128,-1,6
 412 782 412 782 412 753 c 0,7,8
 412 728 412 728 396 682 c 2,9,-1
 78 -196 l 1,10,11
 70 -200 70 -200 23 -200 c 0,12,13
 -56 -200 -56 -200 -56 -149 c 0,0,1
EndSplineSet
EndChar

StartChar: zero
Encoding: 48 48 19
Width: 604
GlyphClass: 2
Flags: HMW
LayerCount: 2
Fore
SplineSet
33 238 m 0,0,1
 33 439.813186813 33 439.813186813 128.5 560.5 c 0,2,3
 223.060869565 680 223.060869565 680 386 680 c 0,4,5
 473 680 473 680 523 615 c 128,-1,6
 573 550 573 550 573 441.5 c 128,-1,7
 573 333 573 333 548.5 248.5 c 128,-1,8
 524 164 524 164 480 104 c 0,9,10
 388.333333333 -21 388.333333333 -21 235 -21 c 0,11,12
 132 -21 132 -21 82.5 42.5 c 128,-1,13
 33 106 33 106 33 238 c 0,0,1
210 170 m 0,14,15
 210 69 210 69 243 69 c 0,16,17
 273 69 273 69 300.5 104 c 128,-1,18
 328 139 328 139 349.5 197.5 c 0,19,20
 397 326.744186047 397 326.744186047 397 487 c 0,21,22
 397 541 397 541 388.5 565.5 c 128,-1,23
 380 590 380 590 357.5 590 c 128,-1,24
 335 590 335 590 308.5 551 c 128,-1,25
 282 512 282 512 260 451 c 0,26,27
 210 312.363636364 210 312.363636364 210 170 c 0,14,15
EndSplineSet
EndChar

StartChar: one
Encoding: 49 49 20
Width: 522
GlyphClass: 2
Flags: HMW
LayerCount: 2
Fore
SplineSet
138 -11 m 2,0,1
 107 -10 107 -10 74.5 -10 c 128,-1,2
 42 -10 42 -10 10 -14 c 1,3,4
 6 2 6 2 6 21 c 0,5,6
 6 61 6 61 28.5 85 c 128,-1,7
 51 109 51 109 86 109 c 2,8,-1
 140 109 l 1,9,-1
 224 487 l 1,10,11
 193 456 193 456 129 456 c 0,12,13
 96.6296296296 456 96.6296296296 456 71.5 485.5 c 0,14,15
 46.9704433498 514.295566502 46.9704433498 514.295566502 43 554 c 1,16,17
 190.886435331 579.880126183 190.886435331 579.880126183 412 679 c 1,18,-1
 444 641 l 1,19,-1
 347 109 l 1,20,-1
 372 109 l 2,21,22
 432.2 109 432.2 109 463 120 c 1,23,24
 476 98.3333333333 476 98.3333333333 476 62.1666666667 c 128,-1,25
 476 26 476 26 449.5 4.5 c 128,-1,26
 423 -17 423 -17 379 -17 c 0,27,28
 290 -17 290 -17 202 -13 c 1,29,-1
 138 -11 l 2,0,1
EndSplineSet
EndChar

StartChar: two
Encoding: 50 50 21
Width: 561
GlyphClass: 2
Flags: HMW
LayerCount: 2
Fore
SplineSet
9 148 m 1,0,-1
 134 244 l 1,1,-1
 212 308 l 2,2,3
 252 342 252 342 281 372 c 0,4,5
 334 425 334 425 334 476 c 0,6,7
 334 506 334 506 314.5 522 c 128,-1,8
 295 538 295 538 266.5 538 c 128,-1,9
 238 538 238 538 217.5 531.5 c 128,-1,10
 197 525 197 525 179 513.5 c 0,11,12
 141.150943396 489.318658281 141.150943396 489.318658281 123 451 c 1,13,14
 98 452 98 452 81.5 473 c 128,-1,15
 65 494 65 494 65 524.5 c 128,-1,16
 65 555 65 555 84 583.5 c 128,-1,17
 103 612 103 612 137 633.5 c 0,18,19
 210.534883721 680 210.534883721 680 312.26744186 680 c 128,-1,20
 414 680 414 680 471 636 c 128,-1,21
 528 592 528 592 528 517 c 0,22,23
 528 461 528 461 500.5 410 c 128,-1,24
 473 359 473 359 400 307 c 2,25,-1
 292 231 l 1,26,-1
 227 188 l 1,27,-1
 144 137 l 1,28,-1
 179 133 l 2,29,30
 203 130 203 130 245 130 c 128,-1,31
 287 130 287 130 322 134.5 c 128,-1,32
 357 139 357 139 387 147.5 c 0,33,34
 453.020236088 166.205733558 453.020236088 166.205733558 474 191 c 1,35,36
 485 183 485 183 493.5 162.5 c 128,-1,37
 502 142 502 142 502 117 c 0,38,39
 502 42 502 42 445 11 c 128,-1,40
 388 -20 388 -20 271 -20 c 0,41,42
 209.875 -20 209.875 -20 128.9375 -2.5 c 128,-1,43
 48 15 48 15 15 25 c 1,44,-1
 9 148 l 1,0,-1
EndSplineSet
EndChar

StartChar: three
Encoding: 51 51 22
Width: 532
GlyphClass: 2
Flags: HMW
LayerCount: 2
Fore
SplineSet
341 361 m 1,0,1
 473 327 473 327 473 198 c 0,2,3
 473 104.649350649 473 104.649350649 394.5 44.5 c 0,4,5
 310.322033898 -20 310.322033898 -20 172 -20 c 0,6,7
 90 -20 90 -20 41 11.5 c 128,-1,8
 -8 43 -8 43 -8 95 c 128,-1,9
 -8 146.882352941 -8 146.882352941 31 179 c 1,10,11
 51 142 51 142 86.5 125 c 128,-1,12
 122 108 122 108 167.5 108 c 128,-1,13
 213 108 213 108 242 132 c 128,-1,14
 271 156 271 156 271 203 c 0,15,16
 271 292 271 292 149 292 c 1,17,-1
 166 382 l 1,18,19
 312 406 312 406 312 478 c 0,20,21
 312 507 312 507 292 523 c 128,-1,22
 272 539 272 539 234 539 c 0,23,24
 167 539 167 539 108 477 c 1,25,26
 89 482 89 482 81 495.5 c 128,-1,27
 73 509 73 509 73 537 c 128,-1,28
 73 565 73 565 93 591.5 c 128,-1,29
 113 618 113 618 147.5 637.5 c 0,30,31
 222.692307692 680 222.692307692 680 324 680 c 0,32,33
 401.026315789 680 401.026315789 680 450.5 640 c 0,34,35
 501 599.170212766 501 599.170212766 501 538 c 0,36,37
 501 483.19047619 501 483.19047619 457 435 c 0,38,39
 413.259459459 387.093693694 413.259459459 387.093693694 341 361 c 1,0,1
EndSplineSet
EndChar

StartChar: four
Encoding: 52 52 23
Width: 561
GlyphClass: 2
Flags: HMW
LayerCount: 2
Fore
SplineSet
518 263 m 1,0,1
 529 242.375 529 242.375 529 201.1875 c 128,-1,2
 529 160 529 160 498.5 131.5 c 128,-1,3
 468 103 468 103 401 103 c 2,4,-1
 395 103 l 1,5,-1
 379 0 l 1,6,7
 351.727272727 -20 351.727272727 -20 304 -20 c 0,8,9
 241.857142857 -20 241.857142857 -20 221.5 18 c 0,10,11
 214 32 214 32 214 43.5 c 0,12,13
 214 58 214 58 216 74 c 2,14,-1
 223 112 l 1,15,-1
 -7 136 l 1,16,-1
 -7 262 l 1,17,-1
 367 681 l 1,18,-1
 367 680 l 1,19,-1
 368 681 l 1,20,-1
 507 666 l 1,21,22
 459.903020668 473.516693164 459.903020668 473.516693164 420 253 c 1,23,-1
 443 253 l 2,24,25
 500.5 253 500.5 253 518 263 c 1,0,1
100 260 m 1,26,-1
 251 255 l 1,27,28
 284 402 284 402 317 513 c 1,29,-1
 100 260 l 1,26,-1
EndSplineSet
EndChar

StartChar: five
Encoding: 53 53 24
Width: 519
GlyphClass: 2
Flags: HMW
LayerCount: 2
Fore
SplineSet
178 411 m 1,0,1
 235.5 416 235.5 416 271.75 416 c 128,-1,2
 308 416 308 416 346 403 c 128,-1,3
 384 390 384 390 412.5 367.5 c 0,4,5
 474 318.947368421 474 318.947368421 474 256.473684211 c 128,-1,6
 474 194 474 194 451.5 144 c 128,-1,7
 429 94 429 94 390 57.5 c 0,8,9
 307.191780822 -20 307.191780822 -20 181 -20 c 0,10,11
 90 -20 90 -20 42 9 c 128,-1,12
 -6 38 -6 38 -6 93.5 c 128,-1,13
 -6 149 -6 149 29 179 c 1,14,15
 71.2162162162 108 71.2162162162 108 160 108 c 0,16,17
 214 108 214 108 244 133 c 128,-1,18
 274 158 274 158 274 206 c 0,19,20
 274 302 274 302 135 302 c 0,21,22
 82 302 82 302 48 298 c 1,23,-1
 142 660 l 1,24,-1
 377 660 l 2,25,26
 456.294117647 660 456.294117647 660 481 695 c 1,27,28
 507 672 507 672 507 621 c 0,29,30
 507 572.777777778 507 572.777777778 469 539 c 0,31,32
 430.75 505 430.75 505 377 505 c 2,33,-1
 206 505 l 1,34,-1
 178 411 l 1,0,1
EndSplineSet
EndChar

StartChar: six
Encoding: 54 54 25
Width: 573
GlyphClass: 2
Flags: HMW
LayerCount: 2
Fore
SplineSet
513 514 m 1,0,1
 483.285714286 553 483.285714286 553 412 553 c 0,2,3
 319.210526316 553 319.210526316 553 267.5 487.5 c 0,4,5
 232.142857143 442.714285714 232.142857143 442.714285714 216 362 c 1,6,7
 242 405 242 405 276.5 427.5 c 128,-1,8
 311 450 311 450 359 450 c 128,-1,9
 407 450 407 450 437.5 433 c 128,-1,10
 468 416 468 416 487 388.5 c 0,11,12
 523 336.394736842 523 336.394736842 523 262.197368421 c 128,-1,13
 523 188 523 188 496.5 136 c 128,-1,14
 470 84 470 84 429 49 c 128,-1,15
 388 14 388 14 337.5 -3.5 c 128,-1,16
 287 -21 287 -21 239.5 -21 c 128,-1,17
 192 -21 192 -21 153 -5.5 c 128,-1,18
 114 10 114 10 85.5 41 c 0,19,20
 25 106.807017544 25 106.807017544 25 225 c 0,21,22
 25 304 25 304 52 385 c 128,-1,23
 79 466 79 466 128 532 c 128,-1,24
 177 598 177 598 244 640 c 128,-1,25
 311 682 311 682 387 682 c 128,-1,26
 463 682 463 682 506 658 c 128,-1,27
 549 634 549 634 549 590 c 0,28,29
 549 542 549 542 513 514 c 1,0,1
206 248 m 128,-1,31
 198 220 198 220 198 180.5 c 128,-1,32
 198 141 198 141 215.5 115.5 c 128,-1,33
 233 90 233 90 261 90 c 128,-1,34
 289 90 289 90 305.5 109.5 c 128,-1,35
 322 129 322 129 331 156 c 0,36,37
 347 204 347 204 347 248 c 128,-1,38
 347 292 347 292 331.5 317 c 128,-1,39
 316 342 316 342 295 342 c 128,-1,40
 274 342 274 342 257.5 330 c 128,-1,41
 241 318 241 318 227.5 297 c 128,-1,30
 214 276 214 276 206 248 c 128,-1,31
EndSplineSet
EndChar

StartChar: seven
Encoding: 55 55 26
Width: 502
GlyphClass: 2
Flags: HMW
LayerCount: 2
Fore
SplineSet
378 529 m 1,0,1
 287.222222222 491 287.222222222 491 208.111111111 491 c 128,-1,2
 129 491 129 491 88 518 c 128,-1,3
 47 545 47 545 47 592 c 0,4,5
 47 621 47 621 55.5 643 c 128,-1,6
 64 665 64 665 86 692 c 1,7,8
 96.1134751773 671.773049645 96.1134751773 671.773049645 231.5 662.5 c 0,9,10
 268 660 268 660 300 660 c 2,11,-1
 522 660 l 1,12,-1
 544 576 l 1,13,-1
 498 504 l 1,14,-1
 453 427 l 1,15,-1
 392 314 l 2,16,17
 341.793103448 219.379310345 341.793103448 219.379310345 327.396551724 176.189655172 c 128,-1,18
 313 133 313 133 309.5 116.5 c 0,19,20
 304 90.5714285714 304 90.5714285714 304 69.2857142857 c 128,-1,21
 304 48 304 48 315 37 c 1,22,23
 295.478386167 1.21037463977 295.478386167 1.21037463977 235.5 -15 c 0,24,25
 217 -20 217 -20 194 -20 c 128,-1,26
 171 -20 171 -20 151 -11 c 128,-1,27
 131 -2 131 -2 118.5 12.5 c 0,28,29
 93 42.08 93 42.08 93 76.54 c 128,-1,30
 93 111 93 111 103 135.5 c 128,-1,31
 113 160 113 160 127 183 c 1,32,-1
 378 529 l 1,0,1
EndSplineSet
EndChar

StartChar: eight
Encoding: 56 56 27
Width: 566
GlyphClass: 2
Flags: HMW
LayerCount: 2
Fore
SplineSet
2 139 m 0,0,1
 2 253.923076923 2 253.923076923 152 327 c 1,2,3
 86 381 86 381 86 451 c 0,4,5
 86 546.972972973 86 546.972972973 166 614 c 0,6,7
 244.774193548 680 244.774193548 680 363 680 c 0,8,9
 443.444444444 680 443.444444444 680 492 642 c 0,10,11
 541 603.652173913 541 603.652173913 541 547 c 0,12,13
 541 459.84 541 459.84 453 400 c 0,14,15
 428 383 428 383 401 371 c 1,16,17
 465.941176471 316.882352941 465.941176471 316.882352941 481.970588235 294.441176471 c 0,18,19
 509 256.6 509 256.6 509 211.8 c 128,-1,20
 509 167 509 167 486.5 123 c 128,-1,21
 464 79 464 79 424.5 47.5 c 0,22,23
 339.857142857 -20 339.857142857 -20 217 -20 c 0,24,25
 118.666666667 -20 118.666666667 -20 60 24 c 0,26,27
 2 67.5 2 67.5 2 139 c 0,0,1
212 272 m 1,28,29
 161 233.310344828 161 233.310344828 161 167 c 0,30,31
 161 132 161 132 177.5 108 c 128,-1,32
 194 84 194 84 225 84 c 128,-1,33
 256 84 256 84 279.5 107 c 128,-1,34
 303 130 303 130 303 165 c 0,35,36
 303 195.818181818 303 195.818181818 282 213 c 2,37,-1
 212 272 l 1,28,29
339 420 m 1,38,39
 394 445.666666667 394 445.666666667 394 507 c 0,40,41
 394 539 394 539 377 560 c 128,-1,42
 360 581 360 581 329 581 c 128,-1,43
 298 581 298 581 277.5 563 c 128,-1,44
 257 545 257 545 257 522.5 c 0,45,46
 257 482.818181818 257 482.818181818 280 464 c 1,47,-1
 339 420 l 1,38,39
EndSplineSet
EndChar

StartChar: nine
Encoding: 57 57 28
Width: 572
GlyphClass: 2
Flags: HMW
LayerCount: 2
Fore
SplineSet
60 148 m 1,0,1
 89.7142857143 109 89.7142857143 109 161 109 c 0,2,3
 253.789473684 109 253.789473684 109 305.5 174.5 c 0,4,5
 340.857142857 219.285714286 340.857142857 219.285714286 357 300 c 1,6,7
 331 257 331 257 296.5 234.5 c 128,-1,8
 262 212 262 212 214 212 c 128,-1,9
 166 212 166 212 135.5 229 c 128,-1,10
 105 246 105 246 86 273.5 c 0,11,12
 50 325.605263158 50 325.605263158 50 399.802631579 c 128,-1,13
 50 474 50 474 76 526 c 128,-1,14
 102 578 102 578 143.5 613 c 0,15,16
 226.5 683 226.5 683 335 683 c 0,17,18
 430.5 683 430.5 683 487.5 621 c 0,19,20
 548 555.192982456 548 555.192982456 548 437 c 0,21,22
 548 358 548 358 521 277 c 128,-1,23
 494 196 494 196 445 130 c 128,-1,24
 396 64 396 64 329 22 c 128,-1,25
 262 -20 262 -20 186 -20 c 128,-1,26
 110 -20 110 -20 67 4 c 128,-1,27
 24 28 24 28 24 72 c 0,28,29
 24 120 24 120 60 148 c 1,0,1
229.5 451.5 m 128,-1,31
 226 424 226 424 226 397 c 128,-1,32
 226 370 226 370 241.5 345 c 128,-1,33
 257 320 257 320 278 320 c 128,-1,34
 299 320 299 320 315.5 332 c 128,-1,35
 332 344 332 344 345.5 365 c 0,36,37
 375 410.888888889 375 410.888888889 375 465.944444444 c 128,-1,38
 375 521 375 521 357.5 546.5 c 128,-1,39
 340 572 340 572 312 572 c 128,-1,40
 284 572 284 572 267.5 552.5 c 128,-1,41
 251 533 251 533 242 506 c 128,-1,30
 233 479 233 479 229.5 451.5 c 128,-1,31
EndSplineSet
EndChar

StartChar: colon
Encoding: 58 58 29
Width: 300
GlyphClass: 2
Flags: HMW
LayerCount: 2
Fore
SplineSet
-1 59 m 256,0,1
 -1 97 -1 97 28.5 118 c 128,-1,2
 58 139 58 139 100 139 c 256,3,4
 142 139 142 139 167.5 118 c 128,-1,5
 193 97 193 97 193 59 c 256,6,7
 193 21 193 21 164.5 0.5 c 128,-1,8
 136 -20 136 -20 94 -20 c 256,9,10
 52 -20 52 -20 25.5 0.5 c 128,-1,11
 -1 21 -1 21 -1 59 c 256,0,1
81 450 m 256,12,13
 81 488 81 488 110.5 509 c 128,-1,14
 140 530 140 530 182 530 c 256,15,16
 224 530 224 530 249.5 509 c 128,-1,17
 275 488 275 488 275 450 c 256,18,19
 275 412 275 412 246.5 391.5 c 128,-1,20
 218 371 218 371 176 371 c 256,21,22
 134 371 134 371 107.5 391.5 c 128,-1,23
 81 412 81 412 81 450 c 256,12,13
EndSplineSet
EndChar

StartChar: semicolon
Encoding: 59 59 30
Width: 293
GlyphClass: 2
Flags: HMW
LayerCount: 2
Fore
SplineSet
-52 -129 m 1,0,1
 25 -45.84 25 -45.84 25 58 c 0,2,3
 25 90 25 90 14 120 c 1,4,5
 26 128 26 128 50 133.5 c 128,-1,6
 74 139 74 139 92 139 c 0,7,8
 136 139 136 139 162 115.5 c 128,-1,9
 188 92 188 92 188 51 c 128,-1,10
 188 10 188 10 172 -23 c 128,-1,11
 156 -56 156 -56 129 -81 c 0,12,13
 70.68 -135 70.68 -135 -9 -135 c 0,14,15
 -25 -135 -25 -135 -52 -129 c 1,0,1
73 450 m 256,16,17
 73 488 73 488 102.5 509 c 128,-1,18
 132 530 132 530 174 530 c 256,19,20
 216 530 216 530 241.5 509 c 128,-1,21
 267 488 267 488 267 450 c 256,22,23
 267 412 267 412 238.5 391.5 c 128,-1,24
 210 371 210 371 168 371 c 256,25,26
 126 371 126 371 99.5 391.5 c 128,-1,27
 73 412 73 412 73 450 c 256,16,17
EndSplineSet
EndChar

StartChar: less
Encoding: 60 60 31
Width: 343
GlyphClass: 2
Flags: HMW
LayerCount: 2
Fore
SplineSet
10 230 m 1,0,-1
 208 434 l 2,1,2
 240 466 240 466 280 466 c 0,3,4
 295 466 295 466 309.5 457 c 128,-1,5
 324 448 324 448 330 431 c 1,6,-1
 293 395 l 1,7,-1
 146 243 l 1,8,-1
 239 118 l 2,9,10
 251 103 251 103 251 86.5 c 128,-1,11
 251 70 251 70 246 56.5 c 128,-1,12
 241 43 241 43 230.5 31.5 c 0,13,14
 208.090909091 6.95670995671 208.090909091 6.95670995671 167 5 c 1,15,-1
 10 230 l 1,0,-1
EndSplineSet
EndChar

StartChar: equal
Encoding: 61 61 32
Width: 553
GlyphClass: 2
Flags: HMW
LayerCount: 2
Fore
SplineSet
46 116 m 0,0,1
 46 148 46 148 66.5 168.5 c 128,-1,2
 87 189 87 189 119 189 c 2,3,-1
 467 189 l 1,4,5
 472 172 472 172 472 159 c 0,6,7
 472 129 472 129 452 108.5 c 128,-1,8
 432 88 432 88 390 88 c 2,9,-1
 50 88 l 1,10,11
 46 101 46 101 46 116 c 0,0,1
46 292 m 0,12,13
 46 324 46 324 66.5 344 c 128,-1,14
 87 364 87 364 119 364 c 2,15,-1
 467 364 l 1,16,17
 472 347 472 347 472 334 c 0,18,19
 472 304 472 304 452 284 c 128,-1,20
 432 264 432 264 390 264 c 2,21,-1
 50 264 l 1,22,23
 46 277 46 277 46 292 c 0,12,13
EndSplineSet
EndChar

StartChar: greater
Encoding: 62 62 33
Width: 342
GlyphClass: 2
Flags: HMW
LayerCount: 2
Fore
SplineSet
-20 41 m 1,0,-1
 46 106 l 1,1,-1
 164 229 l 1,2,-1
 98 318 l 2,3,4
 83 337 83 337 71 353 c 128,-1,5
 59 369 59 369 59 385 c 128,-1,6
 59 401 59 401 64 415 c 128,-1,7
 69 429 69 429 79.5 440 c 0,8,9
 103.476190476 465.117913832 103.476190476 465.117913832 143 467 c 1,10,-1
 300 242 l 1,11,-1
 102 38 l 2,12,13
 70 6 70 6 30 6 c 0,14,15
 15 6 15 6 0.5 15 c 128,-1,16
 -14 24 -14 24 -20 41 c 1,0,-1
EndSplineSet
EndChar

StartChar: question
Encoding: 63 63 34
Width: 524
GlyphClass: 2
Flags: HMW
LayerCount: 2
Fore
SplineSet
42 59 m 256,0,1
 42 97 42 97 71.5 118 c 128,-1,2
 101 139 101 139 143 139 c 256,3,4
 185 139 185 139 210.5 118 c 128,-1,5
 236 97 236 97 236 59 c 256,6,7
 236 21 236 21 207.5 0.5 c 128,-1,8
 179 -20 179 -20 137 -20 c 256,9,10
 95 -20 95 -20 68.5 0.5 c 128,-1,11
 42 21 42 21 42 59 c 256,0,1
244 479 m 1,12,13
 222 473 222 473 178 473 c 128,-1,14
 134 473 134 473 102 491 c 128,-1,15
 70 509 70 509 70 540.5 c 128,-1,16
 70 572 70 572 85.5 597 c 128,-1,17
 101 622 101 622 133.5 640.5 c 0,18,19
 202.891891892 680 202.891891892 680 321.945945946 680 c 128,-1,20
 441 680 441 680 488 647 c 128,-1,21
 535 614 535 614 535 558 c 0,22,23
 535 473.274509804 535 473.274509804 450.5 407 c 0,24,25
 425 387 425 387 394 367 c 2,26,-1
 203 243 l 2,27,28
 164 217 164 217 164 179 c 1,29,30
 135 179 135 179 116 204 c 128,-1,31
 97 229 97 229 97 264 c 0,32,33
 97 344 97 344 173 391 c 2,34,-1
 286 461 l 1,35,36
 333.294117647 488.588235294 333.294117647 488.588235294 358 538 c 0,37,38
 366 554 366 554 366 574 c 0,39,40
 366 620 366 620 320 620 c 0,41,42
 283.538461538 620 283.538461538 620 259 591 c 0,43,44
 237.178378378 565.210810811 237.178378378 565.210810811 236.089189189 531.105405405 c 128,-1,45
 235 497 235 497 244 479 c 1,12,13
EndSplineSet
EndChar

StartChar: at
Encoding: 64 64 35
Width: 796
GlyphClass: 2
Flags: HMW
LayerCount: 2
Fore
SplineSet
533 159 m 2,0,1
 533 121 533 121 559 121 c 0,2,3
 599.384615385 121 599.384615385 121 629.5 179 c 0,4,5
 659 235.814814815 659 235.814814815 659 304 c 0,6,7
 659 421 659 421 603 475.5 c 128,-1,8
 547 530 547 530 430 530 c 0,9,10
 370 530 370 530 315 504 c 128,-1,11
 260 478 260 478 218 431.5 c 128,-1,12
 176 385 176 385 151 321 c 128,-1,13
 126 257 126 257 126 182 c 0,14,15
 126 73 126 73 190 26.5 c 128,-1,16
 254 -20 254 -20 375 -20 c 0,17,18
 424 -20 424 -20 470 -4.5 c 128,-1,19
 516 11 516 11 541 29 c 1,20,21
 546 26 546 26 550.5 16.5 c 128,-1,22
 555 7 555 7 555 0 c 0,23,24
 555 -38 555 -38 517.5 -59 c 0,25,26
 447.857142857 -98 447.857142857 -98 359.928571429 -98 c 128,-1,27
 272 -98 272 -98 210.5 -82 c 128,-1,28
 149 -66 149 -66 105.5 -34 c 0,29,30
 15 32.5747126437 15 32.5747126437 15 154 c 0,31,32
 15 248 15 248 52 329.5 c 128,-1,33
 89 411 89 411 151 471.5 c 128,-1,34
 213 532 213 532 293.5 566.5 c 128,-1,35
 374 601 374 601 450 601 c 128,-1,36
 526 601 526 601 581 583.5 c 128,-1,37
 636 566 636 566 676.5 532.5 c 0,38,39
 763 460.950617284 763 460.950617284 763 333 c 0,40,41
 763 215.24137931 763 215.24137931 699 138 c 0,42,43
 639.342857143 66 639.342857143 66 549 66 c 0,44,45
 504 66 504 66 480 81 c 128,-1,46
 456 96 456 96 449 135 c 1,47,48
 433 95 433 95 404.5 80.5 c 128,-1,49
 376 66 376 66 336 66 c 0,50,51
 208 66 208 66 208 217 c 0,52,53
 208 311.981132075 208 311.981132075 263.5 379 c 0,54,55
 320.640625 448 320.640625 448 407 448 c 0,56,57
 440.428571429 448 440.428571429 448 472 435 c 1,58,-1
 580 448 l 1,59,-1
 534 178 l 2,60,61
 533 173 533 173 533 168 c 2,62,-1
 533 159 l 2,0,1
449 401 m 1,63,64
 436.5 411 436.5 411 418.75 411 c 128,-1,65
 401 411 401 411 384.5 391 c 128,-1,66
 368 371 368 371 356 336.5 c 0,67,68
 330 261.75 330 261.75 330 158 c 0,69,70
 330 139 330 139 338 129 c 128,-1,71
 346 119 346 119 354 119 c 0,72,73
 374 119 374 119 389 139 c 128,-1,74
 404 159 404 159 410 191 c 2,75,-1
 449 401 l 1,63,64
EndSplineSet
EndChar

StartChar: A
Encoding: 65 65 36
Width: 607
GlyphClass: 2
Flags: HMW
LayerCount: 2
Fore
SplineSet
456 -20 m 0,0,1
 328.133333333 -20 328.133333333 -20 316 162 c 1,2,-1
 144 162 l 1,3,4
 124 116 124 116 110 76 c 2,5,-1
 84 0 l 1,6,-1
 -56 0 l 1,7,-1
 259 660 l 1,8,-1
 474 660 l 1,9,-1
 516 174 l 1,10,11
 526.257270694 69.3758389262 526.257270694 69.3758389262 566 38 c 1,12,13
 537 -20 537 -20 456 -20 c 0,0,1
175 235 m 1,14,-1
 313 235 l 1,15,-1
 301 492 l 1,16,-1
 301 519 l 1,17,-1
 230 362 l 1,18,-1
 175 235 l 1,14,-1
EndSplineSet
EndChar

StartChar: B
Encoding: 66 66 37
Width: 637
GlyphClass: 2
Flags: HMW
LayerCount: 2
Fore
SplineSet
7 5 m 1,0,-1
 133 660 l 1,1,2
 251 670 251 670 327 670 c 128,-1,3
 403 670 403 670 452 663.5 c 128,-1,4
 501 657 501 657 534 640.5 c 0,5,6
 600 607.5 600 607.5 600 520 c 0,7,8
 600 469.358974359 600 469.358974359 555.5 426 c 0,9,10
 515.042056075 386.579439252 515.042056075 386.579439252 470 378 c 1,11,12
 518.426448737 369.578008915 518.426448737 369.578008915 551.5 334.5 c 0,13,14
 588 295.787878788 588 295.787878788 588 237 c 0,15,16
 588 123 588 123 503 56.5 c 128,-1,17
 418 -10 418 -10 251 -10 c 0,18,19
 135.571428571 -10 135.571428571 -10 7 5 c 1,0,-1
229 63 m 1,20,21
 238 62 238 62 240 62 c 2,22,-1
 249 62 l 2,23,24
 331.020408163 62 331.020408163 62 365.5 116.5 c 0,25,26
 392 158.387096774 392 158.387096774 392 235 c 0,27,28
 392 276 392 276 365.5 298 c 128,-1,29
 339 320 339 320 279 322 c 1,30,-1
 229 63 l 1,20,21
431 519 m 0,31,32
 431 602 431 602 351 602 c 2,33,-1
 342 602 l 2,34,35
 338 602 338 602 332 601 c 1,36,-1
 292 390 l 1,37,-1
 302 390 l 1,38,39
 431 393.486486486 431 393.486486486 431 519 c 0,31,32
EndSplineSet
EndChar

StartChar: C
Encoding: 67 67 38
Width: 631
GlyphClass: 2
Flags: HMW
LayerCount: 2
Fore
SplineSet
539 207 m 1,0,1
 565 187.933333333 565 187.933333333 565 147.466666667 c 128,-1,2
 565 107 565 107 547.5 78.5 c 128,-1,3
 530 50 530 50 496 28 c 0,4,5
 423.363636364 -19 423.363636364 -19 295.681818182 -19 c 128,-1,6
 168 -19 168 -19 98.5 47.5 c 128,-1,7
 29 114 29 114 29 232 c 0,8,9
 29 399.111111111 29 399.111111111 116.5 525.5 c 0,10,11
 181.759244043 619.763352506 181.759244043 619.763352506 300 659.5 c 0,12,13
 361 680 361 680 421 680 c 128,-1,14
 481 680 481 680 518 672 c 128,-1,15
 555 664 555 664 583 648 c 0,16,17
 644 613.142857143 644 613.142857143 644 557 c 0,18,19
 644 505.853658537 644 505.853658537 595.5 468 c 0,20,21
 551.9375 434 551.9375 434 515.96875 434 c 128,-1,22
 480 434 480 434 465 439 c 1,23,24
 469 475 469 475 469 498.5 c 128,-1,25
 469 522 469 522 468 539 c 128,-1,26
 467 556 467 556 462.5 571.5 c 0,27,28
 451.612903226 609 451.612903226 609 421.306451613 609 c 128,-1,29
 391 609 391 609 360.5 580.5 c 128,-1,30
 330 552 330 552 304 504 c 0,31,32
 245 395.076923077 245 395.076923077 245 266 c 0,33,34
 245 204 245 204 280 168.5 c 128,-1,35
 315 133 315 133 390 133 c 0,36,37
 446.142857143 133 446.142857143 133 499 170 c 0,38,39
 522 186 522 186 539 207 c 1,0,1
EndSplineSet
EndChar

StartChar: D
Encoding: 68 68 39
Width: 700
GlyphClass: 2
Flags: HMW
LayerCount: 2
Fore
SplineSet
666 415 m 0,0,1
 666 -11 666 -11 204 -11 c 0,2,3
 130.4 -11 130.4 -11 8 7 c 1,4,-1
 120 598 l 2,5,6
 128 638 128 638 133 661 c 1,7,8
 284.8 672 284.8 672 352.4 672 c 128,-1,9
 420 672 420 672 482 658 c 128,-1,10
 544 644 544 644 585 613 c 0,11,12
 666 551.756097561 666 551.756097561 666 415 c 0,0,1
460 452 m 0,13,14
 460 601 460 601 353 601 c 2,15,-1
 343 601 l 2,16,17
 338 601 338 601 333 600 c 1,18,-1
 230 63 l 1,19,20
 234 61 234 61 238 61 c 2,21,-1
 246 61 l 2,22,23
 283 61 283 61 321.5 84 c 128,-1,24
 360 107 360 107 390.5 154.5 c 0,25,26
 460 262.737704918 460 262.737704918 460 452 c 0,13,14
EndSplineSet
EndChar

StartChar: E
Encoding: 69 69 40
Width: 538
GlyphClass: 2
Flags: HMW
LayerCount: 2
Fore
SplineSet
444 154 m 1,0,1
 463 130.25 463 130.25 463 91 c 0,2,3
 463 37 463 37 423 8.5 c 128,-1,4
 383 -20 383 -20 320 -20 c 0,5,6
 284.444444444 -20 284.444444444 -20 228.722222222 -11.5 c 0,7,8
 120.555555556 5 120.555555556 5 87.7777777778 5 c 128,-1,9
 55 5 55 5 42 3.5 c 128,-1,10
 29 2 29 2 8 0 c 1,11,-1
 131 660 l 1,12,-1
 562 660 l 1,13,14
 562 599 562 599 532.5 567 c 128,-1,15
 503 535 503 535 445.2 535 c 128,-1,16
 387.4 535 387.4 535 328 562 c 1,17,-1
 297 387 l 1,18,-1
 475 387 l 1,19,20
 475 334 475 334 449 304.5 c 128,-1,21
 423 275 423 275 379.5 275 c 128,-1,22
 336 275 336 275 309 285 c 128,-1,23
 282 295 282 295 279 298 c 1,24,-1
 243 109 l 1,25,26
 267 106 267 106 311.5 106 c 0,27,28
 388.8 106 388.8 106 444 154 c 1,0,1
EndSplineSet
EndChar

StartChar: F
Encoding: 70 70 41
Width: 537
GlyphClass: 2
Flags: HMW
LayerCount: 2
Fore
SplineSet
472 530 m 0,0,1
 391.4 530 391.4 530 332 557 c 1,2,-1
 300 395 l 1,3,-1
 493 395 l 1,4,5
 493 342 493 342 466.5 308.5 c 128,-1,6
 440 275 440 275 392 275 c 0,7,8
 339.5 275 339.5 275 292 294 c 0,9,10
 282 298 282 298 281 299 c 1,11,-1
 224 0 l 1,12,-1
 6 0 l 1,13,-1
 133 660 l 1,14,-1
 579 660 l 1,15,16
 579 599 579 599 550.5 564.5 c 128,-1,17
 522 530 522 530 472 530 c 0,0,1
EndSplineSet
EndChar

StartChar: G
Encoding: 71 71 42
Width: 656
GlyphClass: 2
Flags: HMW
LayerCount: 2
Fore
SplineSet
624 340 m 1,0,1
 552 182 552 182 552 -1 c 1,2,3
 525 -20 525 -20 485.5 -20 c 128,-1,4
 446 -20 446 -20 421 -1.5 c 128,-1,5
 396 17 396 17 391 36 c 1,6,7
 366 10 366 10 325.5 -5 c 128,-1,8
 285 -20 285 -20 242 -20 c 128,-1,9
 199 -20 199 -20 161.5 -6 c 128,-1,10
 124 8 124 8 95 39 c 0,11,12
 31 107.413793103 31 107.413793103 31 236 c 0,13,14
 31 436.314285714 31 436.314285714 137.5 556 c 0,15,16
 247.838983051 680 247.838983051 680 443 680 c 0,17,18
 577.622222222 680 577.622222222 680 625.5 610.5 c 0,19,20
 641 588 641 588 641 561.5 c 128,-1,21
 641 535 641 535 629.5 512.5 c 128,-1,22
 618 490 618 490 599.5 472.5 c 0,23,24
 556.685714286 432 556.685714286 432 504 432 c 0,25,26
 483 432 483 432 463 439 c 1,27,28
 467 469 467 469 467 504 c 128,-1,29
 467 539 467 539 464.5 555 c 128,-1,30
 462 571 462 571 456 583.5 c 0,31,32
 442.8 611 442.8 611 414.4 611 c 128,-1,33
 386 611 386 611 354.5 580.5 c 128,-1,34
 323 550 323 550 298 499.5 c 0,35,36
 243 388.4 243 388.4 243 253 c 0,37,38
 243 191 243 191 267 147 c 0,39,40
 293.181818182 99 293.181818182 99 339 99 c 0,41,42
 355 99 355 99 369.5 107 c 128,-1,43
 384 115 384 115 390 121 c 1,44,-1
 422 322 l 1,45,-1
 624 340 l 1,0,1
EndSplineSet
EndChar

StartChar: H
Encoding: 72 72 43
Width: 707
GlyphClass: 2
Flags: HMW
LayerCount: 2
Fore
SplineSet
390 75 m 0,0,1
 390 145 390 145 418 285 c 1,2,-1
 270 285 l 1,3,-1
 215 0 l 1,4,-1
 6 0 l 1,5,-1
 133 660 l 1,6,-1
 344 660 l 1,7,-1
 286 365 l 1,8,-1
 434 365 l 1,9,-1
 489 660 l 1,10,-1
 700 660 l 1,11,12
 686 586 686 586 668 503 c 2,13,-1
 634 340 l 1,14,15
 596 150 596 150 596 67 c 0,16,17
 596 33 596 33 607 14 c 1,18,19
 557.133333333 -20 557.133333333 -20 498.566666667 -20 c 128,-1,20
 440 -20 440 -20 415 8 c 128,-1,21
 390 36 390 36 390 75 c 0,0,1
EndSplineSet
EndChar

StartChar: I
Encoding: 73 73 44
Width: 358
GlyphClass: 2
Flags: HMW
LayerCount: 2
Fore
SplineSet
6 0 m 1,0,-1
 133 660 l 1,1,-1
 353 660 l 1,2,-1
 224 0 l 1,3,-1
 6 0 l 1,0,-1
EndSplineSet
EndChar

StartChar: J
Encoding: 74 74 45
Width: 356
GlyphClass: 2
Flags: HMW
LayerCount: 2
Fore
SplineSet
-109 -138 m 1,0,1
 -58.2298213185 -131.907578558 -58.2298213185 -131.907578558 -26 -66.5 c 0,2,3
 7.46382189239 1.41187384045 7.46382189239 1.41187384045 37 155 c 2,4,-1
 134 660 l 1,5,-1
 351 660 l 1,6,-1
 254 155 l 2,7,8
 217.074660633 -41.2873303167 217.074660633 -41.2873303167 155.5 -118.5 c 0,9,10
 124 -158 124 -158 83.5 -174 c 128,-1,11
 43 -190 43 -190 -1 -190 c 128,-1,12
 -45 -190 -45 -190 -73.5 -174 c 128,-1,13
 -102 -158 -102 -158 -109 -138 c 1,0,1
EndSplineSet
EndChar

StartChar: K
Encoding: 75 75 46
Width: 695
GlyphClass: 2
Flags: HMW
LayerCount: 2
Fore
SplineSet
8 0 m 1,0,-1
 122 608 l 1,1,-1
 133 660 l 1,2,-1
 347 660 l 1,3,-1
 221 0 l 1,4,-1
 8 0 l 1,0,-1
627 59 m 1,5,6
 599.973684211 -20 599.973684211 -20 496 -20 c 0,7,8
 418.818181818 -20 418.818181818 -20 365.5 72 c 0,9,10
 311.976366322 164.35450517 311.976366322 164.35450517 302 314 c 1,11,12
 412.440550688 515.159574468 412.440550688 515.159574468 488 597.5 c 0,13,14
 560.952941176 677 560.952941176 677 637 677 c 0,15,16
 678 677 678 677 707.5 655 c 128,-1,17
 737 633 737 633 744 598 c 1,18,19
 710.046511628 584.418604651 710.046511628 584.418604651 694.023255814 572.709302326 c 0,20,21
 653.925925926 543.407407407 653.925925926 543.407407407 600 476 c 1,22,-1
 509 367 l 2,23,24
 487 341 487 341 478 329 c 1,25,26
 493.342465753 244.616438356 493.342465753 244.616438356 538 162 c 0,27,28
 580.585924714 83.2160392799 580.585924714 83.2160392799 627 59 c 1,5,6
EndSplineSet
EndChar

StartChar: L
Encoding: 76 76 47
Width: 504
GlyphClass: 2
Flags: HMW
LayerCount: 2
Fore
SplineSet
435 154 m 1,0,1
 454 130.25 454 130.25 454 83.625 c 128,-1,2
 454 37 454 37 418.5 8.5 c 128,-1,3
 383 -20 383 -20 321 -20 c 0,4,5
 285.333333333 -20 285.333333333 -20 228.666666667 -11.5 c 0,6,7
 118.666666667 5 118.666666667 5 87.3333333333 5 c 128,-1,8
 56 5 56 5 43 3.5 c 128,-1,9
 30 2 30 2 9 0 c 1,10,-1
 130 660 l 1,11,-1
 349 660 l 1,12,-1
 249 110 l 1,13,14
 262 108 262 108 274 108 c 2,15,-1
 299 108 l 2,16,17
 383 108 383 108 435 154 c 1,0,1
EndSplineSet
EndChar

StartChar: M
Encoding: 77 77 48
Width: 880
GlyphClass: 2
Flags: HMW
LayerCount: 2
Fore
SplineSet
-13 0 m 1,0,-1
 168 660 l 1,1,-1
 377 660 l 1,2,-1
 423 283 l 1,3,-1
 609 660 l 1,4,-1
 784 660 l 1,5,-1
 802 166 l 2,6,7
 806.365714286 67.7714285714 806.365714286 67.7714285714 854 38 c 1,8,9
 843 18 843 18 811 -1 c 128,-1,10
 779 -20 779 -20 736.5 -20 c 128,-1,11
 694 -20 694 -20 669 -8 c 128,-1,12
 644 4 644 4 630 24 c 0,13,14
 605 59.7142857143 605 59.7142857143 605 129 c 2,15,-1
 605 438 l 1,16,-1
 408 0 l 1,17,-1
 284 0 l 1,18,-1
 214 449 l 1,19,-1
 102 0 l 1,20,-1
 -13 0 l 1,0,-1
EndSplineSet
EndChar

StartChar: N
Encoding: 78 78 49
Width: 703
GlyphClass: 2
Flags: HMW
LayerCount: 2
Fore
SplineSet
10 0 m 1,0,-1
 130 660 l 1,1,-1
 345 660 l 1,2,-1
 501 206 l 1,3,-1
 584 660 l 1,4,-1
 695 659 l 1,5,-1
 573 0 l 1,6,-1
 344 0 l 1,7,-1
 200 437 l 1,8,-1
 120 0 l 1,9,-1
 10 0 l 1,0,-1
EndSplineSet
EndChar

StartChar: O
Encoding: 79 79 50
Width: 710
GlyphClass: 2
Flags: HMW
LayerCount: 2
Fore
SplineSet
32 244 m 0,0,1
 32 432.886597938 32 432.886597938 129.5 552.5 c 0,2,3
 234.243697479 681 234.243697479 681 415 681 c 0,4,5
 546 681 546 681 612 617.5 c 128,-1,6
 678 554 678 554 678 420 c 0,7,8
 678 215.56 678 215.56 574 97 c 0,9,10
 471.368421053 -20 471.368421053 -20 298 -20 c 0,11,12
 163 -20 163 -20 97.5 47.5 c 128,-1,13
 32 115 32 115 32 244 c 0,0,1
295 451 m 0,14,15
 250 271 250 271 250 129 c 0,16,17
 250 95 250 95 261.5 73 c 128,-1,18
 273 51 273 51 303.5 51 c 128,-1,19
 334 51 334 51 353 65.5 c 128,-1,20
 372 80 372 80 387 113 c 0,21,22
 411.363636364 166.6 411.363636364 166.6 433.681818182 281.3 c 128,-1,23
 456 396 456 396 458 443.5 c 128,-1,24
 460 491 460 491 460 527 c 128,-1,25
 460 563 460 563 449 586 c 128,-1,26
 438 609 438 609 408.5 609 c 128,-1,27
 379 609 379 609 359 591 c 0,28,29
 321.580645161 557.322580645 321.580645161 557.322580645 295 451 c 0,14,15
EndSplineSet
EndChar

StartChar: P
Encoding: 80 80 51
Width: 641
GlyphClass: 2
Flags: HMW
LayerCount: 2
Fore
SplineSet
408 667 m 0,0,1
 653 667 653 667 653 494 c 0,2,3
 653 399.344827586 653 399.344827586 592 341.5 c 0,4,5
 532.418181818 285 532.418181818 285 427 285 c 0,6,7
 378.181818182 285 378.181818182 285 340 313 c 0,8,9
 322 325 322 325 310 341 c 1,10,11
 383 341 383 341 421.5 385.5 c 128,-1,12
 460 430 460 430 460 517 c 128,-1,13
 460 604 460 604 374 604 c 2,14,-1
 350 604 l 2,15,16
 344 604 344 604 339 603 c 1,17,-1
 224 0 l 1,18,-1
 7 0 l 1,19,-1
 130 655 l 1,20,21
 237.162436548 665.370558376 237.162436548 665.370558376 299.081218274 666.185279188 c 128,-1,22
 361 667 361 667 408 667 c 0,0,1
EndSplineSet
EndChar

StartChar: Q
Encoding: 81 81 52
Width: 703
GlyphClass: 2
Flags: HMW
LayerCount: 2
Fore
SplineSet
135 60 m 1,0,1
 169.545454545 41 169.545454545 41 221.772727273 41 c 128,-1,2
 274 41 274 41 317.5 72.5 c 128,-1,3
 361 104 361 104 391.5 162 c 0,4,5
 456 284.655737705 456 284.655737705 456 483 c 0,6,7
 456 609 456 609 399 609 c 0,8,9
 369 609 369 609 340 576 c 128,-1,10
 311 543 311 543 288.5 489.5 c 0,11,12
 238 369.422222222 238 369.422222222 238 227 c 0,13,14
 238 198 238 198 252 180.5 c 128,-1,15
 266 163 266 163 291 163 c 1,16,17
 287 132 287 132 260 110 c 128,-1,18
 233 88 233 88 199 88 c 0,19,20
 118 88 118 88 76.5 138.5 c 128,-1,21
 35 189 35 189 35 280.5 c 128,-1,22
 35 372 35 372 63 444 c 128,-1,23
 91 516 91 516 140 568.5 c 128,-1,24
 189 621 189 621 256.5 651 c 128,-1,25
 324 681 324 681 404 681 c 0,26,27
 672 681 672 681 672 420 c 0,28,29
 672 232.218390805 672 232.218390805 582.5 117 c 0,30,31
 492.42229605 1.03789836348 492.42229605 1.03789836348 336 -13 c 1,32,33
 428 -33 428 -33 521 -33 c 0,34,35
 594.111111111 -33 594.111111111 -33 647.5 -2 c 0,36,37
 663 7 663 7 669 17 c 1,38,39
 699 -10 699 -10 699 -63.5 c 128,-1,40
 699 -117 699 -117 651.5 -148 c 128,-1,41
 604 -179 604 -179 511.5 -179 c 128,-1,42
 419 -179 419 -179 312 -136 c 128,-1,43
 205 -93 205 -93 113 -13 c 1,44,-1
 135 60 l 1,0,1
EndSplineSet
EndChar

StartChar: R
Encoding: 82 82 53
Width: 681
GlyphClass: 2
Flags: HMW
LayerCount: 2
Fore
SplineSet
8 0 m 1,0,-1
 130 657 l 1,1,2
 229 668 229 668 373.5 668 c 128,-1,3
 518 668 518 668 585 626 c 128,-1,4
 652 584 652 584 652 499.5 c 128,-1,5
 652 415 652 415 608.5 362 c 128,-1,6
 565 309 565 309 490 292 c 1,7,8
 507.388075314 208.923640167 507.388075314 208.923640167 545.5 142.5 c 0,9,10
 581.909774436 79.0429645542 581.909774436 79.0429645542 624 59 c 1,11,12
 609 17 609 17 578.5 -1.5 c 128,-1,13
 548 -20 548 -20 504.5 -20 c 128,-1,14
 461 -20 461 -20 427 5.5 c 128,-1,15
 393 31 393 31 366.5 78 c 0,16,17
 308.807626913 180.322322079 308.807626913 180.322322079 303 341 c 1,18,-1
 310 341 l 1,19,20
 384 343 384 343 421 381.5 c 128,-1,21
 458 420 458 420 458 501 c 0,22,23
 458 602 458 602 373 606 c 1,24,-1
 351 606 l 2,25,26
 342 606 342 606 337 605 c 1,27,-1
 222 0 l 1,28,-1
 8 0 l 1,0,-1
EndSplineSet
EndChar

StartChar: S
Encoding: 83 83 54
Width: 590
GlyphClass: 2
Flags: HMW
LayerCount: 2
Fore
SplineSet
407 462 m 1,0,1
 422 492 422 492 422 520 c 128,-1,2
 422 548 422 548 419 563.5 c 128,-1,3
 416 579 416 579 409 591 c 0,4,5
 393.833333333 617 393.833333333 617 364 617 c 0,6,7
 326.68 617 326.68 617 297 590.5 c 0,8,9
 265 561.928571429 265 561.928571429 265 518 c 0,10,11
 265 490 265 490 284.5 468.5 c 128,-1,12
 304 447 304 447 334 427 c 128,-1,13
 364 407 364 407 398 387 c 128,-1,14
 432 367 432 367 462 343 c 0,15,16
 531 287.8 531 287.8 531 214 c 0,17,18
 531 164 531 164 504.5 121.5 c 128,-1,19
 478 79 478 79 433.5 47.5 c 0,20,21
 338.142857143 -20 338.142857143 -20 211 -20 c 0,22,23
 108 -20 108 -20 55 13.5 c 128,-1,24
 2 47 2 47 2 98 c 0,25,26
 2 189.425 2 189.425 73 212.5 c 0,27,28
 93 219 93 219 123.5 219 c 128,-1,29
 154 219 154 219 189 206 c 1,30,31
 173 165 173 165 173 128 c 0,32,33
 173 48 173 48 230 48 c 0,34,35
 267.125 48 267.125 48 297.5 75 c 128,-1,36
 328 102.111111111 328 102.111111111 328 132.555555556 c 128,-1,37
 328 163 328 163 308.5 185 c 128,-1,38
 289 207 289 207 260 224.5 c 128,-1,39
 231 242 231 242 197.5 259 c 128,-1,40
 164 276 164 276 135 299.5 c 0,41,42
 67 354.603448276 67 354.603448276 67 443 c 0,43,44
 67 500 67 500 95 544.5 c 128,-1,45
 123 589 123 589 167.5 619 c 0,46,47
 257.983333333 680 257.983333333 680 368.491666667 680 c 128,-1,48
 479 680 479 680 532.5 647 c 128,-1,49
 586 614 586 614 586 558 c 0,50,51
 586 508.676470588 586 508.676470588 548 478.5 c 0,52,53
 514.62962963 452 514.62962963 452 474.814814815 452 c 128,-1,54
 435 452 435 452 407 462 c 1,0,1
EndSplineSet
EndChar

StartChar: T
Encoding: 84 84 55
Width: 518
GlyphClass: 2
Flags: HMW
LayerCount: 2
Fore
SplineSet
97 487 m 1,0,1
 63 513.444444444 63 513.444444444 63 568.722222222 c 128,-1,2
 63 624 63 624 99.5 653 c 128,-1,3
 136 682 136 682 199 682 c 0,4,5
 238.8 682 238.8 682 334 668 c 2,6,-1
 402 658 l 2,7,8
 436 654 436 654 471.3125 654 c 128,-1,9
 506.625 654 506.625 654 531 669 c 1,10,11
 567 637 567 637 567 591 c 128,-1,12
 567 544.947368421 567 544.947368421 526 511.5 c 0,13,14
 483.709677419 477 483.709677419 477 430 477 c 0,15,16
 404 477 404 477 362 484 c 1,17,18
 313 330 313 330 313 222.9 c 128,-1,19
 313 115.8 313 115.8 367 60 c 1,20,21
 342 15 342 15 305 -2.5 c 128,-1,22
 268 -20 268 -20 212.5 -20 c 128,-1,23
 157 -20 157 -20 122.5 10.5 c 128,-1,24
 88 41 88 41 88 104 c 0,25,26
 88 176.594594595 88 176.594594595 128.5 297 c 0,27,28
 168.394242804 415.604505632 168.394242804 415.604505632 228 507 c 1,29,30
 199 510 199 510 169 510 c 0,31,32
 107.454545455 510 107.454545455 510 97 487 c 1,0,1
EndSplineSet
EndChar

StartChar: U
Encoding: 85 85 56
Width: 669
GlyphClass: 2
Flags: HMW
LayerCount: 2
Fore
SplineSet
36 148 m 0,0,1
 36 187 36 187 46 237 c 2,2,-1
 127 660 l 1,3,-1
 348 660 l 1,4,-1
 268 234 l 2,5,6
 259 187 259 187 259 152.5 c 128,-1,7
 259 118 259 118 273.5 100 c 128,-1,8
 288 82 288 82 315 82 c 128,-1,9
 342 82 342 82 359 89 c 128,-1,10
 376 96 376 96 389.5 113 c 0,11,12
 416.633663366 147.168316832 416.633663366 147.168316832 434 234 c 2,13,-1
 515 660 l 1,14,-1
 666 660 l 1,15,-1
 586 235 l 2,16,17
 558.292257803 92.5030401297 558.292257803 92.5030401297 481 35.5 c 0,18,19
 405.745762712 -20 405.745762712 -20 258 -20 c 0,20,21
 146.909090909 -20 146.909090909 -20 88 28 c 0,22,23
 36 70.3703703704 36 70.3703703704 36 148 c 0,0,1
EndSplineSet
EndChar

StartChar: V
Encoding: 86 86 57
Width: 612
GlyphClass: 2
Flags: HMW
LayerCount: 2
Fore
SplineSet
42 620 m 1,0,1
 70.9655172414 680 70.9655172414 680 151.482758621 680 c 128,-1,2
 232 680 232 680 269.5 633.5 c 128,-1,3
 307 587 307 587 307 480 c 2,4,-1
 307 123 l 1,5,-1
 550 659 l 1,6,-1
 669 659 l 1,7,-1
 358 0 l 1,8,-1
 124 0 l 1,9,-1
 94 480 l 2,10,11
 91 533 91 533 76.5 569 c 128,-1,12
 62 605 62 605 42 620 c 1,0,1
EndSplineSet
EndChar

StartChar: W
Encoding: 87 87 58
Width: 990
GlyphClass: 2
Flags: HMW
LayerCount: 2
Fore
SplineSet
42 620 m 1,0,1
 56 648 56 648 86.5 663.5 c 128,-1,2
 117 679 117 679 159 679 c 0,3,4
 225 679 225 679 264.5 631.5 c 128,-1,5
 304 584 304 584 304 480 c 2,6,-1
 304 123 l 1,7,-1
 533 659 l 1,8,-1
 651 659 l 1,9,-1
 678 153 l 1,10,-1
 675 124 l 1,11,-1
 913 659 l 1,12,-1
 1050 659 l 1,13,-1
 730 0 l 1,14,-1
 517 0 l 1,15,-1
 497 304 l 1,16,-1
 365 0 l 1,17,-1
 124 0 l 1,18,-1
 94 480 l 2,19,20
 91 534 91 534 76.5 569.5 c 128,-1,21
 62 605 62 605 42 620 c 1,0,1
EndSplineSet
EndChar

StartChar: X
Encoding: 88 88 59
Width: 605
GlyphClass: 2
Flags: HMW
LayerCount: 2
Fore
SplineSet
48 623 m 1,0,1
 94.5384615385 678 94.5384615385 678 173 678 c 0,2,3
 235.192307692 678 235.192307692 678 267.5 654 c 0,4,5
 301.426783479 628.797246558 301.426783479 628.797246558 323 568 c 2,6,-1
 365 449 l 1,7,-1
 516 659 l 1,8,-1
 651 659 l 1,9,-1
 406 334 l 1,10,-1
 469 156 l 2,11,12
 483 116 483 116 507.5 86.5 c 128,-1,13
 532 57 532 57 554 52 c 1,14,15
 534 14 534 14 499.5 -3 c 128,-1,16
 465 -20 465 -20 414.5 -20 c 128,-1,17
 364 -20 364 -20 328.5 13 c 128,-1,18
 293 46 293 46 266 120 c 2,19,-1
 237 200 l 1,20,-1
 86 0 l 1,21,-1
 -37 0 l 1,22,-1
 193 319 l 1,23,-1
 121 520 l 2,24,25
 105 564 105 564 89 586.5 c 128,-1,26
 73 609 73 609 48 623 c 1,0,1
EndSplineSet
EndChar

StartChar: Y
Encoding: 89 89 60
Width: 596
GlyphClass: 2
Flags: HMW
LayerCount: 2
Fore
SplineSet
170 294 m 1,0,1
 140.96196868 565.021625652 140.96196868 565.021625652 39 623 c 1,2,3
 60 649 60 649 94 663.5 c 128,-1,4
 128 678 128 678 169 678 c 128,-1,5
 210 678 210 678 241 663.5 c 128,-1,6
 272 649 272 649 292 618 c 0,7,8
 330 559.1 330 559.1 330 418 c 2,9,-1
 330 346 l 1,10,11
 390.029163966 522.085547634 390.029163966 522.085547634 450 598.5 c 0,12,13
 510.82278481 676 510.82278481 676 587 676 c 0,14,15
 617 676 617 676 637 660.5 c 128,-1,16
 657 645 657 645 667 622 c 1,17,18
 589.777145181 588.338755592 589.777145181 588.338755592 515.5 490 c 0,19,20
 441.800227015 392.425652667 441.800227015 392.425652667 394 255 c 1,21,-1
 335 0 l 1,22,-1
 112 0 l 1,23,-1
 170 294 l 1,0,1
EndSplineSet
EndChar

StartChar: Z
Encoding: 90 90 61
Width: 577
GlyphClass: 2
Flags: HMW
LayerCount: 2
Fore
SplineSet
147 11 m 128,-1,1
 119 15 119 15 89.5 15 c 128,-1,2
 60 15 60 15 45 0 c 1,3,4
 22.0505050505 17.2121212121 22.0505050505 17.2121212121 9.5 71 c 0,5,6
 6 86 6 86 6 111 c 0,7,8
 6 165.393939394 6 165.393939394 68 218 c 1,9,-1
 380 474 l 1,10,11
 250.5 495 250.5 495 198.9 495 c 128,-1,12
 147.3 495 147.3 495 99 472 c 1,13,14
 72 516.357142857 72 516.357142857 72 567.178571429 c 128,-1,15
 72 618 72 618 109.5 644 c 128,-1,16
 147 670 147 670 210 670 c 0,17,18
 238 670 238 670 268 666 c 128,-1,19
 298 662 298 662 328 658 c 2,20,-1
 387 649 l 2,21,22
 416 645 416 645 453.5 645 c 128,-1,23
 491 645 491 645 533 655 c 1,24,25
 573 620.217391304 573 620.217391304 573 562 c 0,26,27
 573 492.4 573 492.4 525 454 c 2,28,-1
 185 182 l 1,29,30
 257.857142857 162 257.857142857 162 379 162 c 0,31,32
 439 162 439 162 477 192 c 1,33,34
 494 170 494 170 498.5 151.5 c 128,-1,35
 503 133 503 133 503 106.5 c 128,-1,36
 503 80 503 80 494 58.5 c 128,-1,37
 485 37 485 37 466.5 21 c 0,38,39
 428.34375 -12 428.34375 -12 344 -12 c 0,40,41
 282.090909091 -12 282.090909091 -12 228.545454545 -2.5 c 128,-1,0
 175 7 175 7 147 11 c 128,-1,1
EndSplineSet
EndChar

StartChar: bracketleft
Encoding: 91 91 62
Width: 337
GlyphClass: 2
Flags: HMW
LayerCount: 2
Fore
SplineSet
-39 -200 m 1,0,-1
 149 800 l 1,1,-1
 432 800 l 1,2,3
 420 734 420 734 336 734 c 2,4,-1
 286 734 l 1,5,-1
 124 -133 l 1,6,-1
 154 -133 l 2,7,8
 199 -133 199 -133 218.5 -145 c 128,-1,9
 238 -157 238 -157 238 -185 c 0,10,11
 238 -196 238 -196 237 -200 c 1,12,-1
 -39 -200 l 1,0,-1
EndSplineSet
EndChar

StartChar: backslash
Encoding: 92 92 63
Width: 314
GlyphClass: 2
Flags: HMW
LayerCount: 2
Fore
SplineSet
178.5 -178.5 m 128,-1,1
 158 -200 158 -200 107.5 -200 c 128,-1,2
 57 -200 57 -200 53 -196 c 1,3,-1
 99 684 l 1,4,5
 105.195402299 758.344827586 105.195402299 758.344827586 120.597701149 775.672413793 c 128,-1,6
 136 793 136 793 157 798 c 128,-1,7
 178 803 178 803 211 803 c 128,-1,8
 244 803 244 803 250 800 c 1,9,-1
 204 -105 l 1,10,0
 199 -157 199 -157 178.5 -178.5 c 128,-1,1
EndSplineSet
EndChar

StartChar: bracketright
Encoding: 93 93 64
Width: 335
GlyphClass: 2
Flags: HMW
LayerCount: 2
Fore
SplineSet
-103 -200 m 1,0,1
 -97 -166 -97 -166 -75 -150 c 128,-1,2
 -53 -134 -53 -134 -11 -134 c 2,3,-1
 39 -134 l 1,4,-1
 201 733 l 1,5,-1
 161 733 l 2,6,7
 118 733 118 733 101.5 745 c 128,-1,8
 85 757 85 757 85 787 c 0,9,10
 85 796 85 796 86 800 c 1,11,-1
 364 800 l 1,12,-1
 176 -200 l 1,13,-1
 -103 -200 l 1,0,1
EndSplineSet
EndChar

StartChar: asciicircum
Encoding: 94 94 65
Width: 510
GlyphClass: 2
Flags: HMW
LayerCount: 2
Fore
SplineSet
-58 320 m 1,0,1
 8 348 8 348 66.5 435.5 c 128,-1,2
 125 523 125 523 170 660 c 1,3,-1
 335 660 l 1,4,5
 337 533 337 533 369 441.5 c 128,-1,6
 401 350 401 350 458 313 c 1,7,8
 439.584158416 291.514851485 439.584158416 291.514851485 380 281 c 0,9,10
 363 278 363 278 339 278 c 128,-1,11
 315 278 315 278 293.5 290 c 128,-1,12
 272 302 272 302 256 331 c 0,13,14
 228.339267016 381.135078534 228.339267016 381.135078534 210 536 c 1,15,16
 161.550561798 396.707865169 161.550561798 396.707865169 115.5 337.5 c 0,17,18
 68.4444444444 277 68.4444444444 277 5 277 c 0,19,20
 -20 277 -20 277 -36.5 288.5 c 128,-1,21
 -53 300 -53 300 -58 320 c 1,0,1
EndSplineSet
EndChar

StartChar: underscore
Encoding: 95 95 66
Width: 686
GlyphClass: 2
Flags: HMW
LayerCount: 2
Fore
SplineSet
18 -113 m 0,0,1
 18 -80 18 -80 39 -59.5 c 128,-1,2
 60 -39 60 -39 92 -39 c 2,3,-1
 513 -39 l 1,4,5
 518 -56 518 -56 518 -69 c 0,6,7
 518 -99 518 -99 497.5 -120 c 128,-1,8
 477 -141 477 -141 435 -141 c 2,9,-1
 22 -141 l 1,10,11
 18 -128 18 -128 18 -113 c 0,0,1
EndSplineSet
EndChar

StartChar: grave
Encoding: 96 96 67
Width: 310
GlyphClass: 2
Flags: HMW
LayerCount: 2
Fore
SplineSet
-34 625 m 0,0,1
 -46 643 -46 643 -46 666 c 0,2,3
 -46 718.6 -46 718.6 -10 733 c 1,4,-1
 226 587 l 1,5,-1
 205 539 l 1,6,-1
 82 562 l 2,7,8
 -2.20689655172 577.310344828 -2.20689655172 577.310344828 -34 625 c 0,0,1
EndSplineSet
EndChar

StartChar: a
Encoding: 97 97 68
Width: 628
GlyphClass: 2
Flags: HMW
LayerCount: 2
Fore
SplineSet
26.5 97 m 128,-1,1
 16 138 16 138 16 205 c 128,-1,2
 16 272 16 272 39 333 c 128,-1,3
 62 394 62 394 103.5 438 c 0,4,5
 190.272727273 530 190.272727273 530 332 530 c 0,6,7
 383 530 383 530 420 513 c 1,8,-1
 591 530 l 1,9,-1
 517 140 l 2,10,11
 514 128 514 128 514 106 c 128,-1,12
 514 84 514 84 527.5 70 c 128,-1,13
 541 56 541 56 561 54 c 1,14,15
 551 20 551 20 514.5 0 c 128,-1,16
 478 -20 478 -20 437 -20 c 128,-1,17
 396 -20 396 -20 368.5 -4.5 c 128,-1,18
 341 11 341 11 333 37 c 1,19,20
 317 12 317 12 283 -4 c 128,-1,21
 249 -20 249 -20 203.5 -20 c 128,-1,22
 158 -20 158 -20 121 -8 c 128,-1,23
 84 4 84 4 60.5 30 c 128,-1,0
 37 56 37 56 26.5 97 c 128,-1,1
250 387.5 m 128,-1,25
 240 357 240 357 223.5 275.423076923 c 128,-1,26
 207 193.846153846 207 193.846153846 207 135.923076923 c 128,-1,27
 207 78 207 78 216 61 c 128,-1,28
 225 44 225 44 241 44 c 0,29,30
 273 44 273 44 296.5 74.5 c 128,-1,31
 320 105 320 105 329 159 c 2,32,-1
 382 452 l 1,33,34
 361 470 361 470 336.5 470 c 128,-1,35
 312 470 312 470 297.5 462 c 128,-1,36
 283 454 283 454 271.5 436 c 128,-1,24
 260 418 260 418 250 387.5 c 128,-1,25
EndSplineSet
EndChar

StartChar: b
Encoding: 98 98 69
Width: 614
GlyphClass: 2
Flags: HMW
LayerCount: 2
Fore
SplineSet
4 48 m 1,0,-1
 128 700 l 1,1,-1
 331 720 l 1,2,-1
 300 567 l 1,3,4
 289 520.25 289 520.25 275 487 c 1,5,6
 297.431372549 514.607843137 297.431372549 514.607843137 345 526.5 c 0,7,8
 359 530 359 530 376 530 c 0,9,10
 469 530 469 530 520 473.5 c 128,-1,11
 571 417 571 417 571 308 c 0,12,13
 571 166.444444444 571 166.444444444 490.5 77 c 0,14,15
 403.2 -20 403.2 -20 245 -20 c 0,16,17
 136.192307692 -20 136.192307692 -20 54.5 16 c 0,18,19
 25 29 25 29 4 48 c 1,0,-1
205 57 m 1,20,21
 226 39 226 39 252 39 c 128,-1,22
 278 39 278 39 293 49 c 128,-1,23
 308 59 308 59 319 79 c 0,24,25
 348.779084967 133.14379085 348.779084967 133.14379085 373 297.5 c 0,26,27
 380 345 380 345 380 392 c 128,-1,28
 380 439 380 439 369.5 454 c 128,-1,29
 359 469 359 469 339 469 c 0,30,31
 278.20754717 469 278.20754717 469 258 350 c 1,32,-1
 205 57 l 1,20,21
EndSplineSet
EndChar

StartChar: c
Encoding: 99 99 70
Width: 518
GlyphClass: 2
Flags: HMW
LayerCount: 2
Fore
SplineSet
508 416 m 0,0,1
 508 374 508 374 473 348 c 128,-1,2
 438 322 438 322 381 322 c 0,3,4
 357 322 357 322 343 329 c 1,5,6
 353.540540541 355.351351351 353.540540541 355.351351351 357.27027027 387.675675676 c 128,-1,7
 361 420 361 420 361 429 c 0,8,9
 361 471 361 471 332 471 c 0,10,11
 312 471 312 471 289.5 446 c 128,-1,12
 267 421 267 421 248.5 382 c 0,13,14
 206 292.405405405 206 292.405405405 206 201 c 0,15,16
 206 151 206 151 225 128.5 c 128,-1,17
 244 106 244 106 286 106 c 0,18,19
 344.344827586 106 344.344827586 106 389.5 154.5 c 0,20,21
 403 169 403 169 410 186 c 1,22,23
 448 166 448 166 448 111 c 0,24,25
 448 54.5762711864 448 54.5762711864 385.5 17.5 c 0,26,27
 322.285714286 -20 322.285714286 -20 220.142857143 -20 c 0,28,29
 17 -20 17 -20 17 195 c 0,30,31
 17 352.458823529 17 352.458823529 105.5 442 c 0,32,33
 192.476744186 530 192.476744186 530 350.238372093 530 c 128,-1,34
 508 530 508 530 508 416 c 0,0,1
EndSplineSet
EndChar

StartChar: d
Encoding: 100 100 71
Width: 625
GlyphClass: 2
Flags: HMW
LayerCount: 2
Fore
SplineSet
332 530 m 0,0,1
 368 530 368 530 396 522 c 1,2,3
 397 526 397 526 399 537 c 2,4,-1
 404 568 l 2,5,6
 408 588 408 588 414 621 c 2,7,-1
 430 700 l 1,8,-1
 629 720 l 1,9,-1
 518 140 l 2,10,11
 517 134 517 134 517 124 c 2,12,-1
 517 108 l 2,13,14
 517 86 517 86 528 69.5 c 128,-1,15
 539 53 539 53 557 53 c 1,16,17
 536.834677419 5.94758064516 536.834677419 5.94758064516 475.5 -13.5 c 0,18,19
 455 -20 455 -20 425.5 -20 c 128,-1,20
 396 -20 396 -20 369 -4.5 c 128,-1,21
 342 11 342 11 334 37 c 1,22,23
 318 11 318 11 286 -4.5 c 128,-1,24
 254 -20 254 -20 207.5 -20 c 128,-1,25
 161 -20 161 -20 122.5 -8 c 128,-1,26
 84 4 84 4 60.5 30.5 c 0,27,28
 16 80.6808510638 16 80.6808510638 16 197 c 0,29,30
 16 347.357142857 16 347.357142857 104 438.5 c 0,31,32
 192.344827586 530 192.344827586 530 332 530 c 0,0,1
268 430 m 128,-1,34
 248 390 248 390 227.5 290.772727273 c 128,-1,35
 207 191.545454545 207 191.545454545 207 103 c 0,36,37
 207 42 207 42 243 42 c 0,38,39
 275 42 275 42 297.5 74 c 128,-1,40
 320 106 320 106 329 159 c 2,41,-1
 383 452 l 1,42,43
 362 470 362 470 325 470 c 128,-1,33
 288 470 288 470 268 430 c 128,-1,34
EndSplineSet
EndChar

StartChar: e
Encoding: 101 101 72
Width: 532
GlyphClass: 2
Flags: HMW
LayerCount: 2
Fore
SplineSet
422 169 m 1,0,1
 447 151.5 447 151.5 447 114.25 c 128,-1,2
 447 77 447 77 428 53 c 128,-1,3
 409 29 409 29 378 13 c 0,4,5
 314.0625 -20 314.0625 -20 245.03125 -20 c 128,-1,6
 176 -20 176 -20 135.5 -5 c 128,-1,7
 95 10 95 10 68 37.5 c 0,8,9
 15 91.4814814815 15 91.4814814815 15 188 c 0,10,11
 15 339 15 339 97 431 c 0,12,13
 185.239130435 530 185.239130435 530 338 530 c 0,14,15
 432.941176471 530 432.941176471 530 480 490 c 0,16,17
 515 460.25 515 460.25 515 411 c 0,18,19
 515 235 515 235 211 235 c 1,20,21
 207 209 207 209 207 187 c 0,22,23
 207 141 207 141 227.5 123.5 c 128,-1,24
 248 106 248 106 286 106 c 128,-1,25
 324 106 324 106 364.5 123.5 c 128,-1,26
 405 141 405 141 422 169 c 1,0,1
218 278 m 1,27,28
 289.12195122 278 289.12195122 278 330.5 321.5 c 0,29,30
 371 364.076923077 371 364.076923077 371 431 c 0,31,32
 371 454 371 454 362.5 466.5 c 128,-1,33
 354 479 354 479 337 479 c 128,-1,34
 320 479 320 479 305.5 472.5 c 128,-1,35
 291 466 291 466 275.5 444.5 c 0,36,37
 239.090196078 393.996078431 239.090196078 393.996078431 218 278 c 1,27,28
EndSplineSet
EndChar

StartChar: f
Encoding: 102 102 73
Width: 382
GlyphClass: 2
Flags: HMW
LayerCount: 2
Fore
SplineSet
407 580 m 1,0,1
 421 604.5 421 604.5 421 629.75 c 0,2,3
 421 676 421 676 393 676 c 0,4,5
 350.206896552 676 350.206896552 676 332 588 c 1,6,-1
 317 510 l 1,7,-1
 408 510 l 1,8,-1
 402 465 l 1,9,-1
 308 465 l 1,10,-1
 218 0 l 1,11,-1
 16 -20 l 1,12,-1
 112 465 l 1,13,-1
 41 465 l 1,14,-1
 50 510 l 1,15,-1
 120 510 l 1,16,-1
 141 589 l 1,17,18
 158.887667888 662.339438339 158.887667888 662.339438339 235.5 695.5 c 0,19,20
 292.103448276 720 292.103448276 720 386.051724138 720 c 128,-1,21
 480 720 480 720 522 696 c 128,-1,22
 564 672 564 672 564 640 c 128,-1,23
 564 608 564 608 539 588 c 128,-1,24
 514 568 514 568 485.5 568 c 0,25,26
 431 568 431 568 407 580 c 1,0,1
EndSplineSet
EndChar

StartChar: g
Encoding: 103 103 74
Width: 599
GlyphClass: 2
Flags: HMW
LayerCount: 2
Fore
SplineSet
173.5 498 m 128,-1,1
 225 530 225 530 288 530 c 128,-1,2
 351 530 351 530 381 510 c 1,3,-1
 577 530 l 1,4,-1
 509 146 l 2,5,6
 473.744728435 -49.8626198083 473.744728435 -49.8626198083 399.5 -127 c 0,7,8
 329.2375 -200 329.2375 -200 191 -200 c 0,9,10
 86 -200 86 -200 26 -167 c 128,-1,11
 -34 -134 -34 -134 -34 -79 c 0,12,13
 -34 -38 -34 -38 -3 -14.5 c 128,-1,14
 28 9 28 9 76 9 c 0,15,16
 117.933333333 9 117.933333333 9 150 -9.5 c 0,17,18
 168.958333333 -20.4375 168.958333333 -20.4375 178 -34 c 1,19,20
 155 -53.7142857143 155 -53.7142857143 155 -87 c 0,21,22
 155 -130 155 -130 195 -130 c 0,23,24
 262.482758621 -130 262.482758621 -130 300.5 27.5 c 0,25,26
 311 71 311 71 320 114 c 1,27,28
 274.565217391 59 274.565217391 59 173 59 c 0,29,30
 102 59 102 59 61 93 c 128,-1,31
 20 127 20 127 20 207 c 0,32,33
 20 257 20 257 37 313.5 c 128,-1,34
 54 370 54 370 88 418 c 128,-1,0
 122 466 122 466 173.5 498 c 128,-1,1
218 204.5 m 0,35,36
 218 136 218 136 253 136 c 0,37,38
 277.045454545 136 277.045454545 136 299.5 162 c 0,39,40
 317.922651934 183.331491713 317.922651934 183.331491713 325 214 c 2,41,-1
 376 471 l 1,42,43
 371 472 371 472 366 474 c 256,44,45
 356 478 356 478 343 478 c 0,46,47
 281.714285714 478 281.714285714 478 246 378 c 0,48,49
 218 299.6 218 299.6 218 204.5 c 0,35,36
EndSplineSet
EndChar

StartChar: h
Encoding: 104 104 75
Width: 629
GlyphClass: 2
Flags: HMW
LayerCount: 2
Fore
SplineSet
520 111 m 0,0,1
 520 67.125 520 67.125 565 54 c 1,2,3
 554.012269939 17.3742331288 554.012269939 17.3742331288 511 -3 c 0,4,5
 475.111111111 -20 475.111111111 -20 435.555555556 -20 c 128,-1,6
 396 -20 396 -20 375.5 -9.5 c 128,-1,7
 355 1 355 1 344 17.5 c 0,8,9
 326 44.5 326 44.5 326 93 c 0,10,11
 326 122 326 122 342 202 c 1,12,-1
 356 278 l 2,13,14
 373 365.428571429 373 365.428571429 373 396.714285714 c 0,15,16
 373 453 373 453 342 453 c 0,17,18
 302.906976744 453 302.906976744 453 277.5 395.5 c 0,19,20
 268 374 268 374 261 341 c 2,21,-1
 193 0 l 1,22,-1
 -8 -20 l 1,23,-1
 133 700 l 1,24,-1
 334 720 l 1,25,-1
 326 680 l 1,26,27
 298.416666667 526.321428571 298.416666667 526.321428571 274 474 c 1,28,29
 330 530 330 530 433 530 c 0,30,31
 541.555555556 530 541.555555556 530 562.5 457.5 c 0,32,33
 569 435 569 435 569 415 c 128,-1,34
 569 395 569 395 567.5 379.5 c 128,-1,35
 566 364 566 364 561 336 c 2,36,-1
 548 264 l 1,37,-1
 525 151 l 2,38,39
 520 128.5 520 128.5 520 111 c 0,0,1
EndSplineSet
EndChar

StartChar: i
Encoding: 105 105 76
Width: 325
GlyphClass: 2
Flags: HMW
LayerCount: 2
Fore
SplineSet
257 55 m 1,0,1
 225.75 -20 225.75 -20 127 -20 c 0,2,3
 76 -20 76 -20 44.5 15 c 0,4,5
 17 45.5555555556 17 45.5555555556 17 77.2777777778 c 0,6,7
 17 157.909090909 17 157.909090909 54 316 c 1,8,-1
 91 510 l 1,9,-1
 294 530 l 1,10,-1
 233 214 l 1,11,12
 216 140.333333333 216 140.333333333 216 113.666666667 c 0,13,14
 216 57.05 216 57.05 257 55 c 1,0,1
109 649 m 256,15,16
 109 688 109 688 141.5 709 c 128,-1,17
 174 730 174 730 221 730 c 256,18,19
 268 730 268 730 296.5 709 c 128,-1,20
 325 688 325 688 325 649 c 256,21,22
 325 610 325 610 293.5 590 c 128,-1,23
 262 570 262 570 215 570 c 256,24,25
 168 570 168 570 138.5 590 c 128,-1,26
 109 610 109 610 109 649 c 256,15,16
EndSplineSet
EndChar

StartChar: j
Encoding: 106 106 77
Width: 317
GlyphClass: 2
Flags: HMW
LayerCount: 2
Fore
SplineSet
-122 -119 m 1,0,1
 -69.9065656566 -115.279040404 -69.9065656566 -115.279040404 -32 -49.5 c 0,2,3
 -3.30731707317 0.290243902439 -3.30731707317 0.290243902439 16 92 c 1,4,-1
 97 510 l 1,5,-1
 298 530 l 1,6,-1
 213 92 l 2,7,8
 180.041197473 -74.7327657237 180.041197473 -74.7327657237 129 -130.5 c 0,9,10
 102 -160 102 -160 67 -170 c 128,-1,11
 32 -180 32 -180 -7.5 -180 c 0,12,13
 -91.5 -180 -91.5 -180 -122 -119 c 1,0,1
113 649 m 256,14,15
 113 688 113 688 145.5 709 c 128,-1,16
 178 730 178 730 225 730 c 256,17,18
 272 730 272 730 300.5 709 c 128,-1,19
 329 688 329 688 329 649 c 256,20,21
 329 610 329 610 297.5 590 c 128,-1,22
 266 570 266 570 219 570 c 256,23,24
 172 570 172 570 142.5 590 c 128,-1,25
 113 610 113 610 113 649 c 256,14,15
EndSplineSet
EndChar

StartChar: k
Encoding: 107 107 78
Width: 604
GlyphClass: 2
Flags: HMW
LayerCount: 2
Fore
SplineSet
275 474 m 1,0,1
 329.068965517 530 329.068965517 530 443 530 c 0,2,3
 506 530 506 530 540.5 496.5 c 128,-1,4
 575 463 575 463 575 401.5 c 128,-1,5
 575 340 575 340 540.5 296.5 c 128,-1,6
 506 253 506 253 442 235 c 1,7,8
 447 215 447 215 454 194 c 2,9,-1
 468 154 l 2,10,11
 486.550724638 102.985507246 486.550724638 102.985507246 501.775362319 84.9927536232 c 128,-1,12
 517 67 517 67 537 61 c 1,13,14
 526.423728814 20.4576271186 526.423728814 20.4576271186 486 -2 c 0,15,16
 453.6 -20 453.6 -20 409.8 -20 c 0,17,18
 280.583333333 -20 280.583333333 -20 264 179 c 0,19,20
 261 207 261 207 261 235 c 1,21,22
 311.499412456 249.139835488 311.499412456 249.139835488 346 295.5 c 0,23,24
 381 342.53125 381 342.53125 381 397.765625 c 128,-1,25
 381 453 381 453 342 453 c 0,26,27
 314 453 314 453 292 422 c 128,-1,28
 270 391 270 391 260 338 c 2,29,-1
 194 0 l 1,30,-1
 -8 -20 l 1,31,-1
 132 700 l 1,32,-1
 333 720 l 1,33,-1
 310 601 l 2,34,35
 294.65 516.575 294.65 516.575 275 474 c 1,0,1
EndSplineSet
EndChar

StartChar: l
Encoding: 108 108 79
Width: 324
GlyphClass: 2
Flags: HMW
LayerCount: 2
Fore
SplineSet
256 55 m 1,0,1
 224.75 -20 224.75 -20 126 -20 c 0,2,3
 76 -20 76 -20 44.5 15 c 0,4,5
 18 44.4444444444 18 44.4444444444 18 76.7222222222 c 0,6,7
 18 151.5 18 151.5 53 316 c 1,8,-1
 126 700 l 1,9,-1
 329 720 l 1,10,-1
 232 214 l 1,11,12
 215 140.333333333 215 140.333333333 215 113.666666667 c 0,13,14
 215 57.05 215 57.05 256 55 c 1,0,1
EndSplineSet
EndChar

StartChar: m
Encoding: 109 109 80
Width: 921
GlyphClass: 2
Flags: HMW
LayerCount: 2
Fore
SplineSet
737 -20 m 0,0,1
 616 -20 616 -20 616 74 c 0,2,3
 616 115.333333333 616 115.333333333 633.5 194.666666667 c 128,-1,4
 651 274 651 274 657 305.5 c 0,5,6
 671 379 671 379 671 402 c 0,7,8
 671 453 671 453 633 453 c 0,9,10
 608 453 608 453 584 418.5 c 128,-1,11
 560 384 560 384 549 315 c 1,12,-1
 487 0 l 1,13,-1
 292 -20 l 1,14,-1
 346 252 l 2,15,16
 355.490196078 297.078431373 355.490196078 297.078431373 363.245098039 348.039215686 c 128,-1,17
 371 399 371 399 371 407 c 0,18,19
 371 453 371 453 337 453 c 0,20,21
 314 453 314 453 289 419 c 128,-1,22
 264 385 264 385 250 315 c 2,23,-1
 189 0 l 1,24,-1
 -8 -20 l 1,25,-1
 97 510 l 1,26,-1
 260 530 l 1,27,-1
 243 429 l 1,28,29
 269 483 269 483 317 506.5 c 128,-1,30
 365 530 365 530 440 530 c 0,31,32
 483 530 483 530 511 509 c 128,-1,33
 539 488 539 488 548 454 c 1,34,35
 565 489 565 489 608.5 509.5 c 128,-1,36
 652 530 652 530 705.5 530 c 128,-1,37
 759 530 759 530 785.5 518.5 c 128,-1,38
 812 507 812 507 827.5 487.5 c 0,39,40
 855 452.903225806 855 452.903225806 855 389 c 0,41,42
 855 326.153846154 855 326.153846154 827.5 195 c 0,43,44
 814 130.615384615 814 130.615384615 814 107.307692308 c 128,-1,45
 814 84 814 84 827.5 70 c 128,-1,46
 841 56 841 56 861 54 c 1,47,48
 851 20 851 20 816.5 0 c 128,-1,49
 782 -20 782 -20 737 -20 c 0,0,1
EndSplineSet
EndChar

StartChar: n
Encoding: 110 110 81
Width: 627
GlyphClass: 2
Flags: HMW
LayerCount: 2
Fore
SplineSet
440 -20 m 0,0,1
 319 -20 319 -20 319 74 c 1,2,3
 320 100 320 100 328 144 c 2,4,-1
 346 236 l 1,5,6
 373 365.6 373 365.6 373 395.3 c 0,7,8
 373 453 373 453 339 453 c 0,9,10
 282.231884058 453 282.231884058 453 252 304 c 1,11,-1
 193 0 l 1,12,-1
 -8 -20 l 1,13,-1
 96 511 l 1,14,-1
 260 530 l 1,15,-1
 244 432 l 1,16,17
 291 530 291 530 435 530 c 0,18,19
 505 530 505 530 534.5 500.5 c 128,-1,20
 564 471 564 471 564 405 c 0,21,22
 564 342.666666667 564 342.666666667 531.5 197.5 c 0,23,24
 517 132.733333333 517 132.733333333 517 108.366666667 c 128,-1,25
 517 84 517 84 530.5 70 c 128,-1,26
 544 56 544 56 564 54 c 1,27,28
 554 20 554 20 519.5 0 c 128,-1,29
 485 -20 485 -20 440 -20 c 0,0,1
EndSplineSet
EndChar

StartChar: o
Encoding: 111 111 82
Width: 591
GlyphClass: 2
Flags: HMW
LayerCount: 2
Fore
SplineSet
235 -20 m 0,0,1
 15 -20 15 -20 15 187 c 0,2,3
 15 333.825 15 333.825 96 429 c 0,4,5
 181.957446809 530 181.957446809 530 331 530 c 0,6,7
 439 530 439 530 494 480 c 128,-1,8
 549 430 549 430 549 325 c 0,9,10
 549 164.841463415 549 164.841463415 463 71.5 c 0,11,12
 378.696629213 -20 378.696629213 -20 235 -20 c 0,0,1
239.5 347.5 m 128,-1,14
 230 307 230 307 218 243.2 c 128,-1,15
 206 179.4 206 179.4 206 100 c 0,16,17
 206 74 206 74 214.5 57 c 128,-1,18
 223 40 223 40 246 40 c 128,-1,19
 269 40 269 40 283.5 51 c 128,-1,20
 298 62 298 62 309 87.5 c 0,21,22
 328.956521739 133.76284585 328.956521739 133.76284585 344.97826087 219.381422925 c 128,-1,23
 361 305 361 305 362.5 342 c 128,-1,24
 364 379 364 379 364 406.5 c 128,-1,25
 364 434 364 434 356 452 c 128,-1,26
 348 470 348 470 325.5 470 c 128,-1,27
 303 470 303 470 288 456 c 128,-1,28
 273 442 273 442 261 415 c 128,-1,13
 249 388 249 388 239.5 347.5 c 128,-1,14
EndSplineSet
EndChar

StartChar: p
Encoding: 112 112 83
Width: 614
GlyphClass: 2
Flags: HMW
LayerCount: 2
Fore
SplineSet
383.5 3 m 128,-1,1
 326 -20 326 -20 269 -20 c 128,-1,2
 212 -20 212 -20 192 -10 c 1,3,-1
 161 -180 l 1,4,-1
 -42 -200 l 1,5,-1
 96 510 l 1,6,-1
 259 527 l 1,7,-1
 246 458 l 1,8,9
 288.15625 529 288.15625 529 375 529 c 0,10,11
 473.338983051 529 473.338983051 529 525 465.5 c 0,12,13
 571 408.958333333 571 408.958333333 571 321.979166667 c 128,-1,14
 571 235 571 235 548 173 c 128,-1,15
 525 111 525 111 483 68.5 c 128,-1,0
 441 26 441 26 383.5 3 c 128,-1,1
204 56 m 1,16,17
 225 38 225 38 251 38 c 128,-1,18
 277 38 277 38 292 48 c 128,-1,19
 307 58 307 58 318 78 c 0,20,21
 347.779084967 132.14379085 347.779084967 132.14379085 372 296.5 c 0,22,23
 379 344 379 344 379 391 c 128,-1,24
 379 438 379 438 368.5 453 c 128,-1,25
 358 468 358 468 338 468 c 0,26,27
 277.20754717 468 277.20754717 468 257 349 c 1,28,-1
 204 56 l 1,16,17
EndSplineSet
EndChar

StartChar: q
Encoding: 113 113 84
Width: 617
GlyphClass: 2
Flags: HMW
LayerCount: 2
Fore
SplineSet
301 3 m 1,0,1
 267.545454545 -20 267.545454545 -20 215.272727273 -20 c 128,-1,2
 163 -20 163 -20 124.5 -8 c 128,-1,3
 86 4 86 4 62 30 c 0,4,5
 16 79.8333333333 16 79.8333333333 16 197 c 0,6,7
 16 345.228915663 16 345.228915663 103.5 438 c 0,8,9
 190.272727273 530 190.272727273 530 332 530 c 0,10,11
 383 530 383 530 420 513 c 1,12,-1
 597 530 l 1,13,-1
 461 -180 l 1,14,-1
 259 -200 l 1,15,-1
 301 3 l 1,0,1
242 42 m 0,16,17
 273 42 273 42 296 73.5 c 128,-1,18
 319 105 319 105 329 159 c 2,19,-1
 382 452 l 1,20,21
 361 470 361 470 336.5 470 c 128,-1,22
 312 470 312 470 297.5 462 c 128,-1,23
 283 454 283 454 272 436 c 0,24,25
 243.125 388.75 243.125 388.75 220.5 253 c 0,26,27
 207 172 207 172 207 107 c 128,-1,28
 207 42 207 42 242 42 c 0,16,17
EndSplineSet
EndChar

StartChar: r
Encoding: 114 114 85
Width: 521
GlyphClass: 2
Flags: HMW
LayerCount: 2
Fore
SplineSet
330 281 m 1,0,1
 366 344.529411765 366 344.529411765 366 410 c 0,2,3
 366 453 366 453 335 453 c 0,4,5
 310.675675676 453 310.675675676 453 285.5 412.5 c 0,6,7
 259.898520085 371.315010571 259.898520085 371.315010571 252 318 c 2,8,-1
 200 0 l 1,9,-1
 -7 -20 l 1,10,-1
 95 510 l 1,11,-1
 260 530 l 1,12,-1
 242 429 l 1,13,14
 291 530 291 530 401 530 c 0,15,16
 459 530 459 530 490.5 500 c 128,-1,17
 522 470 522 470 522 408.5 c 128,-1,18
 522 347 522 347 481.5 308 c 128,-1,19
 441 269 441 269 372 269 c 0,20,21
 342 269 342 269 330 281 c 1,0,1
EndSplineSet
EndChar

StartChar: s
Encoding: 115 115 86
Width: 486
GlyphClass: 2
Flags: HMW
LayerCount: 2
Fore
SplineSet
316 351 m 1,0,1
 330 387.75 330 387.75 330 419.875 c 0,2,3
 330 479 330 479 282 479 c 0,4,5
 256.857142857 479 256.857142857 479 236.5 456.5 c 128,-1,6
 216 433.842105263 216 433.842105263 216 406 c 0,7,8
 216 385.608695652 216 385.608695652 232 370.304347826 c 0,9,10
 255.228571429 348.085714286 255.228571429 348.085714286 314.114285714 312.042857143 c 128,-1,11
 373 276 373 276 395.5 246.5 c 128,-1,12
 418 217 418 217 418 176.5 c 128,-1,13
 418 136 418 136 398.5 99 c 128,-1,14
 379 62 379 62 343.5 35.5 c 0,15,16
 269.150943396 -20 269.150943396 -20 149 -20 c 0,17,18
 83.7096774194 -20 83.7096774194 -20 34 13.5 c 0,19,20
 -16 47.1956521739 -16 47.1956521739 -16 86.097826087 c 128,-1,21
 -16 125 -16 125 12.5 148 c 128,-1,22
 41 171 41 171 83 171 c 256,23,24
 125 171 125 171 151 155 c 1,25,26
 138 122 138 122 138 100 c 0,27,28
 138 34 138 34 194 34 c 0,29,30
 218 34 218 34 234 49 c 128,-1,31
 250 64 250 64 250 89.5 c 0,32,33
 250 140.782608696 250 140.782608696 164 195 c 1,34,35
 94.2801932367 240.753623188 94.2801932367 240.753623188 78.1400966184 259.376811594 c 0,36,37
 51 290.692307692 51 290.692307692 51 330.846153846 c 128,-1,38
 51 371 51 371 70 409 c 128,-1,39
 89 447 89 447 124 474 c 0,40,41
 196.592592593 530 196.592592593 530 324 530 c 0,42,43
 389 530 389 530 427.5 504 c 128,-1,44
 466 478 466 478 466 434 c 128,-1,45
 466 390 466 390 439.5 365 c 128,-1,46
 413 340 413 340 365 340 c 0,47,48
 332.5 340 332.5 340 316 351 c 1,0,1
EndSplineSet
EndChar

StartChar: t
Encoding: 116 116 87
Width: 361
GlyphClass: 2
Flags: HMW
LayerCount: 2
Fore
SplineSet
33 100 m 0,0,1
 33 127.333333333 33 127.333333333 47 195 c 2,2,-1
 100 465 l 1,3,-1
 41 465 l 1,4,-1
 45 495 l 1,5,6
 165 531 165 531 281 619 c 1,7,-1
 329 619 l 1,8,-1
 305 510 l 1,9,-1
 383 510 l 1,10,-1
 374 465 l 1,11,-1
 297 465 l 1,12,-1
 246 195 l 1,13,14
 233 133.25 233 133.25 233 111.625 c 0,15,16
 233 64.5 233 64.5 275 54 c 1,17,18
 265 20 265 20 229 0 c 128,-1,19
 193 -20 193 -20 142 -20 c 256,20,21
 91 -20 91 -20 62 12 c 128,-1,22
 33 44 33 44 33 100 c 0,0,1
EndSplineSet
EndChar

StartChar: u
Encoding: 117 117 88
Width: 635
GlyphClass: 2
Flags: HMW
LayerCount: 2
Fore
SplineSet
338 42 m 1,0,1
 289.5625 -20 289.5625 -20 171 -20 c 0,2,3
 109 -20 109 -20 64 17.5 c 128,-1,4
 19 55 19 55 19 109 c 0,5,6
 19 139 19 139 22 154 c 2,7,-1
 89 510 l 1,8,-1
 292 530 l 1,9,-1
 219 144 l 2,10,11
 215 122 215 122 215 109 c 0,12,13
 215 51 215 51 250 51 c 0,14,15
 288.941176471 51 288.941176471 51 317 104 c 0,16,17
 326 121 326 121 330 143 c 2,18,-1
 401 510 l 1,19,-1
 598 530 l 1,20,-1
 524 140 l 2,21,22
 521 125 521 125 521 109 c 128,-1,23
 521 93 521 93 530 75.5 c 128,-1,24
 539 58 539 58 568 54 c 1,25,26
 562.09 30.36 562.09 30.36 540.545 13.68 c 0,27,28
 497.041666667 -20 497.041666667 -20 449.520833333 -20 c 128,-1,29
 402 -20 402 -20 374 -3 c 128,-1,30
 346 14 346 14 338 42 c 1,0,1
EndSplineSet
EndChar

StartChar: v
Encoding: 118 118 89
Width: 569
GlyphClass: 2
Flags: HMW
LayerCount: 2
Fore
SplineSet
380 493 m 1,0,1
 412.647058824 530 412.647058824 530 470 530 c 0,2,3
 505 530 505 530 532 511 c 128,-1,4
 559 492 559 492 559 456.5 c 128,-1,5
 559 421 559 421 548 383 c 128,-1,6
 537 345 537 345 520 306.5 c 0,7,8
 486.178947368 229.905263158 486.178947368 229.905263158 439 167 c 1,9,10
 373 76 373 76 309.5 28 c 128,-1,11
 246 -20 246 -20 177 -20 c 0,12,13
 120.8 -20 120.8 -20 87 -7 c 1,14,15
 81.4054054054 202.797297297 81.4054054054 202.797297297 73.7027027027 277.898648649 c 128,-1,16
 66 353 66 353 60.5 393.5 c 0,17,18
 49.5690821256 473.991304348 49.5690821256 473.991304348 20 493 c 1,19,20
 43 513 43 513 65.5 521.5 c 128,-1,21
 88 530 88 530 134.5 530 c 128,-1,22
 181 530 181 530 214 493.5 c 128,-1,23
 247 457 247 457 253.5 392.5 c 128,-1,24
 260 328 260 328 260 250 c 128,-1,25
 260 172 260 172 254 78 c 1,26,27
 285.09077381 99.9464285714 285.09077381 99.9464285714 317.5 167 c 0,28,29
 362.564139942 260.236151603 362.564139942 260.236151603 379 372 c 0,30,31
 384 406 384 406 384 442.166666667 c 128,-1,32
 384 478.333333333 384 478.333333333 380 493 c 1,0,1
EndSplineSet
EndChar

StartChar: w
Encoding: 119 119 90
Width: 890
GlyphClass: 2
Flags: HMW
LayerCount: 2
Fore
SplineSet
633.5 28 m 128,-1,1
 570 -20 570 -20 504.7 -20 c 128,-1,2
 439.4 -20 439.4 -20 416 -7 c 1,3,-1
 416 213 l 1,4,5
 358.889848812 60.7062634989 358.889848812 60.7062634989 257 1.5 c 0,6,7
 220 -20 220 -20 185 -20 c 0,8,9
 117.6 -20 117.6 -20 89 -7 c 1,10,11
 82.2751322751 221.645502646 82.2751322751 221.645502646 76.1375661376 285.322751323 c 128,-1,12
 70 349 70 349 65 388 c 0,13,14
 54.9817850638 466.142076503 54.9817850638 466.142076503 21 498 c 1,15,16
 64.2941176471 530 64.2941176471 530 123.647058824 530 c 0,17,18
 239.774647887 530 239.774647887 530 256 386 c 0,19,20
 260 352 260 352 260 315.5 c 0,21,22
 260 262 260 262 248 74 c 1,23,24
 272 85 272 85 297.5 124.5 c 128,-1,25
 323 164 323 164 343.5 218 c 0,26,27
 391 343.12195122 391 343.12195122 391 451 c 0,28,29
 391 468 391 468 386.5 486 c 128,-1,30
 382 504 382 504 377 509 c 1,31,32
 412 530 412 530 465.5 530 c 128,-1,33
 519 530 519 530 544.5 493.5 c 128,-1,34
 570 457 570 457 577 390 c 0,35,36
 585 304.666666667 585 304.666666667 585 253.833333333 c 0,37,38
 585 183 585 183 578 78 c 1,39,40
 628.204918033 114.147540984 628.204918033 114.147540984 669 232 c 0,41,42
 710 350.444444444 710 350.444444444 710 434 c 0,43,44
 710 471 710 471 704 493 c 1,45,46
 736.647058824 530 736.647058824 530 794 530 c 0,47,48
 829 530 829 530 854.5 511 c 128,-1,49
 880 492 880 492 880 456.5 c 128,-1,50
 880 421 880 421 869.5 383 c 128,-1,51
 859 345 859 345 842.5 306.5 c 0,52,53
 809 228.333333333 809 228.333333333 763 167 c 1,54,0
 697 76 697 76 633.5 28 c 128,-1,1
EndSplineSet
EndChar

StartChar: x
Encoding: 120 120 91
Width: 554
GlyphClass: 2
Flags: HMW
LayerCount: 2
Fore
SplineSet
150 -3 m 1,0,1
 117.888888889 -20 117.888888889 -20 73.9444444444 -20 c 128,-1,2
 30 -20 30 -20 6 2.5 c 128,-1,3
 -18 25 -18 25 -18 68.5 c 128,-1,4
 -18 112 -18 112 12.5 154.5 c 128,-1,5
 43 197 43 197 88.5 221 c 128,-1,6
 134 245 134 245 166 259 c 1,7,-1
 103 404 l 2,8,9
 86.0416666667 441 86.0416666667 441 54 441 c 1,10,-1
 46 440 l 1,11,-1
 43 440 l 1,12,13
 49.0920577617 474.52166065 49.0920577617 474.52166065 90.5 502.5 c 0,14,15
 131.2 530 131.2 530 178 530 c 0,16,17
 254 530 254 530 289 454 c 1,18,-1
 297 438 l 1,19,-1
 340 332 l 1,20,21
 367 344 367 344 378.5 366.5 c 128,-1,22
 390 389 390 389 390 433.653846154 c 128,-1,23
 390 478.307692308 390 478.307692308 366 506 c 1,24,25
 404 530 404 530 454 530 c 0,26,27
 544 530 544 530 544 443 c 0,28,29
 544 348.25 544 348.25 425 293 c 2,30,-1
 365 265 l 1,31,-1
 419 126 l 2,32,33
 434.972222222 84.4722222222 434.972222222 84.4722222222 464 66 c 0,34,35
 476 58 476 58 490 57 c 1,36,37
 460.465838509 7.77639751553 460.465838509 7.77639751553 395 -13.5 c 0,38,39
 375 -20 375 -20 348 -20 c 128,-1,40
 321 -20 321 -20 290 -1.5 c 128,-1,41
 259 17 259 17 248 46 c 2,42,-1
 193 189 l 1,43,44
 137 163.709677419 137 163.709677419 137 73 c 0,45,46
 137 31.125 137 31.125 150 -3 c 1,0,1
EndSplineSet
EndChar

StartChar: y
Encoding: 121 121 92
Width: 618
GlyphClass: 2
Flags: HMW
LayerCount: 2
Fore
SplineSet
335 113 m 1,0,1
 282.8 59 282.8 59 188 59 c 0,2,3
 68.5961538462 59 68.5961538462 59 43.5 146 c 0,4,5
 36 172 36 172 36 201 c 128,-1,6
 36 230 36 230 42 260 c 2,7,-1
 89 510 l 1,8,-1
 292 530 l 1,9,-1
 237 239 l 2,10,11
 235 226 235 226 232 212 c 128,-1,12
 229 198 229 198 229 183.5 c 128,-1,13
 229 169 229 169 234 159.5 c 128,-1,14
 239 150 239 150 246.5 144.5 c 0,15,16
 258.090909091 136 258.090909091 136 279.545454545 136 c 128,-1,17
 301 136 301 136 319.5 162 c 128,-1,18
 338 188 338 188 347 233 c 2,19,-1
 402 510 l 1,20,-1
 599 530 l 1,21,-1
 524 137 l 2,22,23
 487.1875 -54.8125 487.1875 -54.8125 411 -131 c 0,24,25
 372 -170 372 -170 321.5 -185.5 c 128,-1,26
 271 -201 271 -201 206 -201 c 0,27,28
 101 -201 101 -201 41 -168 c 128,-1,29
 -19 -135 -19 -135 -19 -80 c 0,30,31
 -19 -39 -19 -39 12 -15.5 c 128,-1,32
 43 8 43 8 91 8 c 0,33,34
 132.933333333 8 132.933333333 8 165 -10.5 c 0,35,36
 183.958333333 -21.4375 183.958333333 -21.4375 193 -35 c 1,37,38
 170 -54.7142857143 170 -54.7142857143 170 -88 c 0,39,40
 170 -132 170 -132 210 -132 c 0,41,42
 276.303370787 -132 276.303370787 -132 314 20.5 c 0,43,44
 325 65 325 65 335 113 c 1,0,1
EndSplineSet
EndChar

StartChar: z
Encoding: 122 122 93
Width: 504
GlyphClass: 2
Flags: HMW
LayerCount: 2
Fore
SplineSet
137.5 4.5 m 128,-1,1
 113 9 113 9 84.5 9 c 128,-1,2
 56 9 56 9 28 -1 c 1,3,4
 13 8 13 8 3.5 26 c 128,-1,5
 -6 44 -6 44 -6 71.5 c 0,6,7
 -6 131 -6 131 54 176 c 1,8,-1
 308 359 l 1,9,10
 236.888888889 379 236.888888889 379 172.444444444 379 c 128,-1,11
 108 379 108 379 85 335 c 1,12,13
 51 375.375 51 375.375 51 438 c 0,14,15
 51 480 51 480 81.5 507.5 c 128,-1,16
 112 535 112 535 176 535 c 0,17,18
 212 535 212 535 244.5 530.5 c 128,-1,19
 277 526 277 526 306 522 c 2,20,-1
 360 514 l 2,21,22
 386 510 386 510 412.416666667 510 c 128,-1,23
 438.833333333 510 438.833333333 510 459 521 c 1,24,25
 485 496.625 485 496.625 485 464.3125 c 0,26,27
 485 412.153846154 485 412.153846154 421 358 c 1,28,-1
 168 169 l 1,29,30
 246.2 146 246.2 146 286.1 146 c 0,31,32
 369.636363636 146 369.636363636 146 406 186 c 1,33,34
 434 154 434 154 434 98.5 c 128,-1,35
 434 43 434 43 398 11.5 c 128,-1,36
 362 -20 362 -20 297 -20 c 0,37,38
 256.545454545 -20 256.545454545 -20 209.272727273 -10 c 128,-1,0
 162 0 162 0 137.5 4.5 c 128,-1,1
EndSplineSet
EndChar

StartChar: braceleft
Encoding: 123 123 94
Width: 368
GlyphClass: 2
Flags: HMW
LayerCount: 2
Fore
SplineSet
-3 275 m 1,0,-1
 11 347 l 1,1,2
 106 347 106 347 124 445 c 2,3,-1
 167 682 l 2,4,5
 178 743 178 743 219.5 771.5 c 128,-1,6
 261 800 261 800 336 800 c 0,7,8
 403.8 800 403.8 800 447 792 c 1,9,-1
 436 734 l 1,10,-1
 406 734 l 2,11,12
 363 734 363 734 340 712 c 128,-1,13
 317 690 317 690 309 642 c 2,14,-1
 269 419 l 2,15,16
 260 370 260 370 232 346.5 c 128,-1,17
 204 323 204 323 147 316 c 1,18,19
 195.356164384 310.197260274 195.356164384 310.197260274 210.178082192 297.598630137 c 128,-1,20
 225 285 225 285 229 273 c 128,-1,21
 233 261 233 261 233 244 c 256,22,23
 233 227 233 227 230 209 c 2,24,-1
 185 -19 l 2,25,26
 180 -42.3333333333 180 -42.3333333333 180 -62 c 0,27,28
 180 -133 180 -133 244 -133 c 2,29,-1
 274 -133 l 1,30,-1
 262 -192 l 1,31,32
 207.6 -200 207.6 -200 150 -200 c 0,33,34
 20 -200 20 -200 20 -110 c 0,35,36
 20 -97 20 -97 24 -77 c 2,37,-1
 74 178 l 2,38,39
 77 196 77 196 77 211 c 0,40,41
 76 275 76 275 -3 275 c 1,0,-1
EndSplineSet
EndChar

StartChar: bar
Encoding: 124 124 95
Width: 265
GlyphClass: 2
Flags: HMW
LayerCount: 2
Fore
SplineSet
-42 -200 m 1,0,-1
 153 800 l 1,1,-1
 295 800 l 1,2,-1
 104 -200 l 1,3,-1
 -42 -200 l 1,0,-1
EndSplineSet
EndChar

StartChar: braceright
Encoding: 125 125 96
Width: 368
GlyphClass: 2
Flags: HMW
LayerCount: 2
Fore
SplineSet
-90 -192 m 1,0,-1
 -79 -134 l 1,1,-1
 -49 -134 l 2,2,3
 -6 -134 -6 -134 17 -112 c 128,-1,4
 40 -90 40 -90 49 -42 c 2,5,-1
 95 204 l 2,6,7
 104 253 104 253 131.5 276.5 c 128,-1,8
 159 300 159 300 216 307 c 1,9,10
 167.947643979 312.544502618 167.947643979 312.544502618 152.97382199 325.272251309 c 128,-1,11
 138 338 138 338 134 350 c 128,-1,12
 130 362 130 362 130 379 c 256,13,14
 130 396 130 396 133 414 c 2,15,-1
 172 619 l 2,16,17
 177 642.333333333 177 642.333333333 177 662 c 0,18,19
 177 733 177 733 113 733 c 2,20,-1
 83 733 l 1,21,-1
 95 792 l 1,22,23
 149.4 800 149.4 800 191.2 800 c 128,-1,24
 233 800 233 800 256 795 c 128,-1,25
 279 790 279 790 296 779 c 0,26,27
 333 755.058823529 333 755.058823529 333 707 c 2,28,-1
 333 693 l 2,29,30
 333 685 333 685 331 677 c 2,31,-1
 289 445 l 2,32,33
 286 427 286 427 286 412 c 0,34,35
 287 348 287 348 366 348 c 1,36,-1
 352 276 l 1,37,38
 257 276 257 276 239 178 c 2,39,-1
 190 -82 l 2,40,41
 168.366666667 -200 168.366666667 -200 21 -200 c 0,42,43
 -46.8 -200 -46.8 -200 -90 -192 c 1,0,-1
EndSplineSet
EndChar

StartChar: asciitilde
Encoding: 126 126 97
Width: 504
GlyphClass: 2
Flags: HMW
LayerCount: 2
Fore
SplineSet
44 172 m 1,0,1
 22 200 22 200 22 228.5 c 128,-1,2
 22 257 22 257 51 276.5 c 128,-1,3
 80 296 80 296 133 296 c 0,4,5
 157 296 157 296 188 290 c 2,6,-1
 252 278 l 1,7,-1
 311 265 l 2,8,9
 339 259 339 259 358 259 c 128,-1,10
 377 259 377 259 398 267.5 c 128,-1,11
 419 276 419 276 427 291 c 1,12,13
 448 267 448 267 448 237 c 128,-1,14
 448 207 448 207 419.5 186 c 128,-1,15
 391 165 391 165 340 165 c 0,16,17
 312.307692308 165 312.307692308 165 254.153846154 177 c 0,18,19
 142.692307692 200 142.692307692 200 120.346153846 200 c 128,-1,20
 98 200 98 200 75.5 192.5 c 128,-1,21
 53 185 53 185 44 172 c 1,0,1
EndSplineSet
EndChar

StartChar: exclamdown
Encoding: 161 161 99
Width: 285
GlyphClass: 2
Flags: HMW
LayerCount: 2
Fore
SplineSet
-11 -143 m 128,-1,1
 -34 -115 -34 -115 -34 -73.5 c 128,-1,2
 -34 -32 -34 -32 -18 14.5 c 128,-1,3
 -2 61 -2 61 17.5 108 c 128,-1,4
 37 155 37 155 53.5 203.5 c 128,-1,5
 70 252 70 252 71 303 c 1,6,7
 93.75 329 93.75 329 133.875 329 c 128,-1,8
 174 329 174 329 195.5 310.5 c 128,-1,9
 217 292 217 292 217 262 c 0,10,11
 217 255 217 255 215 245 c 2,12,-1
 137 -157 l 1,13,14
 99.6666666667 -171 99.6666666667 -171 55.8333333333 -171 c 128,-1,0
 12 -171 12 -171 -11 -143 c 128,-1,1
77 450 m 256,15,16
 77 488 77 488 106.5 509 c 128,-1,17
 136 530 136 530 178 530 c 256,18,19
 220 530 220 530 245.5 509 c 128,-1,20
 271 488 271 488 271 450 c 256,21,22
 271 412 271 412 242.5 391.5 c 128,-1,23
 214 371 214 371 172 371 c 256,24,25
 130 371 130 371 103.5 391.5 c 128,-1,26
 77 412 77 412 77 450 c 256,15,16
EndSplineSet
EndChar

StartChar: cent
Encoding: 162 162 100
Width: 523
GlyphClass: 2
Flags: HMW
LayerCount: 2
Fore
SplineSet
421 251 m 1,0,1
 459 232 459 232 459 176 c 0,2,3
 459 125.488888889 459 125.488888889 410.5 91 c 0,4,5
 366.44765343 59.6738868833 366.44765343 59.6738868833 296 49 c 1,6,-1
 292 26 l 2,7,8
 284 -18 284 -18 269 -33.5 c 128,-1,9
 254 -49 254 -49 225 -49 c 128,-1,10
 196 -49 196 -49 178 -44 c 1,11,-1
 196 47 l 1,12,13
 107 59 107 59 67 116.5 c 128,-1,14
 27 174 27 174 27 253.5 c 128,-1,15
 27 333 27 333 47 391 c 128,-1,16
 67 449 67 449 103 491 c 0,17,18
 175.466321244 575.544041451 175.466321244 575.544041451 303 592 c 1,19,-1
 307 612 l 1,20,21
 314 655 314 655 329 671 c 128,-1,22
 344 687 344 687 371 687 c 128,-1,23
 398 687 398 687 418 682 c 1,24,-1
 400 592 l 1,25,26
 519 578.777777778 519 578.777777778 519 481 c 0,27,28
 519 440 519 440 485.5 413.5 c 128,-1,29
 452 387 452 387 392 387 c 0,30,31
 370 387 370 387 354 394 c 1,32,33
 376 449 376 449 376 493 c 128,-1,34
 376 537 376 537 347.5 537 c 128,-1,35
 319 537 319 537 295.5 505 c 128,-1,36
 272 473 272 473 254.5 428.5 c 128,-1,37
 237 384 237 384 227 338.5 c 128,-1,38
 217 293 217 293 217 257 c 128,-1,39
 217 221 217 221 234 196 c 128,-1,40
 251 171 251 171 297 171 c 0,41,42
 333.571428571 171 333.571428571 171 360.285714286 187.5 c 0,43,44
 406.642691415 216.13225058 406.642691415 216.13225058 421 251 c 1,0,1
EndSplineSet
EndChar

StartChar: sterling
Encoding: 163 163 101
Width: 592
GlyphClass: 2
Flags: HMW
LayerCount: 2
Fore
SplineSet
26 -1 m 1,0,1
 -1 20.2142857143 -1 20.2142857143 -0.5 49.6071428571 c 128,-1,2
 0 79 0 79 8.5 94 c 128,-1,3
 17 109 17 109 31 120 c 2,4,-1
 44 130 l 1,5,6
 86.1875 158.125 86.1875 158.125 91 187 c 2,7,-1
 119 342 l 1,8,-1
 43 342 l 1,9,10
 38 355.333333333 38 355.333333333 38 373.666666667 c 128,-1,11
 38 392 38 392 56.5 404.5 c 128,-1,12
 75 417 75 417 105 417 c 2,13,-1
 133 417 l 1,14,-1
 148 501 l 2,15,16
 163 584 163 584 236 632 c 128,-1,17
 309 680 309 680 422 680 c 0,18,19
 496.444444444 680 496.444444444 680 545 651.5 c 0,20,21
 595 622.152173913 595 622.152173913 595 582 c 0,22,23
 595 489 595 489 485 489 c 0,24,25
 455 489 455 489 434 502 c 1,26,27
 451 533 451 533 451 563 c 0,28,29
 451 616 451 616 417 616 c 0,30,31
 394 616 394 616 372.5 583.5 c 128,-1,32
 351 551 351 551 342 501 c 2,33,-1
 328 417 l 1,34,-1
 470 417 l 1,35,36
 476 402 476 402 476 385 c 128,-1,37
 476 368 476 368 457.5 355 c 128,-1,38
 439 342 439 342 400 342 c 2,39,-1
 315 342 l 1,40,-1
 304 278 l 2,41,42
 293 210 293 210 253 178 c 128,-1,43
 213 146 213 146 159 134 c 1,44,-1
 294 126 l 2,45,46
 344 123 344 123 364 121.5 c 128,-1,47
 384 120 384 120 396 120 c 2,48,-1
 421 120 l 2,49,50
 459.444444444 120 459.444444444 120 501 154 c 1,51,52
 520 116 520 116 520 92 c 128,-1,53
 520 68 520 68 509 45 c 128,-1,54
 498 22 498 22 478.5 4.5 c 0,55,56
 437.828571429 -32 437.828571429 -32 375 -32 c 0,57,58
 329.625 -32 329.625 -32 255.3125 -17.5 c 0,59,60
 114.375 10 114.375 10 80.6875 10 c 128,-1,61
 47 10 47 10 26 -1 c 1,0,1
EndSplineSet
EndChar

StartChar: currency
Encoding: 164 164 102
Width: 585
GlyphClass: 2
Flags: HMW
LayerCount: 2
Fore
SplineSet
41 161 m 1,0,-1
 127 238 l 1,1,2
 114 268 114 268 114 321.5 c 0,3,4
 114 375 114 375 147 425 c 1,5,-1
 58 505 l 1,6,-1
 112 579 l 1,7,-1
 208 484 l 1,8,9
 251 510 251 510 300.5 510 c 0,10,11
 350 510 350 510 383 495 c 1,12,-1
 471 581 l 1,13,-1
 535 516 l 1,14,-1
 447 437 l 1,15,16
 465 402 465 402 465 351 c 0,17,18
 465 300 465 300 440 255 c 1,19,-1
 534 172 l 1,20,-1
 475 102 l 1,21,-1
 383 192 l 1,22,23
 335 161 335 161 277.5 161 c 0,24,25
 220 161 220 161 187 177 c 1,26,-1
 105 96 l 1,27,-1
 41 161 l 1,0,-1
214 327 m 256,28,29
 214 288 214 288 231 270.5 c 128,-1,30
 248 253 248 253 285 253 c 0,31,32
 322 253 322 253 343.5 277 c 128,-1,33
 365 301 365 301 365 339.5 c 0,34,35
 365 378 365 378 345.5 397.5 c 128,-1,36
 326 417 326 417 292 417 c 256,37,38
 258 417 258 417 236 391.5 c 128,-1,39
 214 366 214 366 214 327 c 256,28,29
EndSplineSet
EndChar

StartChar: yen
Encoding: 165 165 103
Width: 668
GlyphClass: 2
Flags: HMW
LayerCount: 2
Fore
SplineSet
197 342 m 1,0,1
 163.836010972 572.197100313 163.836010972 572.197100313 72 623 c 1,2,3
 93 649 93 649 127 663.5 c 128,-1,4
 161 678 161 678 202 678 c 128,-1,5
 243 678 243 678 274 663.5 c 128,-1,6
 305 649 305 649 325 618 c 0,7,8
 363 559.1 363 559.1 363 418 c 2,9,-1
 363 346 l 1,10,11
 423.029163966 522.085547634 423.029163966 522.085547634 483 598.5 c 0,12,13
 543.82278481 676 543.82278481 676 620 676 c 1,14,15
 646 675 646 675 668 660 c 128,-1,16
 690 645 690 645 700 622 c 1,17,18
 634 593 634 593 572 520 c 128,-1,19
 510 447 510 447 462 342 c 1,20,-1
 536 342 l 1,21,22
 542 327 542 327 542 310 c 128,-1,23
 542 293 542 293 524.5 280 c 128,-1,24
 507 267 507 267 470 267 c 2,25,-1
 431 267 l 1,26,-1
 427 255 l 1,27,-1
 416 209 l 1,28,-1
 510 209 l 1,29,30
 516 194 516 194 516 177 c 128,-1,31
 516 160 516 160 498.5 147 c 128,-1,32
 481 134 481 134 444 134 c 2,33,-1
 399 134 l 1,34,-1
 368 0 l 1,35,-1
 145 0 l 1,36,-1
 171 134 l 1,37,-1
 83 134 l 1,38,39
 78 147.333333333 78 147.333333333 78 165.666666667 c 128,-1,40
 78 184 78 184 96.5 196.5 c 128,-1,41
 115 209 115 209 145 209 c 2,42,-1
 186 209 l 1,43,-1
 197 267 l 1,44,-1
 109 267 l 1,45,46
 104 280.333333333 104 280.333333333 104 298.666666667 c 128,-1,47
 104 317 104 317 122.5 329.5 c 128,-1,48
 141 342 141 342 171 342 c 2,49,-1
 197 342 l 1,0,1
EndSplineSet
EndChar

StartChar: brokenbar
Encoding: 166 166 104
Width: 271
GlyphClass: 2
Flags: HMW
LayerCount: 2
Fore
SplineSet
0 0 m 1,0,-1
 53 272 l 1,1,-1
 196 272 l 1,2,-1
 144 0 l 1,3,-1
 0 0 l 1,0,-1
75 388 m 1,4,-1
 128 660 l 1,5,-1
 271 660 l 1,6,-1
 219 388 l 1,7,-1
 75 388 l 1,4,-1
EndSplineSet
EndChar

StartChar: section
Encoding: 167 167 105
Width: 466
GlyphClass: 2
Flags: HMW
LayerCount: 2
Fore
SplineSet
335 498 m 1,0,1
 350 546.75 350 546.75 350 567 c 0,2,3
 350 628 350 628 306 628 c 0,4,5
 282.523809524 628 282.523809524 628 263.5 604.5 c 0,6,7
 245 581.647058824 245 581.647058824 245 553 c 0,8,9
 245 532.380952381 245 532.380952381 259.5 517.19047619 c 0,10,11
 283.677419355 491.861751152 283.677419355 491.861751152 335.338709677 455.930875576 c 128,-1,12
 387 420 387 420 407.5 391.5 c 128,-1,13
 428 363 428 363 428 330.5 c 128,-1,14
 428 298 428 298 417 269.5 c 128,-1,15
 406 241 406 241 386 215 c 0,16,17
 343.058823529 159.176470588 343.058823529 159.176470588 279 132 c 1,18,19
 317 101 317 101 330 78.5 c 128,-1,20
 343 56 343 56 343 27 c 0,21,22
 343 -73 343 -73 284.5 -126.5 c 128,-1,23
 226 -180 226 -180 117 -180 c 0,24,25
 53.2222222222 -180 53.2222222222 -180 11 -151.5 c 0,26,27
 -31 -123.15 -31 -123.15 -31 -79.575 c 128,-1,28
 -31 -36 -31 -36 -7 -11.5 c 128,-1,29
 17 13 17 13 52.5 13 c 128,-1,30
 88 13 88 13 105 2 c 1,31,32
 91 -30 91 -30 91 -67 c 0,33,34
 91 -128 91 -128 135 -128 c 0,35,36
 158.476190476 -128 158.476190476 -128 177.5 -104.5 c 0,37,38
 196 -81.6470588235 196 -81.6470588235 196 -53 c 0,39,40
 196 -33.8 196 -33.8 182 -18.4 c 128,-1,41
 168 -3 168 -3 150 11 c 2,42,-1
 103 45 l 1,43,44
 53 79 53 79 32.5 110 c 128,-1,45
 12 141 12 141 12 181 c 0,46,47
 12 246 12 246 48 292 c 128,-1,48
 84 338 84 338 159 369 c 1,49,50
 123 398 123 398 110 421 c 128,-1,51
 97 444 97 444 97 473 c 0,52,53
 97 573 97 573 155.5 626.5 c 128,-1,54
 214 680 214 680 324 680 c 0,55,56
 388 680 388 680 429.5 652 c 128,-1,57
 471 624 471 624 471 580 c 256,58,59
 471 536 471 536 446.5 511.5 c 128,-1,60
 422 487 422 487 379 487 c 0,61,62
 349.666666667 487 349.666666667 487 335 498 c 1,0,1
152 283 m 128,-1,64
 147 271 147 271 147 260 c 128,-1,65
 147 249 147 249 149.5 241 c 128,-1,66
 152 233 152 233 161 223 c 0,67,68
 176.081081081 206.243243243 176.081081081 206.243243243 235 165 c 1,69,70
 257 171 257 171 274.5 194 c 128,-1,71
 292 217 292 217 292 234 c 128,-1,72
 292 251 292 251 289.5 258.5 c 0,73,74
 284.657894737 273.026315789 284.657894737 273.026315789 252 298 c 2,75,-1
 205 334 l 1,76,77
 181.918032787 327.704918033 181.918032787 327.704918033 169.459016393 311.352459016 c 128,-1,63
 157 295 157 295 152 283 c 128,-1,64
EndSplineSet
EndChar

StartChar: dieresis
Encoding: 168 168 106
Width: 454
GlyphClass: 2
Flags: HMW
LayerCount: 2
Fore
SplineSet
-22 606 m 128,-1,1
 -48 623 -48 623 -48 654.5 c 128,-1,2
 -48 686 -48 686 -19.5 703 c 128,-1,3
 9 720 9 720 51 720 c 256,4,5
 93 720 93 720 118 703 c 128,-1,6
 143 686 143 686 143 654.5 c 128,-1,7
 143 623 143 623 115 606 c 128,-1,8
 87 589 87 589 45.5 589 c 128,-1,0
 4 589 4 589 -22 606 c 128,-1,1
211 606 m 128,-1,10
 185 623 185 623 185 654.5 c 128,-1,11
 185 686 185 686 213.5 703 c 128,-1,12
 242 720 242 720 284 720 c 256,13,14
 326 720 326 720 351 703 c 128,-1,15
 376 686 376 686 376 654.5 c 128,-1,16
 376 623 376 623 348 606 c 128,-1,17
 320 589 320 589 278.5 589 c 128,-1,9
 237 589 237 589 211 606 c 128,-1,10
EndSplineSet
EndChar

StartChar: copyright
Encoding: 169 169 107
Width: 776
GlyphClass: 2
Flags: HMW
LayerCount: 2
Fore
SplineSet
16 179 m 0,0,1
 16 269 16 269 50 348 c 128,-1,2
 84 427 84 427 143 486 c 128,-1,3
 202 545 202 545 280.5 579.5 c 128,-1,4
 359 614 359 614 448 614 c 0,5,6
 586 614 586 614 662 546.5 c 128,-1,7
 738 479 738 479 738 357 c 0,8,9
 738 264 738 264 705 184.5 c 128,-1,10
 672 105 672 105 613.5 47.5 c 128,-1,11
 555 -10 555 -10 475 -43 c 128,-1,12
 395 -76 395 -76 301 -76 c 0,13,14
 160 -76 160 -76 88 -11.5 c 128,-1,15
 16 53 16 53 16 179 c 0,0,1
119 199 m 0,16,17
 119 92 119 92 170.5 42.5 c 128,-1,18
 222 -7 222 -7 333 -7 c 0,19,20
 465.056179775 -7 465.056179775 -7 550 87.5 c 128,-1,21
 635 182.0625 635 182.0625 635 329 c 0,22,23
 635 432 635 432 579 487.5 c 128,-1,24
 523 543 523 543 419 543 c 0,25,26
 355 543 355 543 300 517 c 128,-1,27
 245 491 245 491 205 444.5 c 0,28,29
 119 344.525 119 344.525 119 199 c 0,16,17
431 327 m 1,30,31
 444 358.2 444 358.2 444 392.6 c 128,-1,32
 444 427 444 427 424 427 c 0,33,34
 395.578947368 427 395.578947368 427 368 361.5 c 0,35,36
 340 295 340 295 340 246 c 128,-1,37
 340 197 340 197 352.5 181 c 128,-1,38
 365 165 365 165 390.5 165 c 128,-1,39
 416 165 416 165 436 180 c 128,-1,40
 456 195 456 195 467 221 c 1,41,42
 492 208 492 208 492 167 c 0,43,44
 492 128.864864865 492 128.864864865 451.5 101.5 c 0,45,46
 412.28 75 412.28 75 353 75 c 0,47,48
 212 75 212 75 212 226 c 0,49,50
 212 337.736842105 212 337.736842105 271.5 403.5 c 0,51,52
 330.761904762 469 330.761904762 469 436.380952381 469 c 128,-1,53
 542 469 542 469 542 389 c 0,54,55
 542 360 542 360 518.5 341 c 128,-1,56
 495 322 495 322 466.5 322 c 128,-1,57
 438 322 438 322 431 327 c 1,30,31
EndSplineSet
EndChar

StartChar: ordfeminine
Encoding: 170 170 108
Width: 495
GlyphClass: 2
Flags: HMW
LayerCount: 2
Fore
SplineSet
57 158 m 1,0,1
 54 170 54 170 54 188 c 128,-1,2
 54 206 54 206 69 221 c 128,-1,3
 84 236 84 236 107 236 c 2,4,-1
 404 236 l 1,5,6
 407 222 407 222 407 205 c 128,-1,7
 407 188 407 188 392.5 173 c 128,-1,8
 378 158 378 158 348 158 c 2,9,-1
 57 158 l 1,0,1
198.5 657 m 128,-1,11
 239 674 239 674 280 674 c 128,-1,12
 321 674 321 674 355 660 c 1,13,-1
 479 674 l 1,14,-1
 426 394 l 2,15,16
 424 388 424 388 424 385 c 2,17,-1
 424 379 l 2,18,19
 424 358 424 358 432.5 345.5 c 128,-1,20
 441 333 441 333 454 333 c 1,21,22
 447 312 447 312 420.5 296 c 128,-1,23
 394 280 394 280 366.5 280 c 128,-1,24
 339 280 339 280 319.5 291.5 c 128,-1,25
 300 303 300 303 294 321 c 1,26,27
 282 304 282 304 255.5 292 c 128,-1,28
 229 280 229 280 203 280 c 0,29,30
 137 280 137 280 102.5 320 c 128,-1,31
 68 360 68 360 68 424.5 c 128,-1,32
 68 489 68 489 84 533.5 c 128,-1,33
 100 578 100 578 129 609 c 128,-1,10
 158 640 158 640 198.5 657 c 128,-1,11
213 472 m 128,-1,35
 205 424 205 424 205 373 c 128,-1,36
 205 322 205 322 232 322 c 0,37,38
 251 322 251 322 267 346.5 c 128,-1,39
 283 371 283 371 290 409 c 2,40,-1
 331 625 l 1,41,42
 317 636 317 636 299.5 636 c 128,-1,43
 282 636 282 636 264.5 614.5 c 128,-1,44
 247 593 247 593 234 556.5 c 128,-1,34
 221 520 221 520 213 472 c 128,-1,35
EndSplineSet
EndChar

StartChar: guillemotleft
Encoding: 171 171 109
Width: 540
GlyphClass: 2
Flags: HMW
LayerCount: 2
Fore
SplineSet
24 317 m 1,0,-1
 191 510 l 1,1,-1
 311 510 l 1,2,-1
 188 317 l 1,3,-1
 236 126 l 1,4,-1
 119 126 l 1,5,-1
 24 317 l 1,0,-1
253 317 m 1,6,-1
 420 510 l 1,7,-1
 540 510 l 1,8,-1
 417 317 l 1,9,-1
 465 126 l 1,10,-1
 348 126 l 1,11,-1
 253 317 l 1,6,-1
EndSplineSet
EndChar

StartChar: logicalnot
Encoding: 172 172 110
Width: 543
GlyphClass: 2
Flags: HMW
LayerCount: 2
Fore
SplineSet
12 218 m 0,0,1
 12 251 12 251 33 271.5 c 128,-1,2
 54 292 54 292 86 292 c 2,3,-1
 480 292 l 1,4,-1
 425 1 l 1,5,6
 417 -3 417 -3 380.5 -3 c 128,-1,7
 344 -3 344 -3 331 9.5 c 128,-1,8
 318 22 318 22 318 40 c 128,-1,9
 318 58 318 58 320 68 c 2,10,-1
 323 92 l 1,11,-1
 341 190 l 1,12,-1
 16 190 l 1,13,14
 12 203 12 203 12 218 c 0,0,1
EndSplineSet
EndChar

StartChar: registered
Encoding: 174 174 111
Width: 776
GlyphClass: 2
Flags: HMW
LayerCount: 2
Fore
SplineSet
27 244 m 0,0,1
 27 334 27 334 61 413 c 128,-1,2
 95 492 95 492 154 551 c 128,-1,3
 213 610 213 610 291.5 644.5 c 128,-1,4
 370 679 370 679 459 679 c 0,5,6
 597 679 597 679 673 611.5 c 128,-1,7
 749 544 749 544 749 422 c 0,8,9
 749 329 749 329 716 249.5 c 128,-1,10
 683 170 683 170 624.5 112.5 c 128,-1,11
 566 55 566 55 486 22 c 128,-1,12
 406 -11 406 -11 312 -11 c 0,13,14
 171 -11 171 -11 99 53.5 c 128,-1,15
 27 118 27 118 27 244 c 0,0,1
128 264 m 0,16,17
 128 158 128 158 180 108 c 128,-1,18
 232 58 232 58 344 58 c 0,19,20
 476.494382022 58 476.494382022 58 562.5 152.5 c 0,21,22
 648 246.444444444 648 246.444444444 648 394 c 0,23,24
 648 497 648 497 591.5 552.5 c 128,-1,25
 535 608 535 608 430 608 c 0,26,27
 366 608 366 608 310.5 581.5 c 128,-1,28
 255 555 255 555 214.5 509 c 0,29,30
 128 410.75308642 128 410.75308642 128 264 c 0,16,17
214 151 m 1,31,-1
 284 526 l 1,32,33
 318 530 318 530 432 530 c 0,34,35
 564 530 564 530 564 437 c 0,36,37
 564 392 564 392 537.5 360 c 128,-1,38
 511 328 511 328 466 318 c 1,39,40
 475 267 475 267 492.5 241.5 c 128,-1,41
 510 216 510 216 539 208 c 1,42,43
 534 177 534 177 512 159.5 c 128,-1,44
 490 142 490 142 457 142 c 0,45,46
 373.06 142 373.06 142 367 344 c 1,47,-1
 377 344 l 1,48,49
 459 349 459 349 459 433 c 0,50,51
 459 488 459 488 409 488 c 0,52,53
 403 488 403 488 383 486 c 1,54,-1
 323 151 l 1,55,-1
 214 151 l 1,31,-1
EndSplineSet
EndChar

StartChar: macron
Encoding: 175 175 112
Width: 355
GlyphClass: 2
Flags: HMW
LayerCount: 2
Fore
SplineSet
-34 618 m 1,0,1
 -37 628.5 -37 628.5 -36 651.75 c 128,-1,2
 -35 675 -35 675 -16.5 692.5 c 128,-1,3
 2 710 2 710 31 710 c 2,4,-1
 272 710 l 1,5,6
 276 698 276 698 276 676 c 128,-1,7
 276 654 276 654 257 636 c 128,-1,8
 238 618 238 618 200 618 c 2,9,-1
 -34 618 l 1,0,1
EndSplineSet
EndChar

StartChar: degree
Encoding: 176 176 113
Width: 390
GlyphClass: 2
Flags: HMW
LayerCount: 2
Fore
SplineSet
96.5 402.5 m 128,-1,1
 60 435 60 435 60 488 c 128,-1,2
 60 541 60 541 77 576 c 128,-1,3
 94 611 94 611 122.5 635 c 0,4,5
 180.6875 684 180.6875 684 265 684 c 0,6,7
 327 684 327 684 362.5 651.5 c 128,-1,8
 398 619 398 619 398 566.5 c 128,-1,9
 398 514 398 514 381.5 479 c 128,-1,10
 365 444 365 444 337 419.5 c 0,11,12
 280.428571429 370 280.428571429 370 195 370 c 0,13,0
 133 370 133 370 96.5 402.5 c 128,-1,1
171 544 m 128,-1,15
 164 522 164 522 164 495.5 c 128,-1,16
 164 469 164 469 175 449.5 c 128,-1,17
 186 430 186 430 205 430 c 128,-1,18
 224 430 224 430 240.5 439.5 c 128,-1,19
 257 449 257 449 269.5 465 c 0,20,21
 298 501.48 298 501.48 298 539.74 c 128,-1,22
 298 578 298 578 285.5 598.5 c 128,-1,23
 273 619 273 619 253 619 c 128,-1,24
 233 619 233 619 217.5 609 c 128,-1,25
 202 599 202 599 190 582.5 c 128,-1,14
 178 566 178 566 171 544 c 128,-1,15
EndSplineSet
EndChar

StartChar: plusminus
Encoding: 177 177 114
Width: 459
GlyphClass: 2
Flags: HMW
LayerCount: 2
Fore
SplineSet
-8 0 m 1,0,1
 -12 15 -12 15 -12 36.5 c 128,-1,2
 -12 58 -12 58 6 75 c 128,-1,3
 24 92 24 92 57 92 c 2,4,-1
 368 92 l 1,5,6
 373 74 373 74 373 61 c 0,7,8
 373 0 373 0 295 0 c 2,9,-1
 -8 0 l 1,0,1
28 271 m 0,10,11
 28 303 28 303 48.5 323.5 c 128,-1,12
 69 344 69 344 101 344 c 2,13,-1
 178 344 l 1,14,-1
 189 399 l 2,15,16
 196 430 196 430 217.5 448 c 128,-1,17
 239 466 239 466 266 466 c 128,-1,18
 293 466 293 466 311 459 c 1,19,-1
 290 344 l 1,20,-1
 413 344 l 1,21,-1
 416 328 l 2,22,23
 418 321 418 321 418 314 c 0,24,25
 418 247 418 247 339 247 c 2,26,-1
 270 247 l 1,27,-1
 257 179 l 2,28,29
 244.8 118 244.8 118 182 118 c 0,30,31
 158 118 158 118 137 125 c 1,32,-1
 160 247 l 1,33,-1
 32 247 l 1,34,35
 28 260 28 260 28 271 c 0,10,11
EndSplineSet
EndChar

StartChar: acute
Encoding: 180 180 117
Width: 310
GlyphClass: 2
Flags: HMW
LayerCount: 2
Fore
SplineSet
200 736 m 1,0,1
 236 721.6 236 721.6 236 670 c 0,2,3
 236 626.216216216 236 626.216216216 193.5 597.5 c 0,4,5
 159.169154229 574.303482587 159.169154229 574.303482587 108 565 c 2,6,-1
 -15 542 l 1,7,-1
 -36 590 l 1,8,-1
 200 736 l 1,0,1
EndSplineSet
EndChar

StartChar: mu
Encoding: 181 181 118
AltUni2: 0003bc.ffffffff.0
Width: 649
GlyphClass: 2
Flags: HMW
LayerCount: 2
Fore
SplineSet
352 42 m 1,0,1
 301.923076923 -20 301.923076923 -20 207 -20 c 1,2,-1
 179 -180 l 1,3,-1
 -22 -200 l 1,4,-1
 97 425 l 1,5,6
 97 465 97 465 57 465 c 1,7,8
 66.2804428044 498.409594096 66.2804428044 498.409594096 117.5 519.5 c 0,9,10
 143 530 143 530 176 530 c 128,-1,11
 209 530 209 530 228 523.5 c 128,-1,12
 247 517 247 517 261.5 505.5 c 0,13,14
 293 480.517241379 293 480.517241379 293 439 c 2,15,-1
 293 432 l 2,16,17
 293 429 293 429 292 425 c 2,18,-1
 232 108 l 2,19,20
 231 103 231 103 231 94 c 0,21,22
 231 48 231 48 271 48 c 0,23,24
 300 48 300 48 319.5 83 c 128,-1,25
 339 118 339 118 348 166 c 2,26,-1
 412 510 l 1,27,-1
 612 530 l 1,28,-1
 537 140 l 2,29,30
 535 132 535 132 535 124 c 2,31,-1
 535 110 l 2,32,33
 535 68.0769230769 535 68.0769230769 562.5 57.5 c 0,34,35
 569 55 569 55 574 55 c 1,36,37
 574 33.2058823529 574 33.2058823529 536 7.5 c 0,38,39
 495.347826087 -20 495.347826087 -20 453 -20 c 0,40,41
 397.25 -20 397.25 -20 367 13 c 0,42,43
 356 25 356 25 352 42 c 1,0,1
EndSplineSet
EndChar

StartChar: paragraph
Encoding: 182 182 119
Width: 727
GlyphClass: 2
Flags: HMW
LayerCount: 2
Fore
SplineSet
293 268 m 1,0,1
 256.571428571 253 256.571428571 253 192.285714286 253 c 128,-1,2
 128 253 128 253 90.5 292 c 128,-1,3
 53 331 53 331 53 396 c 128,-1,4
 53 461 53 461 75.5 512.5 c 128,-1,5
 98 564 98 564 138.5 600 c 0,6,7
 222.875 675 222.875 675 366 675 c 0,8,9
 423.875 675 423.875 675 467 660 c 1,10,-1
 334 -54 l 1,11,12
 315 -130 315 -130 271.5 -165 c 128,-1,13
 228 -200 228 -200 161.5 -200 c 0,14,15
 32 -200 32 -200 32 -124 c 2,16,-1
 32 -118 l 2,17,18
 32 -115 32 -115 35 -106 c 1,19,20
 68 -124 68 -124 128 -124 c 0,21,22
 167 -124 167 -124 197 -95.5 c 128,-1,23
 227 -67 227 -67 236 -20 c 2,24,-1
 293 268 l 1,0,1
739 601.5 m 128,-1,26
 720 583 720 583 686.25 583 c 128,-1,27
 652.5 583 652.5 583 635 588 c 1,28,-1
 527 0 l 1,29,-1
 417 -20 l 1,30,-1
 551 660 l 1,31,-1
 664 660 l 2,32,33
 729 660 729 660 763 664 c 1,34,25
 758 620 758 620 739 601.5 c 128,-1,26
EndSplineSet
EndChar

StartChar: periodcentered
Encoding: 183 183 120
Width: 268
GlyphClass: 2
Flags: HMW
LayerCount: 2
Fore
SplineSet
46 177 m 128,-1,1
 21 198 21 198 21 234.5 c 128,-1,2
 21 271 21 271 49 293 c 128,-1,3
 77 315 77 315 121 315 c 128,-1,4
 165 315 165 315 190 293.5 c 128,-1,5
 215 272 215 272 215 235.5 c 128,-1,6
 215 199 215 199 188 177.5 c 128,-1,7
 161 156 161 156 116 156 c 256,8,0
 71 156 71 156 46 177 c 128,-1,1
EndSplineSet
EndChar

StartChar: cedilla
Encoding: 184 184 121
Width: 480
GlyphClass: 2
Flags: HMW
LayerCount: 2
Fore
SplineSet
180 -59 m 1,0,1
 196 -57 196 -57 233.5 -57 c 128,-1,2
 271 -57 271 -57 302 -80 c 128,-1,3
 333 -103 333 -103 333 -137 c 0,4,5
 333 -191 333 -191 291.5 -224.5 c 128,-1,6
 250 -258 250 -258 182 -258 c 0,7,8
 137 -258 137 -258 111 -244 c 128,-1,9
 85 -230 85 -230 85 -206 c 128,-1,10
 85 -182 85 -182 103 -168 c 1,11,12
 122.2 -200 122.2 -200 170 -200 c 0,13,14
 199 -200 199 -200 214.5 -188.5 c 128,-1,15
 230 -177 230 -177 230 -157 c 0,16,17
 230 -110 230 -110 154 -110 c 0,18,19
 134 -110 134 -110 112 -112 c 1,20,-1
 149 11 l 1,21,-1
 201 11 l 1,22,-1
 180 -59 l 1,0,1
EndSplineSet
EndChar

StartChar: ordmasculine
Encoding: 186 186 123
Width: 473
GlyphClass: 2
Flags: HMW
LayerCount: 2
Fore
SplineSet
47 158 m 1,0,1
 43 178 43 178 43 181 c 0,2,3
 43 206 43 206 58 221 c 128,-1,4
 73 236 73 236 96 236 c 2,5,-1
 374 236 l 1,6,7
 378 226 378 226 378 208 c 128,-1,8
 378 190 378 190 363.5 174 c 128,-1,9
 349 158 349 158 318 158 c 2,10,-1
 47 158 l 1,0,1
105 320 m 128,-1,12
 70 360 70 360 70 419 c 128,-1,13
 70 478 70 478 83.5 522.5 c 128,-1,14
 97 567 97 567 125.5 601 c 0,15,16
 186.691176471 674 186.691176471 674 299 674 c 0,17,18
 410.262295082 674 410.262295082 674 442.5 588.5 c 0,19,20
 454 558 454 558 454 509 c 128,-1,21
 454 460 454 460 437.5 416.5 c 128,-1,22
 421 373 421 373 389.5 342.5 c 0,23,24
 324.950819672 280 324.950819672 280 214 280 c 0,25,11
 140 280 140 280 105 320 c 128,-1,12
213 463.5 m 128,-1,27
 206 420 206 420 206 384 c 128,-1,28
 206 348 206 348 212.5 335 c 128,-1,29
 219 322 219 322 233.5 322 c 128,-1,30
 248 322 248 322 264 346 c 128,-1,31
 280 370 280 370 292 407 c 0,32,33
 319 490.25 319 490.25 319 572 c 0,34,35
 319 604 319 604 314.5 618 c 128,-1,36
 310 632 310 632 293.5 632 c 128,-1,37
 277 632 277 632 260.5 607 c 128,-1,38
 244 582 244 582 232 544.5 c 128,-1,26
 220 507 220 507 213 463.5 c 128,-1,27
EndSplineSet
EndChar

StartChar: guillemotright
Encoding: 187 187 124
Width: 539
GlyphClass: 2
Flags: HMW
LayerCount: 2
Fore
SplineSet
-1 126 m 1,0,-1
 118 317 l 1,1,-1
 67 510 l 1,2,-1
 187 510 l 1,3,-1
 282 317 l 1,4,-1
 116 126 l 1,5,-1
 -1 126 l 1,0,-1
228 126 m 1,6,-1
 347 317 l 1,7,-1
 296 510 l 1,8,-1
 416 510 l 1,9,-1
 511 317 l 1,10,-1
 345 126 l 1,11,-1
 228 126 l 1,6,-1
EndSplineSet
EndChar

StartChar: onequarter
Encoding: 188 188 125
Width: 815
GlyphClass: 2
Flags: HMW
LayerCount: 2
Fore
SplineSet
84 285 m 2,0,1
 62 285 62 285 53 282 c 1,2,3
 51 287 51 287 51 292 c 2,4,-1
 51 302 l 2,5,6
 51 325 51 325 63.5 339 c 128,-1,7
 76 353 76 353 94 353 c 2,8,-1
 251 353 l 2,9,10
 278 353 278 353 299 359 c 1,11,12
 307 347 307 347 307 326.5 c 128,-1,13
 307 306 307 306 292.5 293.5 c 128,-1,14
 278 281 278 281 255 281 c 2,15,-1
 84 285 l 2,0,1
70 608 m 1,16,17
 151.618625277 620.696230599 151.618625277 620.696230599 276 679 c 1,18,-1
 293 657 l 1,19,-1
 227 303 l 1,20,-1
 113 303 l 1,21,-1
 171 569 l 1,22,23
 157 552 157 552 120 552 c 0,24,25
 102 552 102 552 87 568.5 c 128,-1,26
 72 585 72 585 70 608 c 1,16,17
190 -62 m 0,27,28
 190 -52 190 -52 196 -37 c 2,29,-1
 523 718 l 1,30,31
 533 720 533 720 553.5 720 c 128,-1,32
 574 720 574 720 586.5 714.5 c 128,-1,33
 599 709 599 709 599 693 c 128,-1,34
 599 677 599 677 590 652 c 1,35,-1
 267 -88 l 1,36,37
 261 -91 261 -91 236 -91 c 0,38,39
 190 -91 190 -91 190 -62 c 0,27,28
742 161 m 1,40,41
 753 143.4 753 143.4 753 120.7 c 0,42,43
 753 72.7 753 72.7 677 67 c 1,44,-1
 667 0 l 1,45,46
 651 -12 651 -12 622 -12 c 0,47,48
 574 -12 574 -12 574 30 c 2,49,-1
 574 33 l 2,50,51
 574 38 574 38 575 43 c 2,52,-1
 579 69 l 1,53,54
 507.291208791 73.6263736264 507.291208791 73.6263736264 448 88 c 1,55,-1
 445 153 l 1,56,-1
 657 388 l 1,57,-1
 740 380 l 1,58,59
 713.650537634 270.548387097 713.650537634 270.548387097 691 147 c 1,60,61
 724.741573034 150.213483146 724.741573034 150.213483146 742 161 c 1,40,41
508 151 m 1,62,63
 558 146 558 146 593 146 c 1,64,65
 611 230 611 230 632 293 c 1,66,-1
 508 151 l 1,62,63
EndSplineSet
EndChar

StartChar: onehalf
Encoding: 189 189 126
Width: 816
GlyphClass: 2
Flags: HMW
LayerCount: 2
Fore
SplineSet
84 285 m 2,0,1
 62 285 62 285 53 282 c 1,2,3
 51 287 51 287 51 292 c 2,4,-1
 51 302 l 2,5,6
 51 325 51 325 63.5 339 c 128,-1,7
 76 353 76 353 94 353 c 2,8,-1
 251 353 l 2,9,10
 278 353 278 353 299 359 c 1,11,12
 307 347 307 347 307 326.5 c 128,-1,13
 307 306 307 306 292.5 293.5 c 128,-1,14
 278 281 278 281 255 281 c 2,15,-1
 84 285 l 2,0,1
70 608 m 1,16,17
 151.618625277 620.696230599 151.618625277 620.696230599 276 679 c 1,18,-1
 293 657 l 1,19,-1
 227 303 l 1,20,-1
 113 303 l 1,21,-1
 171 569 l 1,22,23
 157 552 157 552 120 552 c 0,24,25
 102 552 102 552 87 568.5 c 128,-1,26
 72 585 72 585 70 608 c 1,16,17
190 -62 m 0,27,28
 190 -52 190 -52 196 -37 c 2,29,-1
 523 718 l 1,30,31
 533 720 533 720 553.5 720 c 128,-1,32
 574 720 574 720 586.5 714.5 c 128,-1,33
 599 709 599 709 599 693 c 128,-1,34
 599 677 599 677 590 652 c 1,35,-1
 267 -88 l 1,36,37
 261 -91 261 -91 236 -91 c 0,38,39
 190 -91 190 -91 190 -62 c 0,27,28
724 109 m 1,40,41
 740 97.5714285714 740 97.5714285714 740 60.7857142857 c 0,42,43
 740 -11 740 -11 608 -11 c 0,44,45
 549.363636364 -11 549.363636364 -11 463 14 c 1,46,-1
 459 84 l 1,47,-1
 490 106 l 1,48,-1
 531 138 l 1,49,50
 580.5 178.5 580.5 178.5 612.25 209.75 c 128,-1,51
 644 241 644 241 644 271 c 0,52,53
 644 307 644 307 602 307 c 0,54,55
 578 307 578 307 556 293 c 128,-1,56
 534 279 534 279 524 257 c 1,57,58
 510 258 510 258 500.5 270 c 128,-1,59
 491 282 491 282 491 299.5 c 128,-1,60
 491 317 491 317 502 333 c 128,-1,61
 513 349 513 349 532 361 c 0,62,63
 573.166666667 387 573.166666667 387 631.583333333 387 c 128,-1,64
 690 387 690 387 722.5 362.5 c 128,-1,65
 755 338 755 338 755 300.5 c 128,-1,66
 755 263 755 263 739.5 234 c 128,-1,67
 724 205 724 205 682 175 c 2,68,-1
 583 107 l 2,69,70
 563 94 563 94 536 78 c 1,71,72
 572 74 572 74 605 74 c 128,-1,73
 638 74 638 74 674.5 84 c 128,-1,74
 711 94 711 94 724 109 c 1,40,41
EndSplineSet
EndChar

StartChar: threequarters
Encoding: 190 190 127
Width: 820
GlyphClass: 2
Flags: HMW
LayerCount: 2
Fore
SplineSet
235 493 m 1,0,1
 311 473 311 473 311 399 c 0,2,3
 311 344.888888889 311 344.888888889 265.5 309.5 c 0,4,5
 217.285714286 272 217.285714286 272 137 272 c 0,6,7
 89 272 89 272 61 290.5 c 128,-1,8
 33 309 33 309 33 339 c 0,9,10
 33 369.6 33 369.6 56 388 c 1,11,12
 77 346 77 346 132 346 c 0,13,14
 161 346 161 346 178 360.5 c 128,-1,15
 195 375 195 375 195 401 c 0,16,17
 195 453 195 453 124 453 c 1,18,-1
 134 505 l 1,19,20
 218 519 218 519 218 561 c 0,21,22
 218 596 218 596 176 596 c 128,-1,23
 134 596 134 596 100 560 c 1,24,25
 80 564 80 564 80 594 c 0,26,27
 80 627.775 80 627.775 123 652.5 c 0,28,29
 165.608695652 677 165.608695652 677 217.804347826 677 c 128,-1,30
 270 677 270 677 299 654 c 128,-1,31
 328 631 328 631 328 597.5 c 128,-1,32
 328 564 328 564 302.5 536 c 128,-1,33
 277 508 277 508 235 493 c 1,0,1
197 -62 m 0,34,35
 197 -52 197 -52 203 -37 c 2,36,-1
 530 718 l 1,37,38
 540 720 540 720 554 720 c 0,39,40
 594 720 594 720 602.5 706.5 c 0,41,42
 605.711111111 701.4 605.711111111 701.4 605.711111111 689.455555556 c 128,-1,43
 605.711111111 677.511111111 605.711111111 677.511111111 597 652 c 1,44,-1
 274 -88 l 1,45,46
 268 -91 268 -91 243 -91 c 0,47,48
 197 -91 197 -91 197 -62 c 0,34,35
749 161 m 1,49,50
 760 143.4 760 143.4 760 120.7 c 0,51,52
 760 72.7 760 72.7 684 67 c 1,53,-1
 674 0 l 1,54,55
 659 -12 659 -12 635 -12 c 2,56,-1
 629 -12 l 2,57,58
 581 -12 581 -12 581 30 c 2,59,-1
 581 33 l 2,60,61
 581 38 581 38 582 43 c 2,62,-1
 586 69 l 1,63,64
 514.291208791 73.6263736264 514.291208791 73.6263736264 455 88 c 1,65,-1
 452 153 l 1,66,-1
 664 388 l 1,67,-1
 668 388 l 1,68,-1
 747 380 l 1,69,70
 720.650537634 270.548387097 720.650537634 270.548387097 698 147 c 1,71,72
 731.741573034 150.213483146 731.741573034 150.213483146 749 161 c 1,49,50
515 151 m 1,73,74
 565 146 565 146 600 146 c 1,75,76
 618 230 618 230 639 293 c 1,77,-1
 515 151 l 1,73,74
EndSplineSet
EndChar

StartChar: questiondown
Encoding: 191 191 128
Width: 519
GlyphClass: 2
Flags: HMW
LayerCount: 2
Fore
SplineSet
251 31 m 1,0,1
 273 37 273 37 317 37 c 128,-1,2
 361 37 361 37 393 19 c 128,-1,3
 425 1 425 1 425 -31 c 128,-1,4
 425 -63 425 -63 409.5 -87.5 c 128,-1,5
 394 -112 394 -112 361.5 -130.5 c 0,6,7
 292.108108108 -170 292.108108108 -170 173.054054054 -170 c 128,-1,8
 54 -170 54 -170 7 -137 c 128,-1,9
 -40 -104 -40 -104 -40 -48 c 0,10,11
 -40 38.3846153846 -40 38.3846153846 44 103 c 0,12,13
 70 123 70 123 101 143 c 2,14,-1
 292 267 l 2,15,16
 331 293 331 293 331 331 c 1,17,18
 360 331 360 331 379 306 c 128,-1,19
 398 281 398 281 398 246 c 0,20,21
 398 166 398 166 322 119 c 2,22,-1
 209 49 l 1,23,24
 158.134328358 15.0895522388 158.134328358 15.0895522388 137 -28.5 c 0,25,26
 129 -45 129 -45 129 -64.5 c 0,27,28
 129 -110 129 -110 175 -110 c 0,29,30
 211.461538462 -110 211.461538462 -110 236 -81 c 0,31,32
 257.821621622 -55.2108108108 257.821621622 -55.2108108108 258.910810811 -21.1054054054 c 128,-1,33
 260 13 260 13 251 31 c 1,0,1
259 451 m 256,34,35
 259 489 259 489 287.5 509.5 c 128,-1,36
 316 530 316 530 358 530 c 256,37,38
 400 530 400 530 426.5 509.5 c 128,-1,39
 453 489 453 489 453 451 c 256,40,41
 453 413 453 413 423.5 392 c 128,-1,42
 394 371 394 371 352 371 c 256,43,44
 310 371 310 371 284.5 392 c 128,-1,45
 259 413 259 413 259 451 c 256,34,35
EndSplineSet
EndChar

StartChar: Agrave
Encoding: 192 192 129
Width: 607
GlyphClass: 2
Flags: HMW
LayerCount: 2
Fore
SplineSet
456 -20 m 0,0,1
 328.133333333 -20 328.133333333 -20 316 162 c 1,2,-1
 144 162 l 1,3,4
 125 116 125 116 110 76 c 1,5,-1
 84 0 l 1,6,-1
 -56 0 l 1,7,-1
 259 660 l 1,8,-1
 474 660 l 1,9,-1
 516 174 l 1,10,11
 526.257270694 69.3758389262 526.257270694 69.3758389262 566 38 c 1,12,13
 537 -20 537 -20 456 -20 c 0,0,1
175 235 m 1,14,-1
 313 235 l 1,15,-1
 301 492 l 1,16,-1
 301 519 l 1,17,-1
 230 362 l 1,18,-1
 175 235 l 1,14,-1
212 813.5 m 0,19,20
 212 842 212 842 240 862 c 1,21,-1
 485 760 l 1,22,-1
 473 711 l 1,23,-1
 354 715 l 2,24,25
 212 720.259259259 212 720.259259259 212 813.5 c 0,19,20
EndSplineSet
EndChar

StartChar: Aacute
Encoding: 193 193 130
Width: 607
GlyphClass: 2
Flags: HMW
LayerCount: 2
Fore
SplineSet
456 -20 m 0,0,1
 328.133333333 -20 328.133333333 -20 316 162 c 1,2,-1
 144 162 l 1,3,4
 125 116 125 116 110 76 c 1,5,-1
 84 0 l 1,6,-1
 -56 0 l 1,7,-1
 259 660 l 1,8,-1
 474 660 l 1,9,-1
 516 174 l 1,10,11
 526.257270694 69.3758389262 526.257270694 69.3758389262 566 38 c 1,12,13
 537 -20 537 -20 456 -20 c 0,0,1
175 235 m 1,14,-1
 313 235 l 1,15,-1
 301 492 l 1,16,-1
 301 519 l 1,17,-1
 230 362 l 1,18,-1
 175 235 l 1,14,-1
263 759 m 1,19,-1
 508 861 l 1,20,21
 536 841 536 841 536 812.5 c 128,-1,22
 536 784 536 784 524.5 766.5 c 128,-1,23
 513 749 513 749 493.5 737.5 c 0,24,25
 457.497520661 716.267768595 457.497520661 716.267768595 394 714 c 2,26,-1
 275 710 l 1,27,-1
 263 759 l 1,19,-1
EndSplineSet
EndChar

StartChar: Acircumflex
Encoding: 194 194 131
Width: 607
GlyphClass: 2
Flags: HMW
LayerCount: 2
Fore
SplineSet
456 -20 m 0,0,1
 328.133333333 -20 328.133333333 -20 316 162 c 1,2,-1
 144 162 l 1,3,4
 125 116 125 116 110 76 c 1,5,-1
 84 0 l 1,6,-1
 -56 0 l 1,7,-1
 259 660 l 1,8,-1
 474 660 l 1,9,-1
 516 174 l 1,10,11
 526.257270694 69.3758389262 526.257270694 69.3758389262 566 38 c 1,12,13
 537 -20 537 -20 456 -20 c 0,0,1
175 235 m 1,14,-1
 313 235 l 1,15,-1
 301 492 l 1,16,-1
 301 519 l 1,17,-1
 230 362 l 1,18,-1
 175 235 l 1,14,-1
213 750 m 1,19,-1
 406 857 l 1,20,-1
 542 753 l 1,21,-1
 498 700 l 1,22,-1
 383 749 l 1,23,-1
 238 695 l 1,24,-1
 213 750 l 1,19,-1
EndSplineSet
EndChar

StartChar: Atilde
Encoding: 195 195 132
Width: 607
GlyphClass: 2
Flags: HMW
LayerCount: 2
Fore
SplineSet
316 162 m 1,0,1
 328.133333333 -20 328.133333333 -20 456 -20 c 0,2,3
 537 -20 537 -20 566 38 c 1,4,5
 526.257270694 69.3758389262 526.257270694 69.3758389262 516 174 c 1,6,-1
 474 660 l 1,7,-1
 259 660 l 1,8,-1
 -56 0 l 1,9,-1
 84 0 l 1,10,-1
 110 76 l 1,11,12
 125 116 125 116 144 162 c 1,13,-1
 316 162 l 1,0,1
175 235 m 1,14,-1
 230 362 l 1,15,-1
 301 519 l 1,16,-1
 301 492 l 1,17,-1
 313 235 l 1,18,-1
 175 235 l 1,14,-1
267 728 m 0,19,20
 225.5 728 225.5 728 200 711 c 1,21,22
 180 740 180 740 180 770 c 128,-1,23
 180 800 180 800 205.5 817.5 c 128,-1,24
 231 835 231 835 279 835 c 0,25,26
 315.142857143 835 315.142857143 835 366.571428571 829 c 0,27,28
 460.857142857 818 460.857142857 818 496.428571429 818 c 128,-1,29
 532 818 532 818 549 835 c 1,30,31
 568 812.545454545 568 812.545454545 568 780.272727273 c 128,-1,32
 568 748 568 748 542.5 729 c 128,-1,33
 517 710 517 710 472 710 c 0,34,35
 454 710 454 710 425 713 c 2,36,-1
 366 719 l 2,37,38
 336 722 336 722 309 725 c 128,-1,39
 282 728 282 728 267 728 c 0,19,20
EndSplineSet
EndChar

StartChar: Adieresis
Encoding: 196 196 133
Width: 607
GlyphClass: 2
Flags: HMW
LayerCount: 2
Fore
SplineSet
456 -20 m 0,0,1
 328.133333333 -20 328.133333333 -20 316 162 c 1,2,-1
 144 162 l 1,3,4
 125 116 125 116 110 76 c 1,5,-1
 84 0 l 1,6,-1
 -56 0 l 1,7,-1
 259 660 l 1,8,-1
 474 660 l 1,9,-1
 516 174 l 1,10,11
 526.257270694 69.3758389262 526.257270694 69.3758389262 566 38 c 1,12,13
 537 -20 537 -20 456 -20 c 0,0,1
175 235 m 1,14,-1
 313 235 l 1,15,-1
 301 492 l 1,16,-1
 301 519 l 1,17,-1
 230 362 l 1,18,-1
 175 235 l 1,14,-1
217 725 m 128,-1,20
 194 742 194 742 194 773.5 c 128,-1,21
 194 805 194 805 219 822 c 128,-1,22
 244 839 244 839 279.5 839 c 128,-1,23
 315 839 315 839 336.5 822 c 128,-1,24
 358 805 358 805 358 773.5 c 128,-1,25
 358 742 358 742 334 725 c 128,-1,26
 310 708 310 708 275 708 c 256,27,19
 240 708 240 708 217 725 c 128,-1,20
403.5 725 m 128,-1,29
 381 742 381 742 381 773.5 c 128,-1,30
 381 805 381 805 405.5 822 c 128,-1,31
 430 839 430 839 465.5 839 c 128,-1,32
 501 839 501 839 523 822 c 128,-1,33
 545 805 545 805 545 773.5 c 128,-1,34
 545 742 545 742 520.5 725 c 128,-1,35
 496 708 496 708 461 708 c 256,36,28
 426 708 426 708 403.5 725 c 128,-1,29
EndSplineSet
EndChar

StartChar: Aring
Encoding: 197 197 134
Width: 607
GlyphClass: 2
Flags: HMW
LayerCount: 2
Fore
SplineSet
456 -20 m 0,0,1
 328.133333333 -20 328.133333333 -20 316 162 c 1,2,-1
 144 162 l 1,3,4
 125 116 125 116 110 76 c 1,5,-1
 84 0 l 1,6,-1
 -56 0 l 1,7,-1
 259 660 l 1,8,-1
 474 660 l 1,9,-1
 516 174 l 1,10,11
 526.257270694 69.3758389262 526.257270694 69.3758389262 566 38 c 1,12,13
 537 -20 537 -20 456 -20 c 0,0,1
175 235 m 1,14,-1
 313 235 l 1,15,-1
 301 492 l 1,16,-1
 301 519 l 1,17,-1
 230 362 l 1,18,-1
 175 235 l 1,14,-1
293 707.5 m 128,-1,20
 267 725 267 725 267 752.5 c 128,-1,21
 267 780 267 780 278.5 798 c 128,-1,22
 290 816 290 816 309 828.5 c 0,23,24
 347.76 854 347.76 854 397.88 854 c 0,25,26
 498 854 498 854 498 787 c 0,27,28
 498 742.864864865 498 742.864864865 457.5 715.5 c 0,29,30
 419.76 690 419.76 690 369.38 690 c 128,-1,19
 319 690 319 690 293 707.5 c 128,-1,20
340 760 m 0,31,32
 340 726 340 726 370 726 c 0,33,34
 392 726 392 726 410 742 c 128,-1,35
 428 758 428 758 428 776.5 c 0,36,37
 428 815 428 815 395 815 c 0,38,39
 372 815 372 815 356 798.5 c 128,-1,40
 340 782 340 782 340 760 c 0,31,32
EndSplineSet
EndChar

StartChar: AE
Encoding: 198 198 135
Width: 786
GlyphClass: 2
Flags: HMW
LayerCount: 2
Fore
SplineSet
716 90 m 0,0,1
 716 -20 716 -20 539 -20 c 0,2,3
 389.104477612 -20 389.104477612 -20 345 78.5 c 0,4,5
 330 112 330 112 330 158 c 2,6,-1
 330 165 l 2,7,8
 330 169 330 169 331 177 c 1,9,-1
 174 177 l 1,10,-1
 91 0 l 1,11,-1
 -65 0 l 1,12,-1
 305 660 l 1,13,-1
 800 660 l 1,14,15
 800.380952381 654.285714286 800.380952381 654.285714286 800.380952381 639.904761905 c 128,-1,16
 800.380952381 625.523809524 800.380952381 625.523809524 792.69047619 604.261904762 c 128,-1,17
 785 583 785 583 769 567 c 0,18,19
 737 535 737 535 687.5 535 c 128,-1,20
 638 535 638 535 610.5 543.5 c 128,-1,21
 583 552 583 552 561 562 c 1,22,-1
 537 387 l 1,23,-1
 726 387 l 1,24,-1
 726 380 l 2,25,26
 726 330 726 330 699 302.5 c 128,-1,27
 672 275 672 275 625 275 c 128,-1,28
 578 275 578 275 535.5 292.5 c 0,29,30
 527 296 527 296 525 298 c 1,31,-1
 523 287 l 2,32,33
 512 223.2 512 223.2 512 169 c 0,34,35
 512 143 512 143 526.5 125 c 128,-1,36
 541 107 541 107 578 107 c 128,-1,37
 615 107 615 107 645.5 120.5 c 128,-1,38
 676 134 676 134 695 154 c 1,39,40
 716 128 716 128 716 90 c 0,0,1
212 254 m 1,41,-1
 341 254 l 1,42,-1
 385 562 l 1,43,44
 337 484 337 484 294 408 c 1,45,-1
 212 254 l 1,41,-1
EndSplineSet
EndChar

StartChar: Egrave
Encoding: 200 200 137
Width: 538
GlyphClass: 2
Flags: HMW
LayerCount: 2
Fore
SplineSet
444 154 m 1,0,1
 463 130.25 463 130.25 463 91 c 0,2,3
 463 37 463 37 423 8.5 c 128,-1,4
 383 -20 383 -20 320 -20 c 0,5,6
 284.444444444 -20 284.444444444 -20 228.722222222 -11.5 c 0,7,8
 120.555555556 5 120.555555556 5 87.7777777778 5 c 128,-1,9
 55 5 55 5 42 3.5 c 128,-1,10
 29 2 29 2 8 0 c 1,11,-1
 131 660 l 1,12,-1
 562 660 l 1,13,14
 562 599 562 599 532.5 567 c 128,-1,15
 503 535 503 535 445.2 535 c 128,-1,16
 387.4 535 387.4 535 328 562 c 1,17,-1
 297 387 l 1,18,-1
 475 387 l 1,19,20
 475 334 475 334 449 304.5 c 128,-1,21
 423 275 423 275 379.5 275 c 128,-1,22
 336 275 336 275 309 285 c 128,-1,23
 282 295 282 295 279 298 c 1,24,-1
 243 109 l 1,25,26
 267 106 267 106 311.5 106 c 0,27,28
 388.8 106 388.8 106 444 154 c 1,0,1
170 812.5 m 0,29,30
 170 841 170 841 198 861 c 1,31,-1
 443 759 l 1,32,-1
 431 710 l 1,33,-1
 312 714 l 2,34,35
 170 719.259259259 170 719.259259259 170 812.5 c 0,29,30
EndSplineSet
EndChar

StartChar: Eacute
Encoding: 201 201 138
Width: 538
GlyphClass: 2
Flags: HMW
LayerCount: 2
Fore
SplineSet
444 154 m 1,0,1
 463 130.25 463 130.25 463 91 c 0,2,3
 463 37 463 37 423 8.5 c 128,-1,4
 383 -20 383 -20 320 -20 c 0,5,6
 284.444444444 -20 284.444444444 -20 228.722222222 -11.5 c 0,7,8
 120.555555556 5 120.555555556 5 87.7777777778 5 c 128,-1,9
 55 5 55 5 42 3.5 c 128,-1,10
 29 2 29 2 8 0 c 1,11,-1
 131 660 l 1,12,-1
 562 660 l 1,13,14
 562 599 562 599 532.5 567 c 128,-1,15
 503 535 503 535 445.2 535 c 128,-1,16
 387.4 535 387.4 535 328 562 c 1,17,-1
 297 387 l 1,18,-1
 475 387 l 1,19,20
 475 334 475 334 449 304.5 c 128,-1,21
 423 275 423 275 379.5 275 c 128,-1,22
 336 275 336 275 309 285 c 128,-1,23
 282 295 282 295 279 298 c 1,24,-1
 243 109 l 1,25,26
 267 106 267 106 311.5 106 c 0,27,28
 388.8 106 388.8 106 444 154 c 1,0,1
496 861 m 1,29,30
 524 841 524 841 524 812 c 128,-1,31
 524 783 524 783 512.5 765.5 c 128,-1,32
 501 748 501 748 481.5 736.5 c 0,33,34
 447.302479339 716.332231405 447.302479339 716.332231405 382 714 c 2,35,-1
 263 710 l 1,36,-1
 251 759 l 1,37,-1
 496 861 l 1,29,30
EndSplineSet
EndChar

StartChar: Ecircumflex
Encoding: 202 202 139
Width: 538
GlyphClass: 2
Flags: HMW
LayerCount: 2
Fore
SplineSet
444 154 m 1,0,1
 463 130.25 463 130.25 463 91 c 0,2,3
 463 37 463 37 423 8.5 c 128,-1,4
 383 -20 383 -20 320 -20 c 0,5,6
 284.444444444 -20 284.444444444 -20 228.722222222 -11.5 c 0,7,8
 120.555555556 5 120.555555556 5 87.7777777778 5 c 128,-1,9
 55 5 55 5 42 3.5 c 128,-1,10
 29 2 29 2 8 0 c 1,11,-1
 131 660 l 1,12,-1
 562 660 l 1,13,14
 562 599 562 599 532.5 567 c 128,-1,15
 503 535 503 535 445.2 535 c 128,-1,16
 387.4 535 387.4 535 328 562 c 1,17,-1
 297 387 l 1,18,-1
 475 387 l 1,19,20
 475 334 475 334 449 304.5 c 128,-1,21
 423 275 423 275 379.5 275 c 128,-1,22
 336 275 336 275 309 285 c 128,-1,23
 282 295 282 295 279 298 c 1,24,-1
 243 109 l 1,25,26
 267 106 267 106 311.5 106 c 0,27,28
 388.8 106 388.8 106 444 154 c 1,0,1
186 749 m 1,29,-1
 379 856 l 1,30,-1
 515 752 l 1,31,-1
 471 699 l 1,32,-1
 356 748 l 1,33,-1
 211 694 l 1,34,-1
 186 749 l 1,29,-1
EndSplineSet
EndChar

StartChar: Edieresis
Encoding: 203 203 140
Width: 538
GlyphClass: 2
Flags: HMW
LayerCount: 2
Fore
SplineSet
444 154 m 1,0,1
 463 130.25 463 130.25 463 91 c 0,2,3
 463 37 463 37 423 8.5 c 128,-1,4
 383 -20 383 -20 320 -20 c 0,5,6
 284.444444444 -20 284.444444444 -20 228.722222222 -11.5 c 0,7,8
 120.555555556 5 120.555555556 5 87.7777777778 5 c 128,-1,9
 55 5 55 5 42 3.5 c 128,-1,10
 29 2 29 2 8 0 c 1,11,-1
 131 660 l 1,12,-1
 562 660 l 1,13,14
 562 599 562 599 532.5 567 c 128,-1,15
 503 535 503 535 445.2 535 c 128,-1,16
 387.4 535 387.4 535 328 562 c 1,17,-1
 297 387 l 1,18,-1
 475 387 l 1,19,20
 475 334 475 334 449 304.5 c 128,-1,21
 423 275 423 275 379.5 275 c 128,-1,22
 336 275 336 275 309 285 c 128,-1,23
 282 295 282 295 279 298 c 1,24,-1
 243 109 l 1,25,26
 267 106 267 106 311.5 106 c 0,27,28
 388.8 106 388.8 106 444 154 c 1,0,1
204 717 m 128,-1,30
 180 734 180 734 180 765.5 c 128,-1,31
 180 797 180 797 206 814 c 128,-1,32
 232 831 232 831 269.5 831 c 128,-1,33
 307 831 307 831 329.5 814 c 128,-1,34
 352 797 352 797 352 765.5 c 128,-1,35
 352 734 352 734 327 717 c 128,-1,36
 302 700 302 700 265 700 c 256,37,29
 228 700 228 700 204 717 c 128,-1,30
405.5 717 m 128,-1,39
 382 734 382 734 382 765.5 c 128,-1,40
 382 797 382 797 407.5 814 c 128,-1,41
 433 831 433 831 470.5 831 c 128,-1,42
 508 831 508 831 531 814 c 128,-1,43
 554 797 554 797 554 765.5 c 128,-1,44
 554 734 554 734 528.5 717 c 128,-1,45
 503 700 503 700 466 700 c 256,46,38
 429 700 429 700 405.5 717 c 128,-1,39
EndSplineSet
EndChar

StartChar: Igrave
Encoding: 204 204 141
Width: 358
GlyphClass: 2
Flags: HMW
LayerCount: 2
Fore
SplineSet
6 0 m 1,0,-1
 133 660 l 1,1,-1
 353 660 l 1,2,-1
 224 0 l 1,3,-1
 6 0 l 1,0,-1
103 812.5 m 0,4,5
 103 841 103 841 131 861 c 1,6,-1
 376 759 l 1,7,-1
 364 710 l 1,8,-1
 245 714 l 2,9,10
 103 719.259259259 103 719.259259259 103 812.5 c 0,4,5
EndSplineSet
EndChar

StartChar: Iacute
Encoding: 205 205 142
Width: 358
GlyphClass: 2
Flags: HMW
LayerCount: 2
Fore
SplineSet
6 0 m 1,0,-1
 133 660 l 1,1,-1
 353 660 l 1,2,-1
 224 0 l 1,3,-1
 6 0 l 1,0,-1
377 861 m 1,4,5
 405 841 405 841 405 812 c 128,-1,6
 405 783 405 783 393 765.5 c 128,-1,7
 381 748 381 748 361.5 736.5 c 0,8,9
 327.238016529 716.294214876 327.238016529 716.294214876 263 714 c 2,10,-1
 144 710 l 1,11,-1
 132 759 l 1,12,-1
 377 861 l 1,4,5
EndSplineSet
EndChar

StartChar: Icircumflex
Encoding: 206 206 143
Width: 358
GlyphClass: 2
Flags: HMW
LayerCount: 2
Fore
SplineSet
6 0 m 1,0,-1
 133 660 l 1,1,-1
 353 660 l 1,2,-1
 224 0 l 1,3,-1
 6 0 l 1,0,-1
97 749 m 1,4,-1
 290 856 l 1,5,-1
 426 752 l 1,6,-1
 382 699 l 1,7,-1
 267 748 l 1,8,-1
 122 694 l 1,9,-1
 97 749 l 1,4,-1
EndSplineSet
EndChar

StartChar: Idieresis
Encoding: 207 207 144
Width: 358
GlyphClass: 2
Flags: HMW
LayerCount: 2
Fore
SplineSet
6 0 m 1,0,-1
 133 660 l 1,1,-1
 353 660 l 1,2,-1
 224 0 l 1,3,-1
 6 0 l 1,0,-1
105 717 m 128,-1,5
 82 734 82 734 82 765.5 c 128,-1,6
 82 797 82 797 107 814 c 128,-1,7
 132 831 132 831 167.5 831 c 128,-1,8
 203 831 203 831 224.5 814 c 128,-1,9
 246 797 246 797 246 765.5 c 128,-1,10
 246 734 246 734 222 717 c 128,-1,11
 198 700 198 700 163 700 c 256,12,4
 128 700 128 700 105 717 c 128,-1,5
291.5 717 m 128,-1,14
 269 734 269 734 269 765.5 c 128,-1,15
 269 797 269 797 293.5 814 c 128,-1,16
 318 831 318 831 353.5 831 c 128,-1,17
 389 831 389 831 411 814 c 128,-1,18
 433 797 433 797 433 765.5 c 128,-1,19
 433 734 433 734 408.5 717 c 128,-1,20
 384 700 384 700 349 700 c 256,21,13
 314 700 314 700 291.5 717 c 128,-1,14
EndSplineSet
EndChar

StartChar: Eth
Encoding: 208 208 145
Width: 723
GlyphClass: 2
Flags: HMW
LayerCount: 2
Fore
SplineSet
411 387 m 1,0,1
 416 369.5 416 369.5 416 357 c 0,2,3
 416 325 416 325 393.5 305 c 128,-1,4
 371 285 371 285 333 285 c 2,5,-1
 -10 285 l 1,6,7
 -14 298 -14 298 -14 322 c 128,-1,8
 -14 346 -14 346 6.5 366.5 c 128,-1,9
 27 387 27 387 60 387 c 2,10,-1
 411 387 l 1,0,1
689 415 m 0,11,12
 689 -11 689 -11 227 -11 c 0,13,14
 153.4 -11 153.4 -11 31 7 c 1,15,-1
 144 598 l 2,16,17
 151 638 151 638 156 661 c 1,18,19
 255 672 255 672 349 672 c 128,-1,20
 443 672 443 672 505 658 c 128,-1,21
 567 644 567 644 608 613 c 0,22,23
 689 551.756097561 689 551.756097561 689 415 c 0,11,12
483 452 m 0,24,25
 483 601 483 601 376 601 c 2,26,-1
 366 601 l 2,27,28
 361 601 361 601 356 600 c 1,29,-1
 253 63 l 1,30,31
 257 61 257 61 261 61 c 2,32,-1
 269 61 l 2,33,34
 306 61 306 61 344.5 84 c 128,-1,35
 383 107 383 107 413.5 154.5 c 0,36,37
 483 262.737704918 483 262.737704918 483 452 c 0,24,25
EndSplineSet
EndChar

StartChar: Ograve
Encoding: 210 210 147
Width: 710
GlyphClass: 2
Flags: HMW
LayerCount: 2
Fore
SplineSet
32 244 m 0,0,1
 32 432.886597938 32 432.886597938 129.5 552.5 c 0,2,3
 234.243697479 681 234.243697479 681 415 681 c 0,4,5
 546 681 546 681 612 617.5 c 128,-1,6
 678 554 678 554 678 420 c 0,7,8
 678 215.56 678 215.56 574 97 c 0,9,10
 471.368421053 -20 471.368421053 -20 298 -20 c 0,11,12
 163 -20 163 -20 97.5 47.5 c 128,-1,13
 32 115 32 115 32 244 c 0,0,1
295 451 m 0,14,15
 250 271 250 271 250 129 c 0,16,17
 250 95 250 95 261.5 73 c 128,-1,18
 273 51 273 51 303.5 51 c 128,-1,19
 334 51 334 51 353 65.5 c 128,-1,20
 372 80 372 80 387 113 c 0,21,22
 411.363636364 166.6 411.363636364 166.6 433.681818182 281.3 c 128,-1,23
 456 396 456 396 458 443.5 c 128,-1,24
 460 491 460 491 460 527 c 128,-1,25
 460 563 460 563 449 586 c 128,-1,26
 438 609 438 609 408.5 609 c 128,-1,27
 379 609 379 609 359 591 c 0,28,29
 321.580645161 557.322580645 321.580645161 557.322580645 295 451 c 0,14,15
280 812.5 m 0,30,31
 280 841 280 841 308 861 c 1,32,-1
 553 759 l 1,33,-1
 541 710 l 1,34,-1
 422 714 l 2,35,36
 280 719.259259259 280 719.259259259 280 812.5 c 0,30,31
EndSplineSet
EndChar

StartChar: Oacute
Encoding: 211 211 148
Width: 710
GlyphClass: 2
Flags: HMW
LayerCount: 2
Fore
SplineSet
32 244 m 0,0,1
 32 432.886597938 32 432.886597938 129.5 552.5 c 0,2,3
 234.243697479 681 234.243697479 681 415 681 c 0,4,5
 546 681 546 681 612 617.5 c 128,-1,6
 678 554 678 554 678 420 c 0,7,8
 678 215.56 678 215.56 574 97 c 0,9,10
 471.368421053 -20 471.368421053 -20 298 -20 c 0,11,12
 163 -20 163 -20 97.5 47.5 c 128,-1,13
 32 115 32 115 32 244 c 0,0,1
295 451 m 0,14,15
 250 271 250 271 250 129 c 0,16,17
 250 95 250 95 261.5 73 c 128,-1,18
 273 51 273 51 303.5 51 c 128,-1,19
 334 51 334 51 353 65.5 c 128,-1,20
 372 80 372 80 387 113 c 0,21,22
 411.363636364 166.6 411.363636364 166.6 433.681818182 281.3 c 128,-1,23
 456 396 456 396 458 443.5 c 128,-1,24
 460 491 460 491 460 527 c 128,-1,25
 460 563 460 563 449 586 c 128,-1,26
 438 609 438 609 408.5 609 c 128,-1,27
 379 609 379 609 359 591 c 0,28,29
 321.580645161 557.322580645 321.580645161 557.322580645 295 451 c 0,14,15
336 759 m 1,30,-1
 581 861 l 1,31,32
 609 841 609 841 609 812.5 c 128,-1,33
 609 784 609 784 598.5 766 c 128,-1,34
 588 748 588 748 569 736.5 c 0,35,36
 535.475555556 716.208888889 535.475555556 716.208888889 467 714 c 2,37,-1
 348 710 l 1,38,-1
 336 759 l 1,30,-1
EndSplineSet
EndChar

StartChar: Ocircumflex
Encoding: 212 212 149
Width: 710
GlyphClass: 2
Flags: HMW
LayerCount: 2
Fore
SplineSet
32 244 m 0,0,1
 32 432.886597938 32 432.886597938 129.5 552.5 c 0,2,3
 234.243697479 681 234.243697479 681 415 681 c 0,4,5
 546 681 546 681 612 617.5 c 128,-1,6
 678 554 678 554 678 420 c 0,7,8
 678 215.56 678 215.56 574 97 c 0,9,10
 471.368421053 -20 471.368421053 -20 298 -20 c 0,11,12
 163 -20 163 -20 97.5 47.5 c 128,-1,13
 32 115 32 115 32 244 c 0,0,1
295 451 m 0,14,15
 250 271 250 271 250 129 c 0,16,17
 250 95 250 95 261.5 73 c 128,-1,18
 273 51 273 51 303.5 51 c 128,-1,19
 334 51 334 51 353 65.5 c 128,-1,20
 372 80 372 80 387 113 c 0,21,22
 411.363636364 166.6 411.363636364 166.6 433.681818182 281.3 c 128,-1,23
 456 396 456 396 458 443.5 c 128,-1,24
 460 491 460 491 460 527 c 128,-1,25
 460 563 460 563 449 586 c 128,-1,26
 438 609 438 609 408.5 609 c 128,-1,27
 379 609 379 609 359 591 c 0,28,29
 321.580645161 557.322580645 321.580645161 557.322580645 295 451 c 0,14,15
264 749 m 1,30,-1
 457 856 l 1,31,-1
 593 752 l 1,32,-1
 549 699 l 1,33,-1
 434 748 l 1,34,-1
 289 694 l 1,35,-1
 264 749 l 1,30,-1
EndSplineSet
EndChar

StartChar: Odieresis
Encoding: 214 214 151
Width: 710
GlyphClass: 2
Flags: HMW
LayerCount: 2
Fore
SplineSet
32 244 m 0,0,1
 32 432.886597938 32 432.886597938 129.5 552.5 c 0,2,3
 234.243697479 681 234.243697479 681 415 681 c 0,4,5
 546 681 546 681 612 617.5 c 128,-1,6
 678 554 678 554 678 420 c 0,7,8
 678 215.56 678 215.56 574 97 c 0,9,10
 471.368421053 -20 471.368421053 -20 298 -20 c 0,11,12
 163 -20 163 -20 97.5 47.5 c 128,-1,13
 32 115 32 115 32 244 c 0,0,1
295 451 m 0,14,15
 250 271 250 271 250 129 c 0,16,17
 250 95 250 95 261.5 73 c 128,-1,18
 273 51 273 51 303.5 51 c 128,-1,19
 334 51 334 51 353 65.5 c 128,-1,20
 372 80 372 80 387 113 c 0,21,22
 411.363636364 166.6 411.363636364 166.6 433.681818182 281.3 c 128,-1,23
 456 396 456 396 458 443.5 c 128,-1,24
 460 491 460 491 460 527 c 128,-1,25
 460 563 460 563 449 586 c 128,-1,26
 438 609 438 609 408.5 609 c 128,-1,27
 379 609 379 609 359 591 c 0,28,29
 321.580645161 557.322580645 321.580645161 557.322580645 295 451 c 0,14,15
275 717 m 128,-1,31
 251 734 251 734 251 765.5 c 128,-1,32
 251 797 251 797 277 814 c 128,-1,33
 303 831 303 831 340.5 831 c 128,-1,34
 378 831 378 831 400.5 814 c 128,-1,35
 423 797 423 797 423 765.5 c 128,-1,36
 423 734 423 734 398 717 c 128,-1,37
 373 700 373 700 336 700 c 256,38,30
 299 700 299 700 275 717 c 128,-1,31
476.5 717 m 128,-1,40
 453 734 453 734 453 765.5 c 128,-1,41
 453 797 453 797 478.5 814 c 128,-1,42
 504 831 504 831 541.5 831 c 128,-1,43
 579 831 579 831 602 814 c 128,-1,44
 625 797 625 797 625 765.5 c 128,-1,45
 625 734 625 734 599.5 717 c 128,-1,46
 574 700 574 700 537 700 c 256,47,39
 500 700 500 700 476.5 717 c 128,-1,40
EndSplineSet
EndChar

StartChar: multiply
Encoding: 215 215 152
Width: 479
GlyphClass: 2
Flags: HMW
LayerCount: 2
Fore
SplineSet
-25 35 m 1,0,-1
 159 223 l 1,1,-1
 101 301 l 2,2,3
 88 319 88 319 75 335.5 c 128,-1,4
 62 352 62 352 62 379 c 128,-1,5
 62 406 62 406 80.5 425.5 c 128,-1,6
 99 445 99 445 132 452 c 1,7,-1
 236 303 l 1,8,-1
 348 418 l 2,9,10
 375.857142857 448 375.857142857 448 412.428571429 448 c 128,-1,11
 449 448 449 448 461 418 c 1,12,-1
 388 345 l 1,13,-1
 286 239 l 1,14,15
 304 213 304 213 320 192 c 2,16,-1
 350 153 l 2,17,18
 365 134 365 134 376.5 117.5 c 128,-1,19
 388 101 388 101 388 85 c 0,20,21
 388 53 388 53 366 32 c 128,-1,22
 344 11 344 11 309 10 c 1,23,24
 303 20 303 20 295 32 c 2,25,-1
 275 62 l 1,26,-1
 207 158 l 1,27,-1
 126 74 l 1,28,-1
 94 39 l 1,29,30
 66 11 66 11 28.5 11 c 128,-1,31
 -9 11 -9 11 -25 35 c 1,0,-1
EndSplineSet
EndChar

StartChar: Oslash
Encoding: 216 216 153
Width: 710
GlyphClass: 2
Flags: HMW
LayerCount: 2
Fore
SplineSet
39.5 -41.5 m 128,-1,1
 24 -25 24 -25 23.5 6.5 c 128,-1,2
 23 38 23 38 47 65 c 2,3,-1
 592 685 l 1,4,5
 606.875 704.125 606.875 704.125 617 721 c 1,6,7
 639 721 639 721 656.5 700.5 c 128,-1,8
 674 680 674 680 674 651 c 128,-1,9
 674 622 674 622 648 594 c 2,10,-1
 141 24 l 1,11,12
 107.479674797 -11.2845528455 107.479674797 -11.2845528455 80 -58 c 1,13,0
 55 -58 55 -58 39.5 -41.5 c 128,-1,1
32 244 m 0,14,15
 32 432.886597938 32 432.886597938 129.5 552.5 c 0,16,17
 234.243697479 681 234.243697479 681 415 681 c 0,18,19
 546 681 546 681 612 617.5 c 128,-1,20
 678 554 678 554 678 420 c 0,21,22
 678 215.56 678 215.56 574 97 c 0,23,24
 471.368421053 -20 471.368421053 -20 298 -20 c 0,25,26
 163 -20 163 -20 97.5 47.5 c 128,-1,27
 32 115 32 115 32 244 c 0,14,15
295 451 m 0,28,29
 250 271 250 271 250 129 c 0,30,31
 250 95 250 95 261.5 73 c 128,-1,32
 273 51 273 51 303.5 51 c 128,-1,33
 334 51 334 51 353 65.5 c 128,-1,34
 372 80 372 80 387 113 c 0,35,36
 411.363636364 166.6 411.363636364 166.6 433.681818182 281.3 c 128,-1,37
 456 396 456 396 458 443.5 c 128,-1,38
 460 491 460 491 460 527 c 128,-1,39
 460 563 460 563 449 586 c 128,-1,40
 438 609 438 609 408.5 609 c 128,-1,41
 379 609 379 609 359 591 c 0,42,43
 321.580645161 557.322580645 321.580645161 557.322580645 295 451 c 0,28,29
EndSplineSet
EndChar

StartChar: Ugrave
Encoding: 217 217 154
Width: 669
GlyphClass: 2
Flags: HMW
LayerCount: 2
Fore
SplineSet
36 148 m 0,0,1
 36 187 36 187 46 237 c 2,2,-1
 127 660 l 1,3,-1
 348 660 l 1,4,-1
 268 234 l 2,5,6
 259 187 259 187 259 152.5 c 128,-1,7
 259 118 259 118 273.5 100 c 128,-1,8
 288 82 288 82 315 82 c 128,-1,9
 342 82 342 82 359 89 c 128,-1,10
 376 96 376 96 389.5 113 c 0,11,12
 416.633663366 147.168316832 416.633663366 147.168316832 434 234 c 2,13,-1
 515 660 l 1,14,-1
 666 660 l 1,15,-1
 586 235 l 2,16,17
 558.292257803 92.5030401297 558.292257803 92.5030401297 481 35.5 c 0,18,19
 405.745762712 -20 405.745762712 -20 258 -20 c 0,20,21
 146.909090909 -20 146.909090909 -20 88 28 c 0,22,23
 36 70.3703703704 36 70.3703703704 36 148 c 0,0,1
264 812.5 m 0,24,25
 264 841 264 841 292 861 c 1,26,-1
 537 759 l 1,27,-1
 525 710 l 1,28,-1
 406 714 l 2,29,30
 264 719.259259259 264 719.259259259 264 812.5 c 0,24,25
EndSplineSet
EndChar

StartChar: Uacute
Encoding: 218 218 155
Width: 669
GlyphClass: 2
Flags: HMW
LayerCount: 2
Fore
SplineSet
36 148 m 0,0,1
 36 187 36 187 46 237 c 2,2,-1
 127 660 l 1,3,-1
 348 660 l 1,4,-1
 268 234 l 2,5,6
 259 187 259 187 259 152.5 c 128,-1,7
 259 118 259 118 273.5 100 c 128,-1,8
 288 82 288 82 315 82 c 128,-1,9
 342 82 342 82 359 89 c 128,-1,10
 376 96 376 96 389.5 113 c 0,11,12
 416.633663366 147.168316832 416.633663366 147.168316832 434 234 c 2,13,-1
 515 660 l 1,14,-1
 666 660 l 1,15,-1
 586 235 l 2,16,17
 558.292257803 92.5030401297 558.292257803 92.5030401297 481 35.5 c 0,18,19
 405.745762712 -20 405.745762712 -20 258 -20 c 0,20,21
 146.909090909 -20 146.909090909 -20 88 28 c 0,22,23
 36 70.3703703704 36 70.3703703704 36 148 c 0,0,1
335 759 m 1,24,-1
 580 861 l 1,25,26
 594 851 594 851 601 840.5 c 128,-1,27
 608 830 608 830 608 807 c 128,-1,28
 608 784 608 784 596.5 766 c 128,-1,29
 585 748 585 748 565.5 737 c 0,30,31
 528.696707106 716.239168111 528.696707106 716.239168111 466 714 c 2,32,-1
 347 710 l 1,33,-1
 335 759 l 1,24,-1
EndSplineSet
EndChar

StartChar: Ucircumflex
Encoding: 219 219 156
Width: 669
GlyphClass: 2
Flags: HMW
LayerCount: 2
Fore
SplineSet
36 148 m 0,0,1
 36 187 36 187 46 237 c 2,2,-1
 127 660 l 1,3,-1
 348 660 l 1,4,-1
 268 234 l 2,5,6
 259 187 259 187 259 152.5 c 128,-1,7
 259 118 259 118 273.5 100 c 128,-1,8
 288 82 288 82 315 82 c 128,-1,9
 342 82 342 82 359 89 c 128,-1,10
 376 96 376 96 389.5 113 c 0,11,12
 416.633663366 147.168316832 416.633663366 147.168316832 434 234 c 2,13,-1
 515 660 l 1,14,-1
 666 660 l 1,15,-1
 586 235 l 2,16,17
 558.292257803 92.5030401297 558.292257803 92.5030401297 481 35.5 c 0,18,19
 405.745762712 -20 405.745762712 -20 258 -20 c 0,20,21
 146.909090909 -20 146.909090909 -20 88 28 c 0,22,23
 36 70.3703703704 36 70.3703703704 36 148 c 0,0,1
267 749 m 1,24,-1
 460 856 l 1,25,-1
 596 752 l 1,26,-1
 552 699 l 1,27,-1
 437 748 l 1,28,-1
 292 694 l 1,29,-1
 267 749 l 1,24,-1
EndSplineSet
EndChar

StartChar: Udieresis
Encoding: 220 220 157
Width: 669
GlyphClass: 2
Flags: HMW
LayerCount: 2
Fore
SplineSet
36 148 m 0,0,1
 36 187 36 187 46 237 c 2,2,-1
 127 660 l 1,3,-1
 348 660 l 1,4,-1
 268 234 l 2,5,6
 259 187 259 187 259 152.5 c 128,-1,7
 259 118 259 118 273.5 100 c 128,-1,8
 288 82 288 82 315 82 c 128,-1,9
 342 82 342 82 359 89 c 128,-1,10
 376 96 376 96 389.5 113 c 0,11,12
 416.633663366 147.168316832 416.633663366 147.168316832 434 234 c 2,13,-1
 515 660 l 1,14,-1
 666 660 l 1,15,-1
 586 235 l 2,16,17
 558.292257803 92.5030401297 558.292257803 92.5030401297 481 35.5 c 0,18,19
 405.745762712 -20 405.745762712 -20 258 -20 c 0,20,21
 146.909090909 -20 146.909090909 -20 88 28 c 0,22,23
 36 70.3703703704 36 70.3703703704 36 148 c 0,0,1
275 717 m 128,-1,25
 251 734 251 734 251 765.5 c 128,-1,26
 251 797 251 797 277 814 c 128,-1,27
 303 831 303 831 340.5 831 c 128,-1,28
 378 831 378 831 400.5 814 c 128,-1,29
 423 797 423 797 423 765.5 c 128,-1,30
 423 734 423 734 398 717 c 128,-1,31
 373 700 373 700 336 700 c 256,32,24
 299 700 299 700 275 717 c 128,-1,25
476.5 717 m 128,-1,34
 453 734 453 734 453 765.5 c 128,-1,35
 453 797 453 797 478.5 814 c 128,-1,36
 504 831 504 831 541.5 831 c 128,-1,37
 579 831 579 831 602 814 c 128,-1,38
 625 797 625 797 625 765.5 c 128,-1,39
 625 734 625 734 599.5 717 c 128,-1,40
 574 700 574 700 537 700 c 256,41,33
 500 700 500 700 476.5 717 c 128,-1,34
EndSplineSet
EndChar

StartChar: Yacute
Encoding: 221 221 158
Width: 596
GlyphClass: 2
Flags: HMW
LayerCount: 2
Fore
SplineSet
170 294 m 1,0,1
 140.96196868 565.021625652 140.96196868 565.021625652 39 623 c 1,2,3
 60 649 60 649 94 663.5 c 128,-1,4
 128 678 128 678 169 678 c 128,-1,5
 210 678 210 678 241 663.5 c 128,-1,6
 272 649 272 649 292 618 c 0,7,8
 330 559.1 330 559.1 330 418 c 2,9,-1
 330 346 l 1,10,11
 390.029163966 522.085547634 390.029163966 522.085547634 450 598.5 c 0,12,13
 510.82278481 676 510.82278481 676 587 676 c 0,14,15
 617 676 617 676 637 660.5 c 128,-1,16
 657 645 657 645 667 622 c 1,17,18
 589.777145181 588.338755592 589.777145181 588.338755592 515.5 490 c 0,19,20
 441.800227015 392.425652667 441.800227015 392.425652667 394 255 c 1,21,-1
 335 0 l 1,22,-1
 112 0 l 1,23,-1
 170 294 l 1,0,1
256 749 m 1,24,-1
 501 851 l 1,25,26
 515 841 515 841 522 830.5 c 128,-1,27
 529 820 529 820 529 797 c 128,-1,28
 529 774 529 774 517.5 756 c 128,-1,29
 506 738 506 738 486.5 727 c 0,30,31
 449.696707106 706.239168111 449.696707106 706.239168111 387 704 c 2,32,-1
 268 700 l 1,33,-1
 256 749 l 1,24,-1
EndSplineSet
EndChar

StartChar: Thorn
Encoding: 222 222 159
Width: 650
GlyphClass: 2
Flags: HMW
LayerCount: 2
Fore
SplineSet
410 530 m 2,0,1
 629 530 629 530 629 357 c 0,2,3
 629 260.830508475 629 260.830508475 567.5 203.5 c 128,-1,4
 505.818181818 146 505.818181818 146 403 146 c 0,5,6
 353.181818182 146 353.181818182 146 315 174 c 0,7,8
 297 186 297 186 284 202 c 1,9,10
 359.744680851 202 359.744680851 202 399.5 252.5 c 0,11,12
 436 298.864864865 436 298.864864865 436 378 c 0,13,14
 436 467 436 467 350 467 c 2,15,-1
 329 467 l 2,16,17
 321 467 321 467 316 466 c 1,18,-1
 225 0 l 1,19,-1
 6 0 l 1,20,-1
 133 660 l 1,21,-1
 353 660 l 1,22,-1
 327 529 l 1,23,24
 347 530 347 530 367 530 c 2,25,-1
 410 530 l 2,0,1
EndSplineSet
EndChar

StartChar: germandbls
Encoding: 223 223 160
Width: 755
GlyphClass: 2
Flags: HMW
LayerCount: 2
Fore
SplineSet
-130 -128 m 1,0,1
 -87 -128 -87 -128 -51.5 -85.5 c 128,-1,2
 -16 -43 -16 -43 0 29 c 1,3,-1
 109 560 l 1,4,5
 128 659 128 659 205 710 c 128,-1,6
 282 761 282 761 410 761 c 0,7,8
 507.333333333 761 507.333333333 761 567.5 723 c 0,9,10
 627 685.421052632 627 685.421052632 627 625 c 0,11,12
 627 585 627 585 605.5 559 c 128,-1,13
 584 533 584 533 557.5 510.5 c 128,-1,14
 531 488 531 488 509.5 465.5 c 128,-1,15
 488 443 488 443 488 411 c 0,16,17
 488 394.444444444 488 394.444444444 505 381.222222222 c 128,-1,18
 522 368 522 368 548 352 c 2,19,-1
 618 308 l 2,20,21
 672 275 672 275 694.5 246 c 128,-1,22
 717 217 717 217 717 177.5 c 128,-1,23
 717 138 717 138 696 101 c 128,-1,24
 675 64 675 64 638 37 c 0,25,26
 559.888888889 -20 559.888888889 -20 441 -20 c 0,27,28
 376.129032258 -20 376.129032258 -20 327.5 13.5 c 128,-1,29
 279 46.9111111111 279 46.9111111111 279 87.9555555556 c 128,-1,30
 279 129 279 129 307 154 c 128,-1,31
 335 179 335 179 377.5 179 c 128,-1,32
 420 179 420 179 446 163 c 1,33,34
 433 134 433 134 433 75 c 1,35,36
 436 29 436 29 471 29 c 0,37,38
 497.125 29 497.125 29 512.5625 42 c 0,39,40
 539 64.2631578947 539 64.2631578947 539 89.6315789474 c 128,-1,41
 539 115 539 115 521 138 c 128,-1,42
 503 161 503 161 466.5 184.5 c 128,-1,43
 430 208 430 208 405.5 230.5 c 128,-1,44
 381 253 381 253 363 276 c 0,45,46
 324 325.833333333 324 325.833333333 324 358.416666667 c 128,-1,47
 324 391 324 391 334.5 414.5 c 128,-1,48
 345 438 345 438 361 459 c 128,-1,49
 377 480 377 480 396 500 c 128,-1,50
 415 520 415 520 431 541.5 c 0,51,52
 468 591.21875 468 591.21875 468 641 c 0,53,54
 468 673 468 673 450 694.5 c 128,-1,55
 432 716 432 716 410.5 716 c 128,-1,56
 389 716 389 716 373 704 c 128,-1,57
 357 692 357 692 343 671 c 0,58,59
 314.428571429 628.142857143 314.428571429 628.142857143 300 556 c 2,60,-1
 198 28 l 2,61,62
 176.234042553 -86.7659574468 176.234042553 -86.7659574468 125 -138 c 0,63,64
 75 -188 75 -188 -11.5 -188 c 128,-1,65
 -98 -188 -98 -188 -130 -128 c 1,0,1
EndSplineSet
EndChar

StartChar: aring
Encoding: 229 229 166
Width: 628
GlyphClass: 2
Flags: HMW
LayerCount: 2
Fore
SplineSet
26.5 97 m 128,-1,1
 16 138 16 138 16 205 c 128,-1,2
 16 272 16 272 39 333 c 128,-1,3
 62 394 62 394 103.5 438 c 0,4,5
 190.272727273 530 190.272727273 530 332 530 c 0,6,7
 383 530 383 530 420 513 c 1,8,-1
 591 530 l 1,9,-1
 517 140 l 2,10,11
 514 128 514 128 514 106 c 128,-1,12
 514 84 514 84 527.5 70 c 128,-1,13
 541 56 541 56 561 54 c 1,14,15
 551 20 551 20 514.5 0 c 128,-1,16
 478 -20 478 -20 437 -20 c 128,-1,17
 396 -20 396 -20 368.5 -4.5 c 128,-1,18
 341 11 341 11 333 37 c 1,19,20
 317 12 317 12 283 -4 c 128,-1,21
 249 -20 249 -20 203.5 -20 c 128,-1,22
 158 -20 158 -20 121 -8 c 128,-1,23
 84 4 84 4 60.5 30 c 128,-1,0
 37 56 37 56 26.5 97 c 128,-1,1
250 387.5 m 128,-1,25
 240 357 240 357 223.5 275.423076923 c 128,-1,26
 207 193.846153846 207 193.846153846 207 135.923076923 c 128,-1,27
 207 78 207 78 216 61 c 128,-1,28
 225 44 225 44 241 44 c 0,29,30
 273 44 273 44 296.5 74.5 c 128,-1,31
 320 105 320 105 329 159 c 2,32,-1
 382 452 l 1,33,34
 361 470 361 470 336.5 470 c 128,-1,35
 312 470 312 470 297.5 462 c 128,-1,36
 283 454 283 454 271.5 436 c 128,-1,24
 260 418 260 418 250 387.5 c 128,-1,25
281 597.5 m 128,-1,38
 255 616 255 616 255 644.5 c 128,-1,39
 255 673 255 673 266.5 692 c 128,-1,40
 278 711 278 711 297 724 c 0,41,42
 336.461538462 751 336.461538462 751 386.230769231 751 c 128,-1,43
 436 751 436 751 461 732.5 c 128,-1,44
 486 714 486 714 486 685.5 c 128,-1,45
 486 657 486 657 475 638 c 128,-1,46
 464 619 464 619 445.5 606 c 0,47,48
 407.076923077 579 407.076923077 579 357.038461538 579 c 128,-1,37
 307 579 307 579 281 597.5 c 128,-1,38
347 692.5 m 128,-1,50
 332 675 332 675 332 655.5 c 0,51,52
 332 617 332 617 360 617 c 0,53,54
 383 617 383 617 397.5 634 c 128,-1,55
 412 651 412 651 412 670 c 0,56,57
 412 710 412 710 383 710 c 0,58,49
 362 710 362 710 347 692.5 c 128,-1,50
EndSplineSet
EndChar

StartChar: ae
Encoding: 230 230 167
Width: 857
GlyphClass: 2
Flags: HMW
LayerCount: 2
Fore
SplineSet
536 235 m 1,0,1
 532 199 532 199 532 187 c 0,2,3
 532 106 532 106 607 106 c 0,4,5
 673.782608696 106 673.782608696 106 724 144.5 c 0,6,7
 739 156 739 156 747 169 c 1,8,9
 772 151 772 151 772 115 c 128,-1,10
 772 79 772 79 754 55.5 c 128,-1,11
 736 32 736 32 705 15 c 0,12,13
 641.176470588 -20 641.176470588 -20 555.588235294 -20 c 128,-1,14
 470 -20 470 -20 423 -0.5 c 128,-1,15
 376 19 376 19 352 63 c 1,16,17
 335 28 335 28 295.5 4 c 128,-1,18
 256 -20 256 -20 202 -20 c 128,-1,19
 148 -20 148 -20 113 -6 c 128,-1,20
 78 8 78 8 56.5 36 c 0,21,22
 16 88.7441860465 16 88.7441860465 16 197 c 0,23,24
 16 346.78313253 16 346.78313253 103.5 438.5 c 0,25,26
 190.793103448 530 190.793103448 530 330 530 c 1,27,28
 403.423180593 526.32884097 403.423180593 526.32884097 459 488 c 1,29,30
 543 530 543 530 663 530 c 0,31,32
 746 530 746 530 793 498.5 c 128,-1,33
 840 467 840 467 840 411 c 0,34,35
 840 235 840 235 536 235 c 1,0,1
382 452 m 1,36,37
 359.5 470 359.5 470 334.75 470 c 128,-1,38
 310 470 310 470 286.5 447 c 128,-1,39
 263 424 263 424 244.5 381 c 0,40,41
 203 284.540540541 203 284.540540541 203 138 c 0,42,43
 203 41 203 41 245 41 c 0,44,45
 277.25 41 277.25 41 300 83 c 0,46,47
 328.616481775 135.830427892 328.616481775 135.830427892 347 259 c 1,48,-1
 382 452 l 1,36,37
543 278 m 1,49,50
 612 278 612 278 654 320 c 128,-1,51
 696 362 696 362 696 431 c 0,52,53
 696 479 696 479 656 479 c 0,54,55
 620 479 620 479 590.5 427 c 128,-1,56
 561 375 561 375 543 278 c 1,49,50
EndSplineSet
EndChar

StartChar: icircumflex
Encoding: 238 238 175
Width: 323
GlyphClass: 2
Flags: HMW
LayerCount: 2
Fore
SplineSet
255 55 m 1,0,1
 223.75 -20 223.75 -20 125 -20 c 0,2,3
 75 -20 75 -20 43.5 15 c 0,4,5
 17 44.4444444444 17 44.4444444444 17 76.7222222222 c 0,6,7
 17 157.909090909 17 157.909090909 54 316 c 1,8,-1
 91 510 l 1,9,-1
 292 530 l 1,10,-1
 231 214 l 1,11,12
 214 140.333333333 214 140.333333333 214 113.666666667 c 0,13,14
 214 57.05 214 57.05 255 55 c 1,0,1
68 619 m 1,15,-1
 222 766 l 1,16,-1
 344 619 l 1,17,-1
 303 573 l 1,18,-1
 211 645 l 1,19,-1
 93 573 l 1,20,-1
 68 619 l 1,15,-1
EndSplineSet
EndChar

StartChar: idieresis
Encoding: 239 239 176
Width: 323
GlyphClass: 2
Flags: HMW
LayerCount: 2
Fore
SplineSet
255 55 m 1,0,1
 223.75 -20 223.75 -20 125 -20 c 0,2,3
 75 -20 75 -20 43.5 15 c 0,4,5
 17 44.4444444444 17 44.4444444444 17 76.7222222222 c 0,6,7
 17 157.909090909 17 157.909090909 54 316 c 1,8,-1
 91 510 l 1,9,-1
 292 530 l 1,10,-1
 231 214 l 1,11,12
 214 140.333333333 214 140.333333333 214 113.666666667 c 0,13,14
 214 57.05 214 57.05 255 55 c 1,0,1
38 655 m 256,15,16
 38 687 38 687 64 703.5 c 128,-1,17
 90 720 90 720 127 720 c 128,-1,18
 164 720 164 720 187 703.5 c 128,-1,19
 210 687 210 687 210 655 c 256,20,21
 210 623 210 623 185 607 c 128,-1,22
 160 591 160 591 122.5 591 c 128,-1,23
 85 591 85 591 61.5 607 c 128,-1,24
 38 623 38 623 38 655 c 256,15,16
237 655 m 256,25,26
 237 687 237 687 262.5 703.5 c 128,-1,27
 288 720 288 720 326 720 c 256,28,29
 364 720 364 720 386 703.5 c 128,-1,30
 408 687 408 687 408 655 c 256,31,32
 408 623 408 623 383 607 c 128,-1,33
 358 591 358 591 321 591 c 128,-1,34
 284 591 284 591 260.5 607 c 128,-1,35
 237 623 237 623 237 655 c 256,25,26
EndSplineSet
EndChar

StartChar: eth
Encoding: 240 240 177
Width: 589
GlyphClass: 2
Flags: HMW
LayerCount: 2
Fore
SplineSet
598 720 m 1,0,1
 611 708.857142857 611 708.857142857 611 683 c 0,2,3
 611 653 611 653 561 635 c 2,4,-1
 532 625 l 1,5,6
 564 564 564 564 564 480 c 0,7,8
 564 274.340425532 564 274.340425532 482 140 c 0,9,10
 437 65 437 65 371.5 22.5 c 128,-1,11
 306 -20 306 -20 225 -20 c 0,12,13
 14 -20 14 -20 14 181 c 0,14,15
 14 331.05 14 331.05 98 424.5 c 0,16,17
 182.943820225 519 182.943820225 519 317 519 c 0,18,19
 367.8 519 367.8 519 392 508 c 1,20,21
 398 535 398 535 398 548 c 0,22,23
 398 567 398 567 396 577 c 1,24,-1
 293 540 l 1,25,26
 278 555 278 555 278 571 c 0,27,28
 278 604 278 604 311 615 c 1,29,-1
 368 636 l 1,30,31
 348 651 348 651 323.75 651 c 128,-1,32
 299.5 651 299.5 651 286 642 c 1,33,34
 282 648 282 648 282 658 c 0,35,36
 282 689 282 689 310 704.5 c 128,-1,37
 338 720 338 720 391.894736842 720 c 128,-1,38
 445.789473684 720 445.789473684 720 490 680 c 1,39,-1
 598 720 l 1,0,1
380 441 m 1,40,41
 356.777777778 460 356.777777778 460 318.888888889 460 c 128,-1,42
 281 460 281 460 259.5 425 c 128,-1,43
 238 390 238 390 224.5 315 c 0,44,45
 202 190 202 190 202 133 c 128,-1,46
 202 76 202 76 210.5 57.5 c 128,-1,47
 219 39 219 39 239.5 39 c 128,-1,48
 260 39 260 39 277.5 61.5 c 128,-1,49
 295 84 295 84 312 132 c 0,50,51
 343.166666667 220 343.166666667 220 380 441 c 1,40,41
EndSplineSet
EndChar

StartChar: divide
Encoding: 247 247 184
Width: 482
GlyphClass: 2
Flags: HMW
LayerCount: 2
Fore
SplineSet
14 191 m 1,0,1
 10 207 10 207 10 230 c 128,-1,2
 10 253 10 253 31 271.5 c 128,-1,3
 52 290 52 290 84 290 c 2,4,-1
 435 290 l 1,5,6
 440 270 440 270 440 247 c 128,-1,7
 440 224 440 224 420 207.5 c 128,-1,8
 400 191 400 191 358 191 c 2,9,-1
 14 191 l 1,0,1
116 76 m 256,10,11
 116 106 116 106 139 122.5 c 128,-1,12
 162 139 162 139 194.5 139 c 128,-1,13
 227 139 227 139 247.5 122.5 c 128,-1,14
 268 106 268 106 268 76 c 256,15,16
 268 46 268 46 245.5 30 c 128,-1,17
 223 14 223 14 190.5 14 c 128,-1,18
 158 14 158 14 137 30 c 128,-1,19
 116 46 116 46 116 76 c 256,10,11
183 404 m 256,20,21
 183 434 183 434 206 450.5 c 128,-1,22
 229 467 229 467 261.5 467 c 128,-1,23
 294 467 294 467 314.5 450.5 c 128,-1,24
 335 434 335 434 335 404 c 256,25,26
 335 374 335 374 312.5 358 c 128,-1,27
 290 342 290 342 257.5 342 c 128,-1,28
 225 342 225 342 204 358 c 128,-1,29
 183 374 183 374 183 404 c 256,20,21
EndSplineSet
EndChar

StartChar: oslash
Encoding: 248 248 185
Width: 591
GlyphClass: 2
Flags: HMW
LayerCount: 2
Fore
SplineSet
24 -43 m 128,-1,1
 12 -28 12 -28 11.5 -11 c 0,2,3
 10.5103626943 22.6476683938 10.5103626943 22.6476683938 31 45 c 2,4,-1
 466 529 l 1,5,-1
 494 562 l 2,6,7
 505 576 505 576 517 594 c 1,8,9
 532 594 532 594 548.5 578.5 c 128,-1,10
 565 563 565 563 565 545 c 0,11,12
 565 511.833333333 565 511.833333333 543 488 c 2,13,-1
 110 11 l 1,14,15
 79.6 -20.92 79.6 -20.92 59 -58 c 1,16,0
 36 -58 36 -58 24 -43 c 128,-1,1
235 -20 m 0,17,18
 15 -20 15 -20 15 187 c 0,19,20
 15 333.825 15 333.825 96 429 c 0,21,22
 181.957446809 530 181.957446809 530 331 530 c 0,23,24
 439 530 439 530 494 480 c 128,-1,25
 549 430 549 430 549 325 c 0,26,27
 549 164.841463415 549 164.841463415 463 71.5 c 0,28,29
 378.696629213 -20 378.696629213 -20 235 -20 c 0,17,18
239.5 347.5 m 128,-1,31
 230 307 230 307 218 243.2 c 128,-1,32
 206 179.4 206 179.4 206 100 c 0,33,34
 206 74 206 74 214.5 57 c 128,-1,35
 223 40 223 40 246 40 c 128,-1,36
 269 40 269 40 283.5 51 c 128,-1,37
 298 62 298 62 309 87.5 c 0,38,39
 328.956521739 133.76284585 328.956521739 133.76284585 344.97826087 219.381422925 c 128,-1,40
 361 305 361 305 362.5 342 c 128,-1,41
 364 379 364 379 364 406.5 c 128,-1,42
 364 434 364 434 356 452 c 128,-1,43
 348 470 348 470 325.5 470 c 128,-1,44
 303 470 303 470 288 456 c 128,-1,45
 273 442 273 442 261 415 c 128,-1,30
 249 388 249 388 239.5 347.5 c 128,-1,31
EndSplineSet
EndChar

StartChar: thorn
Encoding: 254 254 191
Width: 618
GlyphClass: 2
Flags: HMW
LayerCount: 2
Fore
SplineSet
-41 -200 m 1,0,-1
 132 700 l 1,1,-1
 335 720 l 1,2,-1
 304 567 l 1,3,4
 293.533333333 522.516666667 293.533333333 522.516666667 279 488 c 1,5,6
 302.52 514.88 302.52 514.88 349 526.5 c 0,7,8
 363 530 363 530 380 530 c 0,9,10
 473 530 473 530 524 473.5 c 128,-1,11
 575 417 575 417 575 308 c 0,12,13
 575 166.444444444 575 166.444444444 494.5 77 c 0,14,15
 407.2 -20 407.2 -20 249 -20 c 0,16,17
 222 -20 222 -20 191 -17 c 1,18,-1
 162 -180 l 1,19,-1
 -41 -200 l 1,0,-1
209 57 m 1,20,21
 230 39 230 39 256 39 c 128,-1,22
 282 39 282 39 297 49 c 128,-1,23
 312 59 312 59 323 79 c 0,24,25
 352.779084967 133.14379085 352.779084967 133.14379085 377 297.5 c 0,26,27
 384 345 384 345 384 392 c 128,-1,28
 384 439 384 439 373.5 454 c 128,-1,29
 363 469 363 469 343 469 c 0,30,31
 282.20754717 469 282.20754717 469 262 350 c 1,32,-1
 209 57 l 1,20,21
EndSplineSet
EndChar

StartChar: dotlessi
Encoding: 305 305 197
Width: 323
GlyphClass: 2
Flags: HMW
LayerCount: 2
Fore
SplineSet
255 55 m 1,0,1
 223.75 -20 223.75 -20 125 -20 c 0,2,3
 75 -20 75 -20 43.5 15 c 0,4,5
 17 44.4444444444 17 44.4444444444 17 76.7222222222 c 0,6,7
 17 157.909090909 17 157.909090909 54 316 c 1,8,-1
 91 510 l 1,9,-1
 292 530 l 1,10,-1
 231 214 l 1,11,12
 214 140.333333333 214 140.333333333 214 113.666666667 c 0,13,14
 214 57.05 214 57.05 255 55 c 1,0,1
EndSplineSet
EndChar

StartChar: Lslash
Encoding: 321 321 198
Width: 529
GlyphClass: 2
Flags: HMW
LayerCount: 2
Fore
SplineSet
-8 199 m 1,0,1
 -29 217.666666667 -29 217.666666667 -29 241.333333333 c 0,2,3
 -29 289 -29 289 16 304 c 1,4,-1
 417 451 l 1,5,6
 436 435.454545455 436 435.454545455 436 400 c 0,7,8
 436 357 436 357 366 333 c 1,9,-1
 -8 199 l 1,0,1
460 154 m 1,10,11
 479 130.25 479 130.25 479 83.625 c 128,-1,12
 479 37 479 37 443.5 8.5 c 128,-1,13
 408 -20 408 -20 346 -20 c 0,14,15
 310.333333333 -20 310.333333333 -20 253.666666667 -11.5 c 0,16,17
 143.666666667 5 143.666666667 5 112.333333333 5 c 128,-1,18
 81 5 81 5 68 3.5 c 128,-1,19
 55 2 55 2 34 0 c 1,20,-1
 155 660 l 1,21,-1
 374 660 l 1,22,-1
 274 110 l 1,23,24
 287 108 287 108 299 108 c 2,25,-1
 324 108 l 2,26,27
 408 108 408 108 460 154 c 1,10,11
EndSplineSet
EndChar

StartChar: lslash
Encoding: 322 322 199
Width: 382
GlyphClass: 2
Flags: HMW
LayerCount: 2
Fore
SplineSet
4 217 m 1,0,1
 -17 235.666666667 -17 235.666666667 -17 259.333333333 c 0,2,3
 -17 305.125 -17 305.125 28 322 c 2,4,-1
 377 451 l 1,5,6
 396 435.454545455 396 435.454545455 396 400 c 0,7,8
 396 357 396 357 326 333 c 1,9,-1
 4 217 l 1,0,1
294 55 m 1,10,11
 262.75 -20 262.75 -20 164 -20 c 0,12,13
 114 -20 114 -20 82.5 15 c 0,14,15
 56 44.4444444444 56 44.4444444444 56 76.7222222222 c 0,16,17
 56 151.5 56 151.5 91 316 c 1,18,-1
 164 700 l 1,19,-1
 367 720 l 1,20,-1
 270 214 l 1,21,22
 253 140.333333333 253 140.333333333 253 113.666666667 c 0,23,24
 253 57.05 253 57.05 294 55 c 1,10,11
EndSplineSet
EndChar

StartChar: OE
Encoding: 338 338 200
Width: 900
GlyphClass: 2
Flags: HMW
LayerCount: 2
Fore
SplineSet
693 109 m 0,0,1
 766.142857143 109 766.142857143 109 809 154 c 1,2,3
 830 128 830 128 830 90 c 0,4,5
 830 -20 830 -20 650 -20 c 0,6,7
 599.263157895 -20 599.263157895 -20 554 1.5 c 0,8,9
 509.877862595 22.4580152672 509.877862595 22.4580152672 502 52 c 1,10,11
 468 17 468 17 418 -1.5 c 128,-1,12
 368 -20 368 -20 285 -20 c 0,13,14
 160 -20 160 -20 95 49.5 c 128,-1,15
 30 119 30 119 30 248 c 0,16,17
 30 339 30 339 59 418 c 128,-1,18
 88 497 88 497 138.5 555 c 128,-1,19
 189 613 189 613 257.5 646.5 c 128,-1,20
 326 680 326 680 395.5 680 c 128,-1,21
 465 680 465 680 514 660 c 1,22,-1
 914 660 l 1,23,24
 914.257142857 655.2 914.257142857 655.2 914.257142857 650.557959184 c 0,25,26
 914.257142857 601.042857143 914.257142857 601.042857143 883.628571429 568.021428571 c 128,-1,27
 853 535 853 535 794.464285714 535 c 128,-1,28
 735.928571429 535 735.928571429 535 680 562 c 1,29,-1
 656 387 l 1,30,-1
 840 387 l 1,31,-1
 840 380 l 2,32,33
 840 331 840 331 813.5 303 c 128,-1,34
 787 275 787 275 739 275 c 0,35,36
 699.25 275 699.25 275 673.125 284.5 c 128,-1,37
 647 294 647 294 642 298 c 1,38,-1
 640 287 l 1,39,40
 629 219.166666667 629 219.166666667 629 169 c 0,41,42
 629 144 629 144 648 126.5 c 128,-1,43
 667 109 667 109 693 109 c 0,0,1
246 293.5 m 128,-1,45
 239 244 239 244 239 200 c 128,-1,46
 239 156 239 156 241.5 129.5 c 128,-1,47
 244 103 244 103 250 87 c 0,48,49
 261.25 57 261.25 57 291.125 57 c 128,-1,50
 321 57 321 57 352 92.5 c 128,-1,51
 383 128 383 128 407 186 c 0,52,53
 460 314.083333333 460 314.083333333 460 470 c 0,54,55
 460 550.666666667 460 550.666666667 451.5 573.333333333 c 128,-1,56
 443 596 443 596 432.5 602.5 c 128,-1,57
 422 609 422 609 404 609 c 128,-1,58
 386 609 386 609 366.5 592 c 128,-1,59
 347 575 347 575 328 545 c 128,-1,60
 309 515 309 515 293 475 c 128,-1,61
 277 435 277 435 265 389 c 128,-1,44
 253 343 253 343 246 293.5 c 128,-1,45
EndSplineSet
EndChar

StartChar: oe
Encoding: 339 339 201
Width: 859
GlyphClass: 2
Flags: HMW
LayerCount: 2
Fore
SplineSet
399 21 m 1,0,1
 330.045454545 -20 330.045454545 -20 209 -20 c 0,2,3
 115 -20 115 -20 65.5 35 c 128,-1,4
 16 90 16 90 16 193 c 0,5,6
 16 344.707317073 16 344.707317073 102 437 c 0,7,8
 188.659090909 530 188.659090909 530 327 530 c 0,9,10
 376 530 376 530 409.5 522 c 128,-1,11
 443 514 443 514 473 494 c 1,12,13
 524 514 524 514 567 522 c 128,-1,14
 610 530 610 530 679.5 530 c 128,-1,15
 749 530 749 530 796 498.5 c 128,-1,16
 843 467 843 467 843 411 c 0,17,18
 843 235 843 235 539 235 c 1,19,20
 535 201 535 201 535 187 c 0,21,22
 535 106 535 106 610 106 c 0,23,24
 676.782608696 106 676.782608696 106 727 144.5 c 0,25,26
 742 156 742 156 750 169 c 1,27,28
 775 151 775 151 775 116 c 128,-1,29
 775 81 775 81 758 57.5 c 128,-1,30
 741 34 741 34 711 16.5 c 0,31,32
 648.428571429 -20 648.428571429 -20 550.214285714 -20 c 128,-1,33
 452 -20 452 -20 399 21 c 1,0,1
219 249.5 m 128,-1,35
 208 187 208 187 208 132.5 c 128,-1,36
 208 78 208 78 216 58.5 c 128,-1,37
 224 39 224 39 244 39 c 128,-1,38
 264 39 264 39 286 70.5 c 128,-1,39
 308 102 308 102 325.5 152 c 0,40,41
 365 264.857142857 365 264.857142857 365 387 c 0,42,43
 365 434 365 434 358 452.5 c 128,-1,44
 351 471 351 471 330.5 471 c 128,-1,45
 310 471 310 471 287.5 440.5 c 128,-1,46
 265 410 265 410 247.5 361 c 128,-1,34
 230 312 230 312 219 249.5 c 128,-1,35
546 278 m 1,47,48
 615 278 615 278 657 320 c 128,-1,49
 699 362 699 362 699 431 c 0,50,51
 699 479 699 479 659 479 c 0,52,53
 623 479 623 479 593 427 c 128,-1,54
 563 375 563 375 546 278 c 1,47,48
EndSplineSet
EndChar

StartChar: Scaron
Encoding: 352 352 202
Width: 590
GlyphClass: 2
Flags: HMW
LayerCount: 2
Fore
SplineSet
407 462 m 1,0,1
 422 492 422 492 422 520 c 128,-1,2
 422 548 422 548 419 563.5 c 128,-1,3
 416 579 416 579 409 591 c 0,4,5
 393.833333333 617 393.833333333 617 364 617 c 0,6,7
 326.68 617 326.68 617 297 590.5 c 0,8,9
 265 561.928571429 265 561.928571429 265 518 c 0,10,11
 265 490 265 490 284.5 468.5 c 128,-1,12
 304 447 304 447 334 427 c 128,-1,13
 364 407 364 407 398 387 c 128,-1,14
 432 367 432 367 462 343 c 0,15,16
 531 287.8 531 287.8 531 214 c 0,17,18
 531 164 531 164 504.5 121.5 c 128,-1,19
 478 79 478 79 433.5 47.5 c 0,20,21
 338.142857143 -20 338.142857143 -20 211 -20 c 0,22,23
 108 -20 108 -20 55 13.5 c 128,-1,24
 2 47 2 47 2 98 c 0,25,26
 2 189.425 2 189.425 73 212.5 c 0,27,28
 93 219 93 219 123.5 219 c 128,-1,29
 154 219 154 219 189 206 c 1,30,31
 173 165 173 165 173 128 c 0,32,33
 173 48 173 48 230 48 c 0,34,35
 267.125 48 267.125 48 297.5 75 c 128,-1,36
 328 102.111111111 328 102.111111111 328 132.555555556 c 128,-1,37
 328 163 328 163 308.5 185 c 128,-1,38
 289 207 289 207 260 224.5 c 128,-1,39
 231 242 231 242 197.5 259 c 128,-1,40
 164 276 164 276 135 299.5 c 0,41,42
 67 354.603448276 67 354.603448276 67 443 c 0,43,44
 67 500 67 500 95 544.5 c 128,-1,45
 123 589 123 589 167.5 619 c 0,46,47
 257.983333333 680 257.983333333 680 368.491666667 680 c 128,-1,48
 479 680 479 680 532.5 647 c 128,-1,49
 586 614 586 614 586 558 c 0,50,51
 586 508.676470588 586 508.676470588 548 478.5 c 0,52,53
 514.62962963 452 514.62962963 452 474.814814815 452 c 128,-1,54
 435 452 435 452 407 462 c 1,0,1
245 807 m 1,55,-1
 281 855 l 1,56,-1
 405 801 l 1,57,-1
 553 851 l 1,58,-1
 584 807 l 1,59,-1
 388 700 l 1,60,-1
 245 807 l 1,55,-1
EndSplineSet
EndChar

StartChar: Zcaron
Encoding: 381 381 207
Width: 577
GlyphClass: 2
Flags: HMW
LayerCount: 2
Fore
SplineSet
147 11 m 128,-1,1
 119 15 119 15 89.5 15 c 128,-1,2
 60 15 60 15 45 0 c 1,3,4
 22.0505050505 17.2121212121 22.0505050505 17.2121212121 9.5 71 c 0,5,6
 6 86 6 86 6 111 c 0,7,8
 6 165.393939394 6 165.393939394 68 218 c 1,9,-1
 380 474 l 1,10,11
 250.5 495 250.5 495 198.9 495 c 128,-1,12
 147.3 495 147.3 495 99 472 c 1,13,14
 72 516.357142857 72 516.357142857 72 567.178571429 c 128,-1,15
 72 618 72 618 109.5 644 c 128,-1,16
 147 670 147 670 210 670 c 0,17,18
 238 670 238 670 268 666 c 128,-1,19
 298 662 298 662 328 658 c 2,20,-1
 387 649 l 2,21,22
 416 645 416 645 453.5 645 c 128,-1,23
 491 645 491 645 533 655 c 1,24,25
 573 620.217391304 573 620.217391304 573 562 c 0,26,27
 573 492.4 573 492.4 525 454 c 2,28,-1
 185 182 l 1,29,30
 257.857142857 162 257.857142857 162 379 162 c 0,31,32
 439 162 439 162 477 192 c 1,33,34
 494 170 494 170 498.5 151.5 c 128,-1,35
 503 133 503 133 503 106.5 c 128,-1,36
 503 80 503 80 494 58.5 c 128,-1,37
 485 37 485 37 466.5 21 c 0,38,39
 428.34375 -12 428.34375 -12 344 -12 c 0,40,41
 282.090909091 -12 282.090909091 -12 228.545454545 -2.5 c 128,-1,0
 175 7 175 7 147 11 c 128,-1,1
217 807 m 1,42,-1
 253 855 l 1,43,-1
 377 801 l 1,44,-1
 525 851 l 1,45,-1
 556 807 l 1,46,-1
 360 700 l 1,47,-1
 217 807 l 1,42,-1
EndSplineSet
EndChar

StartChar: florin
Encoding: 402 402 209
Width: 525
GlyphClass: 2
Flags: HMW
LayerCount: 2
Fore
SplineSet
534 388 m 0,0,1
 534 342 534 342 458 342 c 2,2,-1
 362 342 l 1,3,-1
 302 36 l 2,4,5
 280.759486448 -72.1335235378 280.759486448 -72.1335235378 204.5 -127.5 c 0,6,7
 132.188679245 -180 132.188679245 -180 22 -180 c 0,8,9
 -54.0833333333 -180 -54.0833333333 -180 -102 -155 c 0,10,11
 -151 -129.434782609 -151 -129.434782609 -151 -85.7173913043 c 128,-1,12
 -151 -42 -151 -42 -126.5 -21 c 128,-1,13
 -102 0 -102 0 -48 0 c 0,14,15
 -20 0 -20 0 3 -13 c 1,16,17
 -14 -43 -14 -43 -14 -69.5 c 128,-1,18
 -14 -96 -14 -96 -6.5 -106 c 128,-1,19
 1 -116 1 -116 21.5 -116 c 128,-1,20
 42 -116 42 -116 64 -80 c 128,-1,21
 86 -44 86 -44 104 40 c 2,22,-1
 167 342 l 1,23,-1
 70 342 l 1,24,25
 65 357 65 357 65 374.5 c 128,-1,26
 65 392 65 392 83.5 404.5 c 128,-1,27
 102 417 102 417 132 417 c 2,28,-1
 183 417 l 1,29,-1
 215 568 l 2,30,31
 232 650 232 650 298 696.5 c 128,-1,32
 364 743 364 743 486 743 c 0,33,34
 560.444444444 743 560.444444444 743 609 714.5 c 0,35,36
 659 685.152173913 659 685.152173913 659 645 c 0,37,38
 659 552 659 552 549 552 c 0,39,40
 519 552 519 552 498 565 c 1,41,42
 516 598.75 516 598.75 516 626 c 0,43,44
 516 679 516 679 481 679 c 0,45,46
 458 679 458 679 437.5 647 c 128,-1,47
 417 615 417 615 406 564 c 2,48,-1
 377 417 l 1,49,-1
 528 417 l 1,50,51
 534 402 534 402 534 388 c 0,0,1
EndSplineSet
EndChar

StartChar: circumflex
Encoding: 710 710 210
Width: 406
GlyphClass: 2
Flags: HMW
LayerCount: 2
Fore
SplineSet
-30 640 m 1,0,-1
 165 770 l 1,1,-1
 318 639 l 1,2,-1
 268 578 l 1,3,-1
 151 650 l 1,4,-1
 3 578 l 1,5,-1
 -30 640 l 1,0,-1
EndSplineSet
EndChar

StartChar: caron
Encoding: 711 711 211
Width: 375
GlyphClass: 2
Flags: HMW
LayerCount: 2
Fore
SplineSet
32 711 m 1,0,-1
 82 757 l 1,1,-1
 199 685 l 1,2,-1
 347 757 l 1,3,-1
 378 711 l 1,4,-1
 185 565 l 1,5,-1
 32 711 l 1,0,-1
EndSplineSet
EndChar

StartChar: breve
Encoding: 728 728 212
Width: 357
GlyphClass: 2
Flags: HMW
LayerCount: 2
Fore
SplineSet
-28 693 m 0,0,1
 -28 705 -28 705 -25 720 c 1,2,-1
 75 720 l 1,3,4
 71 701 71 701 71 683.5 c 128,-1,5
 71 666 71 666 83 651 c 128,-1,6
 95 636 95 636 111.5 636 c 128,-1,7
 128 636 128 636 141 642.5 c 128,-1,8
 154 649 154 649 164.5 660.5 c 0,9,10
 188.052083333 686.295138889 188.052083333 686.295138889 194 720 c 1,11,-1
 288 720 l 1,12,13
 269.256756757 626.283783784 269.256756757 626.283783784 170.5 596.5 c 0,14,15
 139 587 139 587 103 587 c 0,16,17
 40 587 40 587 6 615 c 128,-1,18
 -28 643 -28 643 -28 693 c 0,0,1
EndSplineSet
EndChar

StartChar: dotaccent
Encoding: 729 729 213
Width: 251
GlyphClass: 2
Flags: HMW
LayerCount: 2
Fore
SplineSet
63 606 m 128,-1,1
 37 623 37 623 37 654.5 c 128,-1,2
 37 686 37 686 65.5 703 c 128,-1,3
 94 720 94 720 136 720 c 256,4,5
 178 720 178 720 203 703 c 128,-1,6
 228 686 228 686 228 654.5 c 128,-1,7
 228 623 228 623 200 606 c 128,-1,8
 172 589 172 589 130.5 589 c 128,-1,0
 89 589 89 589 63 606 c 128,-1,1
EndSplineSet
EndChar

StartChar: ring
Encoding: 730 730 214
Width: 276
GlyphClass: 2
Flags: HMW
LayerCount: 2
Fore
SplineSet
-9 584.5 m 128,-1,1
 -35 605 -35 605 -35 637 c 128,-1,2
 -35 669 -35 669 -23.5 690.5 c 128,-1,3
 -12 712 -12 712 7 726.5 c 0,4,5
 45.6551724138 756 45.6551724138 756 95.8275862069 756 c 0,6,7
 196 756 196 756 196 678 c 0,8,9
 196 625.243243243 196 625.243243243 155.5 593.5 c 0,10,11
 117.862068966 564 117.862068966 564 67.4310344828 564 c 128,-1,0
 17 564 17 564 -9 584.5 c 128,-1,1
38 645 m 0,12,13
 38 602 38 602 68 602 c 0,14,15
 90 602 90 602 108 622.5 c 128,-1,16
 126 643 126 643 126 666 c 0,17,18
 126 715 126 715 93 715 c 0,19,20
 70 715 70 715 54 694 c 128,-1,21
 38 673 38 673 38 645 c 0,12,13
EndSplineSet
EndChar

StartChar: ogonek
Encoding: 731 731 215
Width: 480
GlyphClass: 2
Flags: HMW
LayerCount: 2
Fore
SplineSet
288 -166 m 1,0,1
 306 -180 306 -180 306 -200.5 c 128,-1,2
 306 -221 306 -221 279 -239.5 c 128,-1,3
 252 -258 252 -258 192.5 -258 c 128,-1,4
 133 -258 133 -258 100 -228 c 128,-1,5
 67 -198 67 -198 67 -141 c 0,6,7
 67 -80.6 67 -80.6 116.5 -35.5 c 0,8,9
 160.413793103 4.51034482759 160.413793103 4.51034482759 226 22 c 1,10,-1
 265 6 l 1,11,12
 170 -54.243902439 170 -54.243902439 170 -142 c 0,13,14
 170 -191 170 -191 219.833333333 -191 c 128,-1,15
 269.666666667 -191 269.666666667 -191 288 -166 c 1,0,1
EndSplineSet
EndChar

StartChar: tilde
Encoding: 732 732 216
Width: 460
GlyphClass: 2
Flags: HMW
LayerCount: 2
Fore
SplineSet
65 620 m 0,0,1
 23.5 620 23.5 620 -2 603 c 1,2,3
 -22 632 -22 632 -22 662 c 128,-1,4
 -22 692 -22 692 3.5 709.5 c 128,-1,5
 29 727 29 727 77 727 c 0,6,7
 113.142857143 727 113.142857143 727 164.571428571 721 c 0,8,9
 258.857142857 710 258.857142857 710 294.428571429 710 c 128,-1,10
 330 710 330 710 347 727 c 1,11,12
 366 704.545454545 366 704.545454545 366 672.272727273 c 128,-1,13
 366 640 366 640 340.5 621 c 128,-1,14
 315 602 315 602 270 602 c 0,15,16
 252 602 252 602 223 605 c 2,17,-1
 164 611 l 2,18,19
 134 614 134 614 107 617 c 128,-1,20
 80 620 80 620 65 620 c 0,0,1
EndSplineSet
EndChar

StartChar: hungarumlaut
Encoding: 733 733 217
Width: 482
GlyphClass: 2
Flags: HMW
LayerCount: 2
Fore
SplineSet
-38 568 m 1,0,-1
 121 789 l 1,1,2
 148 781 148 781 165 757 c 128,-1,3
 182 733 182 733 182 699 c 0,4,5
 182 637.444444444 182 637.444444444 102 593 c 2,6,-1
 8 541 l 1,7,-1
 -38 568 l 1,0,-1
163 568 m 1,8,-1
 322 789 l 1,9,10
 349 781 349 781 366 757 c 128,-1,11
 383 733 383 733 383 700 c 0,12,13
 383 637.444444444 383 637.444444444 303 593 c 2,14,-1
 209 541 l 1,15,-1
 163 568 l 1,8,-1
EndSplineSet
EndChar

StartChar: Omega
Encoding: 937 937 218
Width: 723
GlyphClass: 2
Flags: HMW
LayerCount: 2
Fore
SplineSet
473 474 m 1,0,1
 470.672413793 609 470.672413793 609 410 609 c 0,2,3
 375 609 375 609 346.5 578 c 128,-1,4
 318 547 318 547 297.5 497 c 0,5,6
 255 393.341463415 255 393.341463415 255 260 c 0,7,8
 255 173.133333333 255 173.133333333 276.5 133 c 0,9,10
 284 119 284 119 295 105 c 1,11,-1
 265 0 l 1,12,-1
 96 0 l 2,13,14
 45 0 45 0 27 21.5 c 128,-1,15
 9 43 9 43 9 67 c 0,16,17
 9 114.583333333 9 114.583333333 34 150 c 1,18,19
 52.9507042254 126.838028169 52.9507042254 126.838028169 76.4753521127 119.919014085 c 0,20,21
 117 108 117 108 183 108 c 1,22,23
 114 127 114 127 80.5 181 c 128,-1,24
 47 235 47 235 47 332 c 0,25,26
 47 395 47 395 72.5 457.5 c 128,-1,27
 98 520 98 520 146 569.5 c 128,-1,28
 194 619 194 619 261.5 650 c 128,-1,29
 329 681 329 681 413 681 c 0,30,31
 538 681 538 681 608.5 620 c 128,-1,32
 679 559 679 559 679 428 c 0,33,34
 679 308.4 679 308.4 618 223 c 0,35,36
 555.825396825 135.955555556 555.825396825 135.955555556 446 108 c 1,37,38
 521 108 521 108 569.5 121.5 c 128,-1,39
 618 135 618 135 629 150 c 1,40,41
 645 122 645 122 645 86 c 128,-1,42
 645 50 645 50 619 25 c 128,-1,43
 593 0 593 0 526 0 c 2,44,-1
 344 0 l 1,45,-1
 344 105 l 1,46,47
 397.806993948 136.542030935 397.806993948 136.542030935 437 260 c 0,48,49
 473 372.5 473 372.5 473 474 c 1,0,1
EndSplineSet
EndChar

StartChar: pi
Encoding: 960 960 219
Width: 574
GlyphClass: 2
Flags: HMW
LayerCount: 2
Fore
SplineSet
541 531 m 1,0,1
 570 502 570 502 570 460.5 c 128,-1,2
 570 419 570 419 536.5 392.5 c 128,-1,3
 503 366 503 366 447 362 c 1,4,5
 436.7 300.2 436.7 300.2 433.85 260.1 c 128,-1,6
 431 220 431 220 430 206 c 128,-1,7
 429 192 429 192 428 182 c 128,-1,8
 427 172 427 172 427 166 c 2,9,-1
 427 152 l 2,10,11
 427 55 427 55 500 53 c 1,12,13
 474 -26 474 -26 389 -26 c 0,14,15
 351.217391304 -26 351.217391304 -26 323.5 -0.5 c 0,16,17
 296 24.8 296 24.8 296 61 c 0,18,19
 296 125.666666667 296 125.666666667 322 247 c 1,20,-1
 346 368 l 1,21,-1
 241 378 l 1,22,-1
 167 0 l 1,23,-1
 21 -20 l 1,24,-1
 150 387 l 1,25,-1
 126 388 l 1,26,27
 99 388 99 388 74.5 380.5 c 128,-1,28
 50 373 50 373 38 362 c 1,29,30
 30 384.4 30 384.4 30 429.7 c 128,-1,31
 30 475 30 475 72.5 502 c 128,-1,32
 115 529 115 529 182 529 c 0,33,34
 218.333333333 529 218.333333333 529 289.166666667 520.5 c 0,35,36
 418.333333333 505 418.333333333 505 446 505 c 0,37,38
 508 505 508 505 541 531 c 1,0,1
EndSplineSet
EndChar

StartChar: endash
Encoding: 8211 8211 220
Width: 588
GlyphClass: 2
Flags: HMW
LayerCount: 2
Fore
SplineSet
29 218 m 0,0,1
 29 251 29 251 50 271.5 c 128,-1,2
 71 292 71 292 103 292 c 2,3,-1
 524 292 l 1,4,5
 538.402985075 240.149253731 538.402985075 240.149253731 507.5 210 c 0,6,7
 487 190 487 190 446 190 c 2,8,-1
 33 190 l 1,9,10
 29 203 29 203 29 218 c 0,0,1
EndSplineSet
EndChar

StartChar: emdash
Encoding: 8212 8212 221
Width: 1088
GlyphClass: 2
Flags: HMW
LayerCount: 2
Fore
SplineSet
29 218 m 0,0,1
 29 251 29 251 50 271.5 c 128,-1,2
 71 292 71 292 103 292 c 2,3,-1
 1024 292 l 1,4,5
 1029 275 1029 275 1029 263 c 0,6,7
 1029 233 1029 233 1008.5 211.5 c 128,-1,8
 988 190 988 190 946 190 c 2,9,-1
 33 190 l 1,10,11
 29 203 29 203 29 218 c 0,0,1
EndSplineSet
EndChar

StartChar: quoteleft
Encoding: 8216 8216 222
Width: 249
GlyphClass: 2
Flags: HMW
LayerCount: 2
Fore
SplineSet
309 724 m 1,0,1
 232 640.84 232 640.84 232 537 c 0,2,3
 232 505 232 505 243 475 c 1,4,5
 231 467 231 467 207 461.5 c 128,-1,6
 183 456 183 456 165 456 c 0,7,8
 120 456 120 456 94.5 480.5 c 128,-1,9
 69 505 69 505 69 548 c 128,-1,10
 69 591 69 591 84 622.5 c 128,-1,11
 99 654 99 654 125.5 678 c 0,12,13
 182.916666667 730 182.916666667 730 266 730 c 0,14,15
 282 730 282 730 309 724 c 1,0,1
EndSplineSet
EndChar

StartChar: quoteright
Encoding: 8217 8217 223
Width: 264
GlyphClass: 2
Flags: HMW
LayerCount: 2
Fore
SplineSet
49 463 m 1,0,1
 126 546.16 126 546.16 126 650 c 0,2,3
 126 682 126 682 115 712 c 1,4,5
 127 720 127 720 151 725.5 c 128,-1,6
 175 731 175 731 193 731 c 0,7,8
 238 731 238 731 263.5 706 c 128,-1,9
 289 681 289 681 289 638.5 c 128,-1,10
 289 596 289 596 274 564.5 c 128,-1,11
 259 533 259 533 232.5 509 c 0,12,13
 175.083333333 457 175.083333333 457 92 457 c 0,14,15
 76 457 76 457 49 463 c 1,0,1
EndSplineSet
EndChar

StartChar: quotesinglbase
Encoding: 8218 8218 224
Width: 244
GlyphClass: 2
Flags: HMW
LayerCount: 2
Fore
SplineSet
-72 -130 m 1,0,1
 5 -46.84 5 -46.84 5 57 c 0,2,3
 5 89 5 89 -6 119 c 1,4,5
 6 127 6 127 30 132.5 c 128,-1,6
 54 138 54 138 72 138 c 0,7,8
 117 138 117 138 142.570175439 113.877192982 c 128,-1,9
 168.140350877 89.7543859649 168.140350877 89.7543859649 168.140350877 45.7590027701 c 0,10,11
 168.140350877 42.4385964912 168.140350877 42.4385964912 166.570175439 23.2192982456 c 128,-1,12
 165 4 165 4 149.5 -28 c 128,-1,13
 134 -60 134 -60 108 -84 c 0,14,15
 51.6666666667 -136 51.6666666667 -136 -29 -136 c 0,16,17
 -45 -136 -45 -136 -72 -130 c 1,0,1
EndSplineSet
EndChar

StartChar: quotedblleft
Encoding: 8220 8220 225
Width: 488
GlyphClass: 2
Flags: HMW
LayerCount: 2
Fore
SplineSet
310 725 m 1,0,1
 233 641.84 233 641.84 233 538 c 0,2,3
 233 506 233 506 244 476 c 1,4,5
 232 468 232 468 208 462.5 c 128,-1,6
 184 457 184 457 166 457 c 0,7,8
 121 457 121 457 95.5 482 c 128,-1,9
 70 507 70 507 70 549.5 c 128,-1,10
 70 592 70 592 85 623.5 c 128,-1,11
 100 655 100 655 126.5 679 c 0,12,13
 183.916666667 731 183.916666667 731 267 731 c 0,14,15
 283 731 283 731 310 725 c 1,0,1
548 725 m 1,16,17
 471 641.84 471 641.84 471 538 c 0,18,19
 471 506 471 506 482 476 c 1,20,21
 470 468 470 468 446 462.5 c 128,-1,22
 422 457 422 457 404 457 c 0,23,24
 359 457 359 457 333.5 482 c 128,-1,25
 308 507 308 507 308 549 c 128,-1,26
 308 591 308 591 323 623 c 128,-1,27
 338 655 338 655 364.5 679 c 0,28,29
 421.916666667 731 421.916666667 731 505 731 c 0,30,31
 521 731 521 731 548 725 c 1,16,17
EndSplineSet
EndChar

StartChar: quotedblright
Encoding: 8221 8221 226
Width: 502
GlyphClass: 2
Flags: HMW
LayerCount: 2
Fore
SplineSet
49 463 m 1,0,1
 126 546.16 126 546.16 126 650 c 0,2,3
 126 682 126 682 115 712 c 1,4,5
 127 720 127 720 151 725.5 c 128,-1,6
 175 731 175 731 193 731 c 0,7,8
 238 731 238 731 263.5 706 c 128,-1,9
 289 681 289 681 289 638.5 c 128,-1,10
 289 596 289 596 274 564 c 128,-1,11
 259 532 259 532 232.5 508 c 0,12,13
 176.1875 457 176.1875 457 92 457 c 0,14,15
 76 457 76 457 49 463 c 1,0,1
287 463 m 1,16,17
 364 546.16 364 546.16 364 650 c 0,18,19
 364 682 364 682 353 712 c 1,20,21
 365 720 365 720 389 725.5 c 128,-1,22
 413 731 413 731 431 731 c 0,23,24
 476 731 476 731 501.5 706 c 128,-1,25
 527 681 527 681 527 639 c 128,-1,26
 527 597 527 597 512 565 c 128,-1,27
 497 533 497 533 470.5 509 c 0,28,29
 413.083333333 457 413.083333333 457 330 457 c 0,30,31
 314 457 314 457 287 463 c 1,16,17
EndSplineSet
EndChar

StartChar: quotedblbase
Encoding: 8222 8222 227
Width: 483
GlyphClass: 2
Flags: HMW
LayerCount: 2
Fore
SplineSet
-72 -130 m 1,0,1
 5 -46.84 5 -46.84 5 57 c 0,2,3
 5 89 5 89 -6 119 c 1,4,5
 6 127 6 127 30 132.5 c 128,-1,6
 54 138 54 138 72 138 c 0,7,8
 117 138 117 138 142.5 113 c 128,-1,9
 168 88 168 88 168 46 c 128,-1,10
 168 4 168 4 153 -28 c 128,-1,11
 138 -60 138 -60 111.5 -84 c 0,12,13
 54.0833333333 -136 54.0833333333 -136 -29 -136 c 0,14,15
 -45 -136 -45 -136 -72 -130 c 1,0,1
166 -130 m 1,16,17
 243 -46.84 243 -46.84 243 57 c 0,18,19
 243 89 243 89 232 119 c 1,20,21
 244 127 244 127 268 132.5 c 128,-1,22
 292 138 292 138 310 138 c 0,23,24
 355 138 355 138 380.5 113 c 128,-1,25
 406 88 406 88 406 46 c 128,-1,26
 406 4 406 4 391 -28 c 128,-1,27
 376 -60 376 -60 349.5 -84 c 0,28,29
 292.083333333 -136 292.083333333 -136 209 -136 c 0,30,31
 193 -136 193 -136 166 -130 c 1,16,17
EndSplineSet
EndChar

StartChar: dagger
Encoding: 8224 8224 228
Width: 466
GlyphClass: 2
Flags: HMW
LayerCount: 2
Fore
SplineSet
180 361 m 1,0,1
 117.314049587 354.223140496 117.314049587 354.223140496 43 331 c 1,2,3
 36 345 36 345 36 365.5 c 128,-1,4
 36 386 36 386 39 404 c 128,-1,5
 42 422 42 422 47.5 439 c 0,6,7
 57.880794702 471.086092715 57.880794702 471.086092715 76 496 c 1,8,9
 132.666666667 476.520833333 132.666666667 476.520833333 200 466 c 1,10,11
 203 491 203 491 203 539.666666667 c 128,-1,12
 203 588.333333333 203 588.333333333 186 645 c 1,13,14
 234.285714286 671 234.285714286 671 293 671 c 128,-1,15
 351.857142857 671 351.857142857 671 389 645 c 1,16,17
 338.473684211 543.947368421 338.473684211 543.947368421 314 464 c 1,18,19
 363.38071066 470.497461929 363.38071066 470.497461929 452 498 c 1,20,21
 462 482 462 482 462 460 c 128,-1,22
 462 438 462 438 458.5 420 c 128,-1,23
 455 402 455 402 449 385.5 c 0,24,25
 436.714285714 351.714285714 436.714285714 351.714285714 417 332 c 1,26,27
 348.789473684 353.315789474 348.789473684 353.315789474 295 361 c 1,28,-1
 244 -59 l 2,29,30
 243 -65 243 -65 243 -71 c 2,31,-1
 243 -82 l 2,32,33
 243 -101 243 -101 246 -113 c 1,34,35
 193.538461538 -144 193.538461538 -144 137 -144 c 0,36,37
 66 -144 66 -144 66 -75 c 0,38,39
 66 -46 66 -46 75.5 -9.5 c 128,-1,40
 85 27 85 27 98 71 c 2,41,-1
 180 361 l 1,0,1
EndSplineSet
EndChar

StartChar: daggerdbl
Encoding: 8225 8225 229
Width: 482
GlyphClass: 2
Flags: HMW
LayerCount: 2
Fore
SplineSet
107 74 m 1,0,1
 38.0769230769 61.6923076923 38.0769230769 61.6923076923 -3 48 c 1,2,3
 -10 62 -10 62 -10 82.5 c 128,-1,4
 -10 103 -10 103 -7 121 c 128,-1,5
 -4 139 -4 139 1.5 156 c 0,6,7
 11.880794702 188.086092715 11.880794702 188.086092715 30 213 c 1,8,9
 87.6 194.485714286 87.6 194.485714286 140 187 c 1,10,-1
 189 361 l 1,11,12
 126.314049587 354.223140496 126.314049587 354.223140496 52 331 c 1,13,14
 45 345 45 345 45 365.5 c 128,-1,15
 45 386 45 386 48 404 c 128,-1,16
 51 422 51 422 56.5 439 c 0,17,18
 66.880794702 471.086092715 66.880794702 471.086092715 85 496 c 1,19,20
 141.666666667 476.520833333 141.666666667 476.520833333 209 466 c 1,21,22
 212 491 212 491 212 539.666666667 c 128,-1,23
 212 588.333333333 212 588.333333333 195 645 c 1,24,25
 243.285714286 671 243.285714286 671 302 671 c 128,-1,26
 360.857142857 671 360.857142857 671 398 645 c 1,27,28
 347.473684211 543.947368421 347.473684211 543.947368421 323 464 c 1,29,30
 372.38071066 470.497461929 372.38071066 470.497461929 461 498 c 1,31,32
 471 482 471 482 471 460 c 128,-1,33
 471 438 471 438 467.5 420 c 128,-1,34
 464 402 464 402 458 385.5 c 0,35,36
 445.714285714 351.714285714 445.714285714 351.714285714 426 332 c 1,37,38
 357.789473684 353.315789474 357.789473684 353.315789474 304 361 c 1,39,-1
 292 280 l 2,40,41
 285 233 285 233 279 186 c 1,42,43
 347.675675676 195.810810811 347.675675676 195.810810811 406 216 c 1,44,45
 416 200 416 200 416 178 c 128,-1,46
 416 156 416 156 412.5 138 c 128,-1,47
 409 120 409 120 403 103 c 0,48,49
 391 69 391 69 371 49 c 1,50,51
 313.966292135 65.8988764045 313.966292135 65.8988764045 263 75 c 1,52,53
 253 20 253 20 253 -37.5 c 128,-1,54
 253 -95 253 -95 255 -113 c 1,55,56
 202.538461538 -144 202.538461538 -144 154.269230769 -144 c 128,-1,57
 106 -144 106 -144 90.5 -124.5 c 128,-1,58
 75 -105 75 -105 75 -74.5 c 128,-1,59
 75 -44 75 -44 85.5 -4 c 128,-1,60
 96 36 96 36 107 74 c 1,0,1
EndSplineSet
EndChar

StartChar: bullet
Encoding: 8226 8226 230
Width: 335
GlyphClass: 2
Flags: HMW
LayerCount: 2
Fore
SplineSet
158.833333333 363 m 128,-1,1
 214 363 214 363 247.5 336 c 128,-1,2
 281 309 281 309 281 258 c 256,3,4
 281 207 281 207 244 180.5 c 128,-1,5
 207 154 207 154 152.5 154 c 128,-1,6
 98 154 98 154 63.5 180.5 c 128,-1,7
 29 207 29 207 29 257 c 128,-1,8
 29 307 29 307 66.3333333333 335 c 128,-1,0
 103.666666667 363 103.666666667 363 158.833333333 363 c 128,-1,1
EndSplineSet
EndChar

StartChar: ellipsis
Encoding: 8230 8230 231
Width: 707
GlyphClass: 2
Flags: HMW
LayerCount: 2
Fore
SplineSet
-13 59 m 256,0,1
 -13 97 -13 97 16.5 118 c 128,-1,2
 46 139 46 139 88 139 c 256,3,4
 130 139 130 139 155.5 118 c 128,-1,5
 181 97 181 97 181 59 c 256,6,7
 181 21 181 21 152.5 0.5 c 128,-1,8
 124 -20 124 -20 82 -20 c 256,9,10
 40 -20 40 -20 13.5 0.5 c 128,-1,11
 -13 21 -13 21 -13 59 c 256,0,1
212 59 m 256,12,13
 212 97 212 97 241.5 118 c 128,-1,14
 271 139 271 139 313 139 c 256,15,16
 355 139 355 139 380.5 118 c 128,-1,17
 406 97 406 97 406 59 c 256,18,19
 406 21 406 21 377.5 0.5 c 128,-1,20
 349 -20 349 -20 307 -20 c 256,21,22
 265 -20 265 -20 238.5 0.5 c 128,-1,23
 212 21 212 21 212 59 c 256,12,13
437 59 m 256,24,25
 437 97 437 97 466.5 118 c 128,-1,26
 496 139 496 139 538 139 c 256,27,28
 580 139 580 139 605.5 118 c 128,-1,29
 631 97 631 97 631 59 c 256,30,31
 631 21 631 21 602.5 0.5 c 128,-1,32
 574 -20 574 -20 532 -20 c 256,33,34
 490 -20 490 -20 463.5 0.5 c 128,-1,35
 437 21 437 21 437 59 c 256,24,25
EndSplineSet
EndChar

StartChar: perthousand
Encoding: 8240 8240 232
Width: 1464
GlyphClass: 2
Flags: HMW
LayerCount: 2
Fore
SplineSet
86.5 326 m 128,-1,1
 51 366 51 366 51 424 c 128,-1,2
 51 482 51 482 64.5 527 c 128,-1,3
 78 572 78 572 106.5 606 c 0,4,5
 167.691176471 679 167.691176471 679 281 679 c 0,6,7
 436 679 436 679 436 520 c 0,8,9
 436 412.451612903 436 412.451612903 371 348.5 c 0,10,11
 307.475409836 286 307.475409836 286 195 286 c 0,12,0
 122 286 122 286 86.5 326 c 128,-1,1
128 11 m 1,13,-1
 730 644 l 2,14,15
 747 661 747 661 773.5 672 c 128,-1,16
 800 683 800 683 824 683 c 0,17,18
 876.142857143 683 876.142857143 683 891 644 c 1,19,-1
 290 16 l 2,20,21
 255.894736842 -20 255.894736842 -20 202 -20 c 0,22,23
 150.142857143 -20 150.142857143 -20 128 11 c 1,13,-1
210 337 m 0,24,25
 251.229508197 337 251.229508197 337 280 404.5 c 0,26,27
 307 467.846153846 307 467.846153846 307 560 c 0,28,29
 307 628 307 628 277 628 c 0,30,31
 238.287878788 628 238.287878788 628 209.5 552 c 0,32,33
 183 482.04 183 482.04 183 409.52 c 128,-1,34
 183 337 183 337 210 337 c 0,24,25
631.5 20 m 128,-1,36
 596 60 596 60 596 118 c 128,-1,37
 596 176 596 176 609.5 221 c 128,-1,38
 623 266 623 266 651.5 300 c 0,39,40
 712.691176471 373 712.691176471 373 826 373 c 0,41,42
 936.754098361 373 936.754098361 373 970 288.5 c 0,43,44
 982 258 982 258 982 209 c 128,-1,45
 982 160 982 160 965 116.5 c 128,-1,46
 948 73 948 73 916.5 42.5 c 0,47,48
 851.950819672 -20 851.950819672 -20 740 -20 c 0,49,35
 667 -20 667 -20 631.5 20 c 128,-1,36
756 31 m 0,50,51
 777 31 777 31 795 49.5 c 128,-1,52
 813 68 813 68 825.5 98.5 c 0,53,54
 852 163.16 852 163.16 852 254 c 0,55,56
 852 322 852 322 822 322 c 0,57,58
 784.939393939 322 784.939393939 322 755 246 c 0,59,60
 728 177.461538462 728 177.461538462 728 104.230769231 c 128,-1,61
 728 31 728 31 756 31 c 0,50,51
1062.5 20 m 128,-1,63
 1027 60 1027 60 1027 118 c 128,-1,64
 1027 176 1027 176 1040.5 221 c 128,-1,65
 1054 266 1054 266 1082.5 300 c 0,66,67
 1143.69117647 373 1143.69117647 373 1257 373 c 0,68,69
 1367.75409836 373 1367.75409836 373 1401 288.5 c 0,70,71
 1413 258 1413 258 1413 209 c 128,-1,72
 1413 160 1413 160 1396 116.5 c 128,-1,73
 1379 73 1379 73 1347.5 42.5 c 0,74,75
 1282.95081967 -20 1282.95081967 -20 1171 -20 c 0,76,62
 1098 -20 1098 -20 1062.5 20 c 128,-1,63
1187 31 m 0,77,78
 1208 31 1208 31 1226 49.5 c 128,-1,79
 1244 68 1244 68 1256.5 98.5 c 0,80,81
 1283 163.16 1283 163.16 1283 254 c 0,82,83
 1283 322 1283 322 1253 322 c 0,84,85
 1215.93939394 322 1215.93939394 322 1186 246 c 0,86,87
 1159 177.461538462 1159 177.461538462 1159 104.230769231 c 128,-1,88
 1159 31 1159 31 1187 31 c 0,77,78
EndSplineSet
EndChar

StartChar: guilsinglleft
Encoding: 8249 8249 233
Width: 311
GlyphClass: 2
Flags: HMW
LayerCount: 2
Fore
SplineSet
24 317 m 1,0,-1
 191 510 l 1,1,-1
 311 510 l 1,2,-1
 188 317 l 1,3,-1
 236 126 l 1,4,-1
 119 126 l 1,5,-1
 24 317 l 1,0,-1
EndSplineSet
EndChar

StartChar: guilsinglright
Encoding: 8250 8250 234
Width: 310
GlyphClass: 2
Flags: HMW
LayerCount: 2
Fore
SplineSet
-1 126 m 1,0,-1
 118 317 l 1,1,-1
 67 510 l 1,2,-1
 187 510 l 1,3,-1
 282 317 l 1,4,-1
 116 126 l 1,5,-1
 -1 126 l 1,0,-1
EndSplineSet
EndChar

StartChar: fraction
Encoding: 8260 8260 235
Width: 279
GlyphClass: 2
Flags: HMW
LayerCount: 2
Fore
SplineSet
-68 -62 m 0,0,1
 -68 -52 -68 -52 -62 -37 c 2,2,-1
 265 718 l 1,3,4
 275 720 275 720 295.5 720 c 128,-1,5
 316 720 316 720 328.5 714.5 c 128,-1,6
 341 709 341 709 341 693 c 128,-1,7
 341 677 341 677 332 652 c 1,8,-1
 9 -88 l 1,9,10
 3 -91 3 -91 -22 -91 c 0,11,12
 -68 -91 -68 -91 -68 -62 c 0,0,1
EndSplineSet
EndChar

StartChar: Euro
Encoding: 8364 8364 236
Width: 664
GlyphClass: 2
Flags: HMW
LayerCount: 2
Fore
SplineSet
572 198 m 1,0,1
 592 181.636363636 592 181.636363636 592 139.318181818 c 128,-1,2
 592 97 592 97 572.5 70 c 128,-1,3
 553 43 553 43 518.5 23 c 0,4,5
 444.325 -20 444.325 -20 334.6625 -20 c 128,-1,6
 225 -20 225 -20 164.5 38.5 c 128,-1,7
 104 97 104 97 98 209 c 1,8,-1
 16 209 l 1,9,10
 11 222 11 222 11 240.5 c 128,-1,11
 11 259 11 259 29.5 271.5 c 128,-1,12
 48 284 48 284 78 284 c 2,13,-1
 100 284 l 1,14,15
 102 314 102 314 108 342 c 1,16,-1
 42 342 l 1,17,18
 37 355 37 355 37 373.5 c 128,-1,19
 37 392 37 392 55.5 404.5 c 128,-1,20
 74 417 74 417 104 417 c 2,21,-1
 127 417 l 1,22,23
 169.824773414 539.356495468 169.824773414 539.356495468 262 609 c 0,24,25
 355.970588235 680 355.970588235 680 480 680 c 0,26,27
 551.962962963 680 551.962962963 680 605.5 650.5 c 0,28,29
 658 621.571428571 658 621.571428571 658 582 c 0,30,31
 658 489 658 489 542 489 c 0,32,33
 510 489 510 489 489 502 c 1,34,35
 505 532.222222222 505 532.222222222 505 558.611111111 c 128,-1,36
 505 585 505 585 492 600 c 128,-1,37
 479 615 479 615 458 617 c 1,38,39
 413.388888889 617 413.388888889 617 371.5 559 c 0,40,41
 330.221264368 501.844827586 330.221264368 501.844827586 308 417 c 1,42,-1
 469 417 l 1,43,44
 475 402 475 402 475 388 c 0,45,46
 475 342 475 342 399 342 c 2,47,-1
 293 342 l 1,48,49
 288 307 288 307 288 284 c 1,50,-1
 443 284 l 1,51,52
 449 269 449 269 449 255 c 0,53,54
 449 209 449 209 373 209 c 2,55,-1
 296 209 l 1,56,57
 324.666666667 123 324.666666667 123 428 123 c 0,58,59
 482.785714286 123 482.785714286 123 533 160 c 0,60,61
 555 177 555 177 572 198 c 1,0,1
EndSplineSet
EndChar

StartChar: trademark
Encoding: 8482 8482 237
Width: 804
GlyphClass: 2
Flags: HMW
LayerCount: 2
Fore
SplineSet
117 564 m 1,0,1
 97 581.5 97 581.5 97 612 c 0,2,3
 97 651.142857143 97 651.142857143 134 667 c 0,4,5
 148 673 148 673 168 673 c 128,-1,6
 188 673 188 673 206.5 670.5 c 128,-1,7
 225 668 225 668 243.5 665 c 0,8,9
 292.833333333 657 292.833333333 657 315 657 c 128,-1,10
 337 657 337 657 351 666 c 1,11,12
 357 660 357 660 363.5 650.5 c 128,-1,13
 370 641 370 641 370 619 c 128,-1,14
 370 597 370 597 350 577.5 c 128,-1,15
 330 558 330 558 298 558 c 256,16,17
 266 558 266 558 232 568 c 128,-1,18
 198 578 198 578 161 578 c 128,-1,19
 124 578 124 578 117 564 c 1,0,1
187 289 m 0,20,21
 129 289 129 289 129 358 c 0,22,23
 129 406.8 129 406.8 160.5 495 c 0,24,25
 173 530 173 530 187 560 c 2,26,-1
 210 608 l 1,27,-1
 261 593 l 1,28,29
 237 473 237 473 237 421.807692308 c 128,-1,30
 237 370.615384615 237 370.615384615 264 327 c 1,31,32
 226 289 226 289 187 289 c 0,20,21
769 316 m 1,33,34
 757.75 289 757.75 289 709 289 c 0,35,36
 655.357142857 289 655.357142857 289 644 342 c 0,37,38
 641 356 641 356 641 380.5 c 0,39,40
 641 449.714285714 641 449.714285714 652 544 c 1,41,-1
 597 420 l 2,42,43
 571 360 571 360 549 297 c 1,44,-1
 482 297 l 1,45,-1
 440 544 l 1,46,-1
 388 297 l 1,47,-1
 328 297 l 1,48,-1
 413 660 l 1,49,-1
 520 660 l 1,50,-1
 556 445 l 1,51,52
 608 554 608 554 650 660 c 1,53,-1
 749 660 l 1,54,55
 738 445.5 738 445.5 738 438 c 2,56,-1
 738 426 l 2,57,58
 738 362.636363636 738 362.636363636 755.5 334 c 0,59,60
 761 325 761 325 769 316 c 1,33,34
EndSplineSet
EndChar

StartChar: onethird
Encoding: 8531 8531 238
Width: 838
GlyphClass: 2
Flags: HMW
LayerCount: 2
Fore
SplineSet
84 285 m 2,0,1
 62 285 62 285 53 282 c 1,2,3
 51 287 51 287 51 292 c 2,4,-1
 51 302 l 2,5,6
 51 325 51 325 63.5 339 c 128,-1,7
 76 353 76 353 94 353 c 2,8,-1
 251 353 l 2,9,10
 278 353 278 353 299 359 c 1,11,12
 307 347 307 347 307 326.5 c 128,-1,13
 307 306 307 306 292.5 293.5 c 128,-1,14
 278 281 278 281 255 281 c 2,15,-1
 84 285 l 2,0,1
70 608 m 1,16,17
 151.618625277 620.696230599 151.618625277 620.696230599 276 679 c 1,18,-1
 293 657 l 1,19,-1
 227 303 l 1,20,-1
 113 303 l 1,21,-1
 171 569 l 1,22,23
 157 552 157 552 120 552 c 0,24,25
 102 552 102 552 87 568.5 c 128,-1,26
 72 585 72 585 70 608 c 1,16,17
190 -62 m 0,27,28
 190 -52 190 -52 196 -37 c 2,29,-1
 523 718 l 1,30,31
 533 720 533 720 553.5 720 c 128,-1,32
 574 720 574 720 586.5 714.5 c 128,-1,33
 599 709 599 709 599 693 c 128,-1,34
 599 677 599 677 590 652 c 1,35,-1
 267 -88 l 1,36,37
 261 -91 261 -91 236 -91 c 0,38,39
 190 -91 190 -91 190 -62 c 0,27,28
691 210 m 1,40,41
 767 190 767 190 767 116 c 0,42,43
 767 61.8888888889 767 61.8888888889 721.5 26.5 c 0,44,45
 673.285714286 -11 673.285714286 -11 593 -11 c 0,46,47
 545 -11 545 -11 517 7.5 c 128,-1,48
 489 26 489 26 489 56 c 0,49,50
 489 86.6 489 86.6 512 105 c 1,51,52
 533 63 533 63 588 63 c 0,53,54
 617 63 617 63 634 77.5 c 128,-1,55
 651 92 651 92 651 118 c 0,56,57
 651 170 651 170 580 170 c 1,58,-1
 590 222 l 1,59,60
 674 236 674 236 674 278 c 0,61,62
 674 313 674 313 632 313 c 128,-1,63
 590 313 590 313 556 277 c 1,64,65
 536 281 536 281 536 311 c 0,66,67
 536 344.775 536 344.775 579 369.5 c 0,68,69
 621.608695652 394 621.608695652 394 673.804347826 394 c 128,-1,70
 726 394 726 394 755 371 c 128,-1,71
 784 348 784 348 784 314.5 c 128,-1,72
 784 281 784 281 758.5 253 c 128,-1,73
 733 225 733 225 691 210 c 1,40,41
EndSplineSet
EndChar

StartChar: oneeighth
Encoding: 8539 8539 240
Width: 833
GlyphClass: 2
Flags: HMW
LayerCount: 2
Fore
SplineSet
84 285 m 2,0,1
 62 285 62 285 53 282 c 1,2,3
 51 287 51 287 51 292 c 2,4,-1
 51 302 l 2,5,6
 51 325 51 325 63.5 339 c 128,-1,7
 76 353 76 353 94 353 c 2,8,-1
 251 353 l 2,9,10
 278 353 278 353 299 359 c 1,11,12
 307 347 307 347 307 326.5 c 128,-1,13
 307 306 307 306 292.5 293.5 c 128,-1,14
 278 281 278 281 255 281 c 2,15,-1
 84 285 l 2,0,1
70 608 m 1,16,17
 151.618625277 620.696230599 151.618625277 620.696230599 276 679 c 1,18,-1
 293 657 l 1,19,-1
 227 303 l 1,20,-1
 113 303 l 1,21,-1
 171 569 l 1,22,23
 157 552 157 552 120 552 c 0,24,25
 102 552 102 552 87 568.5 c 128,-1,26
 72 585 72 585 70 608 c 1,16,17
190 -62 m 0,27,28
 190 -52 190 -52 196 -37 c 2,29,-1
 523 718 l 1,30,31
 533 720 533 720 553.5 720 c 128,-1,32
 574 720 574 720 586.5 714.5 c 128,-1,33
 599 709 599 709 599 693 c 128,-1,34
 599 677 599 677 590 652 c 1,35,-1
 267 -88 l 1,36,37
 261 -91 261 -91 236 -91 c 0,38,39
 190 -91 190 -91 190 -62 c 0,27,28
473 78 m 0,40,41
 473 145 473 145 559 186 c 1,42,43
 521 217 521 217 521 251 c 128,-1,44
 521 285 521 285 533.5 309 c 128,-1,45
 546 333 546 333 567 350.5 c 0,46,47
 612 388 612 388 669 388 c 128,-1,48
 726 388 726 388 753.5 366 c 128,-1,49
 781 344 781 344 781 309 c 128,-1,50
 781 274 781 274 756.5 249.5 c 128,-1,51
 732 225 732 225 701 211 c 1,52,53
 736 182 736 182 749.5 164.5 c 128,-1,54
 763 147 763 147 763 120.5 c 128,-1,55
 763 94 763 94 750 69 c 128,-1,56
 737 44 737 44 714.5 25.5 c 0,57,58
 667.675675676 -13 667.675675676 -13 602.837837838 -13 c 128,-1,59
 538 -13 538 -13 505.5 12.5 c 128,-1,60
 473 38 473 38 473 78 c 0,40,41
593 155 m 1,61,62
 564 131.117647059 564 131.117647059 564 94 c 0,63,64
 564 74 564 74 573 60.5 c 128,-1,65
 582 47 582 47 600 47 c 128,-1,66
 618 47 618 47 632 60 c 128,-1,67
 646 73 646 73 646 91 c 128,-1,68
 646 109 646 109 633 120 c 2,69,-1
 593 155 l 1,61,62
666 239 m 1,70,71
 698 254.058823529 698 254.058823529 698 289 c 0,72,73
 698 307 698 307 688 319 c 128,-1,74
 678 331 678 331 660 331 c 128,-1,75
 642 331 642 331 630.5 321 c 128,-1,76
 619 311 619 311 619 293 c 128,-1,77
 619 275 619 275 632 265 c 2,78,-1
 666 239 l 1,70,71
EndSplineSet
EndChar

